  0
SECTION
  2
HEADER
  9
$ACADVER
  1
AC1032
  9
$ACADMAINTVER
 90
4
  9
$DWGCODEPAGE
  3
ANSI_1252
  9
$LASTSAVEDBY
  1
ezdxf
  9
$REQUIREDVERSIONS
160
0
  9
$INSBASE
 10
0.0
 20
0.0
 30
0.0
  9
$EXTMIN
 10
1e+20
 20
1e+20
 30
1e+20
  9
$EXTMAX
 10
-1e+20
 20
-1e+20
 30
-1e+20
  9
$LIMMIN
 10
0.0
 20
0.0
  9
$LIMMAX
 10
420.0
 20
297.0
  9
$ORTHOMODE
 70
0
  9
$REGENMODE
 70
1
  9
$FILLMODE
 70
1
  9
$QTEXTMODE
 70
0
  9
$MIRRTEXT
 70
1
  9
$LTSCALE
 40
1.0
  9
$ATTMODE
 70
1
  9
$TEXTSIZE
 40
2.5
  9
$TRACEWID
 40
1.0
  9
$TEXTSTYLE
  7
OpenSans
  9
$CLAYER
  8
0
  9
$CELTYPE
  6
ByLayer
  9
$CECOLOR
 62
256
  9
$CELTSCALE
 40
1.0
  9
$DISPSILH
 70
0
  9
$DIMSCALE
 40
1.0
  9
$DIMASZ
 40
0.175
  9
$DIMEXO
 40
0.125
  9
$DIMDLI
 40
3.75
  9
$DIMRND
 40
0.0
  9
$DIMDLE
 40
0.0
  9
$DIMEXE
 40
0.375
  9
$DIMTP
 40
0.0
  9
$DIMTM
 40
0.0
  9
$DIMTXT
 40
0.25
  9
$DIMCEN
 40
2.5
  9
$DIMTSZ
 40
0.0
  9
$DIMTOL
 70
0
  9
$DIMLIM
 70
0
  9
$DIMTIH
 70
0
  9
$DIMTOH
 70
0
  9
$DIMSE1
 70
0
  9
$DIMSE2
 70
0
  9
$DIMTAD
 70
1
  9
$DIMZIN
 70
12
  9
$DIMBLK
  1
ARCHTICK
  9
$DIMASO
 70
1
  9
$DIMSHO
 70
1
  9
$DIMPOST
  1

  9
$DIMAPOST
  1

  9
$DIMALT
 70
0
  9
$DIMALTD
 70
3
  9
$DIMALTF
 40
0.03937007874
  9
$DIMLFAC
 40
100.0
  9
$DIMTOFL
 70
1
  9
$DIMTVP
 40
0.0
  9
$DIMTIX
 70
0
  9
$DIMSOXD
 70
0
  9
$DIMSAH
 70
0
  9
$DIMBLK1
  1

  9
$DIMBLK2
  1

  9
$DIMSTYLE
  2
EZDXF
  9
$DIMCLRD
 70
0
  9
$DIMCLRE
 70
0
  9
$DIMCLRT
 70
0
  9
$DIMTFAC
 40
0.5
  9
$DIMGAP
 40
0.1
  9
$DIMJUST
 70
0
  9
$DIMSD1
 70
0
  9
$DIMSD2
 70
0
  9
$DIMTOLJ
 70
0
  9
$DIMTZIN
 70
8
  9
$DIMALTZ
 70
0
  9
$DIMALTTZ
 70
0
  9
$DIMUPT
 70
1
  9
$DIMDEC
 70
2
  9
$DIMTDEC
 70
2
  9
$DIMALTU
 70
2
  9
$DIMALTTD
 70
3
  9
$DIMTXSTY
  7
OpenSansCondensed-Light
  9
$DIMAUNIT
 70
0
  9
$DIMADEC
 70
2
  9
$DIMALTRND
 40
0.0
  9
$DIMAZIN
 70
3
  9
$DIMDSEP
 70
46
  9
$DIMATFIT
 70
3
  9
$DIMFRAC
 70
0
  9
$DIMLDRBLK
  1

  9
$DIMLUNIT
 70
2
  9
$DIMLWD
 70
-2
  9
$DIMLWE
 70
-2
  9
$DIMTMOVE
 70
2
  9
$DIMFXL
 40
1.0
  9
$DIMFXLON
 70
0
  9
$DIMJOGANG
 40
0.785398163397
  9
$DIMTFILL
 70
0
  9
$DIMTFILLCLR
 70
0
  9
$DIMARCSYM
 70
0
  9
$DIMLTYPE
  6

  9
$DIMLTEX1
  6

  9
$DIMLTEX2
  6

  9
$DIMTXTDIRECTION
 70
0
  9
$LUNITS
 70
2
  9
$LUPREC
 70
4
  9
$SKETCHINC
 40
1.0
  9
$FILLETRAD
 40
10.0
  9
$AUNITS
 70
0
  9
$AUPREC
 70
2
  9
$MENU
  1
.
  9
$ELEVATION
 40
0.0
  9
$PELEVATION
 40
0.0
  9
$THICKNESS
 40
0.0
  9
$LIMCHECK
 70
0
  9
$CHAMFERA
 40
0.0
  9
$CHAMFERB
 40
0.0
  9
$CHAMFERC
 40
0.0
  9
$CHAMFERD
 40
0.0
  9
$SKPOLY
 70
0
  9
$TDCREATE
 40
2461294.4236574075
  9
$TDUCREATE
 40
2458532.153996898
  9
$TDUPDATE
 40
2461294.4236574075
  9
$TDUUPDATE
 40
2458532.1544311
  9
$TDINDWG
 40
0.0
  9
$TDUSRTIMER
 40
0.0
  9
$USRTIMER
 70
1
  9
$ANGBASE
 50
0.0
  9
$ANGDIR
 70
0
  9
$PDMODE
 70
0
  9
$PDSIZE
 40
0.0
  9
$PLINEWID
 40
0.0
  9
$SPLFRAME
 70
0
  9
$SPLINETYPE
 70
6
  9
$SPLINESEGS
 70
8
  9
$HANDSEED
  5
158
  9
$SURFTAB1
 70
6
  9
$SURFTAB2
 70
6
  9
$SURFTYPE
 70
6
  9
$SURFU
 70
6
  9
$SURFV
 70
6
  9
$UCSBASE
  2

  9
$UCSNAME
  2

  9
$UCSORG
 10
0.0
 20
0.0
 30
0.0
  9
$UCSXDIR
 10
1.0
 20
0.0
 30
0.0
  9
$UCSYDIR
 10
0.0
 20
1.0
 30
0.0
  9
$UCSORTHOREF
  2

  9
$UCSORTHOVIEW
 70
0
  9
$UCSORGTOP
 10
0.0
 20
0.0
 30
0.0
  9
$UCSORGBOTTOM
 10
0.0
 20
0.0
 30
0.0
  9
$UCSORGLEFT
 10
0.0
 20
0.0
 30
0.0
  9
$UCSORGRIGHT
 10
0.0
 20
0.0
 30
0.0
  9
$UCSORGFRONT
 10
0.0
 20
0.0
 30
0.0
  9
$UCSORGBACK
 10
0.0
 20
0.0
 30
0.0
  9
$PUCSBASE
  2

  9
$PUCSNAME
  2

  9
$PUCSORG
 10
0.0
 20
0.0
 30
0.0
  9
$PUCSXDIR
 10
1.0
 20
0.0
 30
0.0
  9
$PUCSYDIR
 10
0.0
 20
1.0
 30
0.0
  9
$PUCSORTHOREF
  2

  9
$PUCSORTHOVIEW
 70
0
  9
$PUCSORGTOP
 10
0.0
 20
0.0
 30
0.0
  9
$PUCSORGBOTTOM
 10
0.0
 20
0.0
 30
0.0
  9
$PUCSORGLEFT
 10
0.0
 20
0.0
 30
0.0
  9
$PUCSORGRIGHT
 10
0.0
 20
0.0
 30
0.0
  9
$PUCSORGFRONT
 10
0.0
 20
0.0
 30
0.0
  9
$PUCSORGBACK
 10
0.0
 20
0.0
 30
0.0
  9
$USERI1
 70
0
  9
$USERI2
 70
0
  9
$USERI3
 70
0
  9
$USERI4
 70
0
  9
$USERI5
 70
0
  9
$USERR1
 40
0.0
  9
$USERR2
 40
0.0
  9
$USERR3
 40
0.0
  9
$USERR4
 40
0.0
  9
$USERR5
 40
0.0
  9
$WORLDVIEW
 70
1
  9
$SHADEDGE
 70
3
  9
$SHADEDIF
 70
70
  9
$TILEMODE
 70
1
  9
$MAXACTVP
 70
64
  9
$PINSBASE
 10
0.0
 20
0.0
 30
0.0
  9
$PLIMCHECK
 70
0
  9
$PEXTMIN
 10
1e+20
 20
1e+20
 30
1e+20
  9
$PEXTMAX
 10
-1e+20
 20
-1e+20
 30
-1e+20
  9
$PLIMMIN
 10
0.0
 20
0.0
  9
$PLIMMAX
 10
420.0
 20
297.0
  9
$UNITMODE
 70
0
  9
$VISRETAIN
 70
1
  9
$PLINEGEN
 70
0
  9
$PSLTSCALE
 70
1
  9
$TREEDEPTH
 70
3020
  9
$CMLSTYLE
  2
Standard
  9
$CMLJUST
 70
0
  9
$CMLSCALE
 40
20.0
  9
$PROXYGRAPHICS
 70
1
  9
$MEASUREMENT
 70
1
  9
$CELWEIGHT
370
-1
  9
$ENDCAPS
280
0
  9
$JOINSTYLE
280
0
  9
$LWDISPLAY
290
0
  9
$INSUNITS
 70
6
  9
$HYPERLINKBASE
  1

  9
$STYLESHEET
  1

  9
$XEDIT
290
1
  9
$CEPSNTYPE
380
0
  9
$PSTYLEMODE
290
1
  9
$FINGERPRINTGUID
  2
{7EE07331-B065-460D-9499-53F5FF183AC5}
  9
$VERSIONGUID
  2
{E7B3E34C-4D41-4207-9579-976DF9C44414}
  9
$EXTNAMES
290
1
  9
$PSVPSCALE
 40
0.0
  9
$OLESTARTUP
290
0
  9
$SORTENTS
280
127
  9
$INDEXCTL
280
0
  9
$HIDETEXT
280
1
  9
$XCLIPFRAME
280
1
  9
$HALOGAP
280
0
  9
$OBSCOLOR
 70
257
  9
$OBSLTYPE
280
0
  9
$INTERSECTIONDISPLAY
280
0
  9
$INTERSECTIONCOLOR
 70
257
  9
$DIMASSOC
280
2
  9
$PROJECTNAME
  1

  9
$CAMERADISPLAY
290
0
  9
$LENSLENGTH
 40
50.0
  9
$CAMERAHEIGHT
 40
0.0
  9
$STEPSPERSEC
 40
24.0
  9
$STEPSIZE
 40
100.0
  9
$3DDWFPREC
 40
2.0
  9
$PSOLWIDTH
 40
0.005
  9
$PSOLHEIGHT
 40
0.08
  9
$LOFTANG1
 40
1.570796326795
  9
$LOFTANG2
 40
1.570796326795
  9
$LOFTMAG1
 40
0.0
  9
$LOFTMAG2
 40
0.0
  9
$LOFTPARAM
 70
7
  9
$LOFTNORMALS
280
1
  9
$LATITUDE
 40
37.795
  9
$LONGITUDE
 40
-122.394
  9
$NORTHDIRECTION
 40
0.0
  9
$TIMEZONE
 70
-8000
  9
$LIGHTGLYPHDISPLAY
280
1
  9
$TILEMODELIGHTSYNCH
280
1
  9
$CMATERIAL
347
20
  9
$SOLIDHIST
280
0
  9
$SHOWHIST
280
1
  9
$DWFFRAME
280
2
  9
$DGNFRAME
280
2
  9
$REALWORLDSCALE
290
1
  9
$INTERFERECOLOR
 62
256
  9
$CSHADOW
280
0
  9
$SHADOWPLANELOCATION
 40
0.0
  0
ENDSEC
  0
SECTION
  2
CLASSES
  0
CLASS
  1
ACDBDICTIONARYWDFLT
  2
AcDbDictionaryWithDefault
  3
ObjectDBX Classes
 90
0
 91
0
280
0
281
0
  0
CLASS
  1
SUN
  2
AcDbSun
  3
SCENEOE
 90
1153
 91
0
280
0
281
0
  0
CLASS
  1
VISUALSTYLE
  2
AcDbVisualStyle
  3
ObjectDBX Classes
 90
4095
 91
0
280
0
281
0
  0
CLASS
  1
MATERIAL
  2
AcDbMaterial
  3
ObjectDBX Classes
 90
1153
 91
0
280
0
281
0
  0
CLASS
  1
SCALE
  2
AcDbScale
  3
ObjectDBX Classes
 90
1153
 91
0
280
0
281
0
  0
CLASS
  1
TABLESTYLE
  2
AcDbTableStyle
  3
ObjectDBX Classes
 90
4095
 91
0
280
0
281
0
  0
CLASS
  1
MLEADERSTYLE
  2
AcDbMLeaderStyle
  3
ACDB_MLEADERSTYLE_CLASS
 90
4095
 91
0
280
0
281
0
  0
CLASS
  1
DICTIONARYVAR
  2
AcDbDictionaryVar
  3
ObjectDBX Classes
 90
0
 91
0
280
0
281
0
  0
CLASS
  1
CELLSTYLEMAP
  2
AcDbCellStyleMap
  3
ObjectDBX Classes
 90
1152
 91
0
280
0
281
0
  0
CLASS
  1
MENTALRAYRENDERSETTINGS
  2
AcDbMentalRayRenderSettings
  3
SCENEOE
 90
1024
 91
0
280
0
281
0
  0
CLASS
  1
ACDBDETAILVIEWSTYLE
  2
AcDbDetailViewStyle
  3
ObjectDBX Classes
 90
1025
 91
0
280
0
281
0
  0
CLASS
  1
ACDBSECTIONVIEWSTYLE
  2
AcDbSectionViewStyle
  3
ObjectDBX Classes
 90
1025
 91
0
280
0
281
0
  0
CLASS
  1
RASTERVARIABLES
  2
AcDbRasterVariables
  3
ISM
 90
0
 91
0
280
0
281
0
  0
CLASS
  1
ACDBPLACEHOLDER
  2
AcDbPlaceHolder
  3
ObjectDBX Classes
 90
0
 91
0
280
0
281
0
  0
CLASS
  1
LAYOUT
  2
AcDbLayout
  3
ObjectDBX Classes
 90
0
 91
0
280
0
281
0
  0
ENDSEC
  0
SECTION
  2
TABLES
  0
TABLE
  2
VPORT
  5
8
330
0
100
AcDbSymbolTable
 70
1
  0
VPORT
  5
155
330
8
100
AcDbSymbolTableRecord
100
AcDbViewportTableRecord
  2
*Active
 70
0
 10
0.0
 20
0.0
 11
1.0
 21
1.0
 12
115.03697424390839
 22
177.56322135087942
 13
0.0
 23
0.0
 14
0.5
 24
0.5
 15
0.5
 25
0.5
 16
0.0
 26
0.0
 36
1.0
 17
0.0
 27
0.0
 37
0.0
 40
225.3609130280653
 41
1.34
 42
50.0
 43
0.0
 44
0.0
 50
0.0
 51
0.0
 71
0
 72
1000
 73
1
 74
3
 75
0
 76
0
 77
0
 78
0
281
0
 65
1
110
0.0
120
0.0
130
0.0
111
1.0
121
0.0
131
0.0
112
0.0
122
1.0
132
0.0
 79
0
146
0.0
  0
ENDTAB
  0
TABLE
  2
LTYPE
  5
2
330
0
100
AcDbSymbolTable
 70
21
  0
LTYPE
  5
24
330
2
100
AcDbSymbolTableRecord
100
AcDbLinetypeTableRecord
  2
ByBlock
 70
0
  3

 72
65
 73
0
 40
0.0
  0
LTYPE
  5
25
330
2
100
AcDbSymbolTableRecord
100
AcDbLinetypeTableRecord
  2
ByLayer
 70
0
  3

 72
65
 73
0
 40
0.0
  0
LTYPE
  5
26
330
2
100
AcDbSymbolTableRecord
100
AcDbLinetypeTableRecord
  2
Continuous
 70
0
  3

 72
65
 73
0
 40
0.0
  0
LTYPE
  5
2F
330
2
100
AcDbSymbolTableRecord
100
AcDbLinetypeTableRecord
  2
CENTER
 70
0
  3
Center ____ _ ____ _ ____ _ ____ _ ____ _ ____
 72
65
 73
4
 40
5.08
 49
3.175
 74
0
 49
-0.635
 74
0
 49
0.635
 74
0
 49
-0.635
 74
0
  0
LTYPE
  5
30
330
2
100
AcDbSymbolTableRecord
100
AcDbLinetypeTableRecord
  2
CENTERX2
 70
0
  3
Center (2x) ________  __  ________  __  ________
 72
65
 73
4
 40
8.89
 49
6.35
 74
0
 49
-0.635
 74
0
 49
1.27
 74
0
 49
-0.635
 74
0
  0
LTYPE
  5
31
330
2
100
AcDbSymbolTableRecord
100
AcDbLinetypeTableRecord
  2
CENTER2
 70
0
  3
Center (.5x) ____ _ ____ _ ____ _ ____ _ ____
 72
65
 73
4
 40
2.54
 49
1.587
 74
0
 49
-0.318
 74
0
 49
0.318
 74
0
 49
-0.318
 74
0
  0
LTYPE
  5
32
330
2
100
AcDbSymbolTableRecord
100
AcDbLinetypeTableRecord
  2
DASHED
 70
0
  3
Dashed __ __ __ __ __ __ __ __ __ __ __ __ __ _
 72
65
 73
2
 40
1.524
 49
1.27
 74
0
 49
-0.254
 74
0
  0
LTYPE
  5
33
330
2
100
AcDbSymbolTableRecord
100
AcDbLinetypeTableRecord
  2
DASHEDX2
 70
0
  3
Dashed (2x) ____  ____  ____  ____  ____  ____
 72
65
 73
2
 40
3.048
 49
2.54
 74
0
 49
-0.508
 74
0
  0
LTYPE
  5
34
330
2
100
AcDbSymbolTableRecord
100
AcDbLinetypeTableRecord
  2
DASHED2
 70
0
  3
Dashed (.5x) _ _ _ _ _ _ _ _ _ _ _ _ _ _
 72
65
 73
2
 40
0.762
 49
0.635
 74
0
 49
-0.127
 74
0
  0
LTYPE
  5
35
330
2
100
AcDbSymbolTableRecord
100
AcDbLinetypeTableRecord
  2
PHANTOM
 70
0
  3
Phantom ______  __  __  ______  __  __  ______
 72
65
 73
6
 40
6.35
 49
3.175
 74
0
 49
-0.635
 74
0
 49
0.635
 74
0
 49
-0.635
 74
0
 49
0.635
 74
0
 49
-0.635
 74
0
  0
LTYPE
  5
36
330
2
100
AcDbSymbolTableRecord
100
AcDbLinetypeTableRecord
  2
PHANTOMX2
 70
0
  3
Phantom (2x)____________    ____    ____    ____________
 72
65
 73
6
 40
10.795
 49
6.35
 74
0
 49
-0.635
 74
0
 49
1.27
 74
0
 49
-0.635
 74
0
 49
1.27
 74
0
 49
-0.635
 74
0
  0
LTYPE
  5
37
330
2
100
AcDbSymbolTableRecord
100
AcDbLinetypeTableRecord
  2
PHANTOM2
 70
0
  3
Phantom (.5x) ___ _ _ ___ _ _ ___ _ _ ___ _ _ ___
 72
65
 73
6
 40
3.175
 49
1.587
 74
0
 49
-0.318
 74
0
 49
0.318
 74
0
 49
-0.318
 74
0
 49
0.318
 74
0
 49
-0.318
 74
0
  0
LTYPE
  5
38
330
2
100
AcDbSymbolTableRecord
100
AcDbLinetypeTableRecord
  2
DASHDOT
 70
0
  3
Dash dot __ . __ . __ . __ . __ . __ . __ . __
 72
65
 73
4
 40
3.556
 49
2.54
 74
0
 49
-0.508
 74
0
 49
0.0
 74
0
 49
-0.508
 74
0
  0
LTYPE
  5
39
330
2
100
AcDbSymbolTableRecord
100
AcDbLinetypeTableRecord
  2
DASHDOTX2
 70
0
  3
Dash dot (2x) ____  .  ____  .  ____  .  ____
 72
65
 73
4
 40
6.096
 49
5.08
 74
0
 49
-0.508
 74
0
 49
0.0
 74
0
 49
-0.508
 74
0
  0
LTYPE
  5
3A
330
2
100
AcDbSymbolTableRecord
100
AcDbLinetypeTableRecord
  2
DASHDOT2
 70
0
  3
Dash dot (.5x) _ . _ . _ . _ . _ . _ . _ . _
 72
65
 73
4
 40
1.778
 49
1.27
 74
0
 49
-0.254
 74
0
 49
0.0
 74
0
 49
-0.254
 74
0
  0
LTYPE
  5
3B
330
2
100
AcDbSymbolTableRecord
100
AcDbLinetypeTableRecord
  2
DOT
 70
0
  3
Dot .  .  .  .  .  .  .  .  .  .  .  .  .  .  .  .
 72
65
 73
2
 40
0.508
 49
0.0
 74
0
 49
-0.508
 74
0
  0
LTYPE
  5
3C
330
2
100
AcDbSymbolTableRecord
100
AcDbLinetypeTableRecord
  2
DOTX2
 70
0
  3
Dot (2x) .    .    .    .    .    .    .    . 
 72
65
 73
2
 40
1.016
 49
0.0
 74
0
 49
-1.016
 74
0
  0
LTYPE
  5
3D
330
2
100
AcDbSymbolTableRecord
100
AcDbLinetypeTableRecord
  2
DOT2
 70
0
  3
Dot (.5) . . . . . . . . . . . . . . . . . . . 
 72
65
 73
2
 40
0.254
 49
0.0
 74
0
 49
-0.254
 74
0
  0
LTYPE
  5
3E
330
2
100
AcDbSymbolTableRecord
100
AcDbLinetypeTableRecord
  2
DIVIDE
 70
0
  3
Divide __ . . __ . . __ . . __ . . __ . . __
 72
65
 73
6
 40
4.064
 49
2.54
 74
0
 49
-0.508
 74
0
 49
0.0
 74
0
 49
-0.508
 74
0
 49
0.0
 74
0
 49
-0.508
 74
0
  0
LTYPE
  5
3F
330
2
100
AcDbSymbolTableRecord
100
AcDbLinetypeTableRecord
  2
DIVIDEX2
 70
0
  3
Divide (2x) ____  . .  ____  . .  ____  . .  ____
 72
65
 73
6
 40
6.604
 49
5.08
 74
0
 49
-0.508
 74
0
 49
0.0
 74
0
 49
-0.508
 74
0
 49
0.0
 74
0
 49
-0.508
 74
0
  0
LTYPE
  5
40
330
2
100
AcDbSymbolTableRecord
100
AcDbLinetypeTableRecord
  2
DIVIDE2
 70
0
  3
Divide(.5x) _ . _ . _ . _ . _ . _ . _ . _
 72
65
 73
6
 40
2.032
 49
1.27
 74
0
 49
-0.254
 74
0
 49
0.0
 74
0
 49
-0.254
 74
0
 49
0.0
 74
0
 49
-0.254
 74
0
  0
ENDTAB
  0
TABLE
  2
LAYER
  5
1
330
0
100
AcDbSymbolTable
 70
13
  0
LAYER
  5
27
330
1
100
AcDbSymbolTableRecord
100
AcDbLayerTableRecord
  2
0
 70
0
 62
7
  6
Continuous
370
-3
390
13
347
21
  0
LAYER
  5
28
330
1
100
AcDbSymbolTableRecord
100
AcDbLayerTableRecord
  2
Defpoints
 70
0
 62
7
  6
Continuous
290
0
370
-3
390
13
347
21
  0
LAYER
  5
8A
330
1
100
AcDbSymbolTableRecord
100
AcDbLayerTableRecord
  2
im1-011$0$Кабель
 70
0
 62
7
  6
Continuous
370
-3
390
13
347
21
1001
AcAecLayerStandard
1000

1000

1001
AcCmTransparency
1071
0
  0
LAYER
  5
8E
330
1
100
AcDbSymbolTableRecord
100
AcDbLayerTableRecord
  2
im1-011$0$Слой1
 70
0
 62
7
  6
Continuous
370
30
390
13
347
21
1001
AcAecLayerStandard
1000

1000

1001
AcCmTransparency
1071
0
  0
LAYER
  5
8F
330
1
100
AcDbSymbolTableRecord
100
AcDbLayerTableRecord
  2
im1-011$0$XT7
 70
0
 62
7
  6
Continuous
370
-3
390
13
347
21
1001
AcAecLayerStandard
1000

1000

1001
AcCmTransparency
1071
0
  0
LAYER
  5
91
330
1
100
AcDbSymbolTableRecord
100
AcDbLayerTableRecord
  2
im1-011$0$Headers
 70
0
 62
7
  6
Continuous
370
-3
390
13
347
21
1001
AcAecLayerStandard
1000

1000

1001
AcCmTransparency
1071
0
  0
LAYER
  5
92
330
1
100
AcDbSymbolTableRecord
100
AcDbLayerTableRecord
  2
im1-011$0$XT1
 70
0
 62
7
  6
Continuous
370
-3
390
13
347
21
1001
AcAecLayerStandard
1000

1000

1001
AcCmTransparency
1071
0
  0
LAYER
  5
93
330
1
100
AcDbSymbolTableRecord
100
AcDbLayerTableRecord
  2
im1-011$0$QF
 70
0
 62
7
  6
Continuous
370
-3
390
13
347
21
1001
AcAecLayerStandard
1000

1000

1001
AcCmTransparency
1071
0
  0
LAYER
  5
94
330
1
100
AcDbSymbolTableRecord
100
AcDbLayerTableRecord
  2
im1-011$0$KM
 70
0
 62
7
  6
Continuous
370
30
390
13
347
21
1001
AcAecLayerStandard
1000

1000

1001
AcCmTransparency
1071
0
  0
LAYER
  5
10A
330
1
100
AcDbSymbolTableRecord
100
AcDbLayerTableRecord
  2
im2-1$0$Слой1
 70
0
 62
7
  6
Continuous
370
30
390
13
347
21
1001
AcAecLayerStandard
1000

1000

1001
AcCmTransparency
1071
0
  0
LAYER
  5
10E
330
1
100
AcDbSymbolTableRecord
100
AcDbLayerTableRecord
  2
im2-1$0$Headers
 70
0
 62
7
  6
Continuous
370
-3
390
13
347
21
1001
AcAecLayerStandard
1000

1000

1001
AcCmTransparency
1071
0
  0
LAYER
  5
110
330
1
100
AcDbSymbolTableRecord
100
AcDbLayerTableRecord
  2
im2-1$0$Кабель
 70
0
 62
7
  6
Continuous
370
-3
390
13
347
21
1001
AcAecLayerStandard
1000

1000

1001
AcCmTransparency
1071
0
  0
LAYER
  5
111
330
1
100
AcDbSymbolTableRecord
100
AcDbLayerTableRecord
  2
im2-1$0$XT7
 70
0
 62
7
  6
Continuous
370
-3
390
13
347
21
1001
AcAecLayerStandard
1000

1000

1001
AcCmTransparency
1071
0
  0
ENDTAB
  0
TABLE
  2
STYLE
  5
5
330
0
100
AcDbSymbolTable
 70
28
  0
STYLE
  5
29
330
5
100
AcDbSymbolTableRecord
100
AcDbTextStyleTableRecord
  2
Standard
 70
0
 40
0.0
 41
1.0
 50
0.0
 71
0
 42
2.5
  3
txt
  4

  0
STYLE
  5
41
330
5
100
AcDbSymbolTableRecord
100
AcDbTextStyleTableRecord
  2
OpenSans-Light
 70
0
 40
0.0
 41
1.0
 50
0.0
 71
0
 42
2.5
  3
OpenSans-Light.ttf
  4

  0
STYLE
  5
42
330
5
100
AcDbSymbolTableRecord
100
AcDbTextStyleTableRecord
  2
OpenSans-Light-Italic
 70
0
 40
0.0
 41
1.0
 50
0.0
 71
0
 42
2.5
  3
OpenSans-LightItalic.ttf
  4

  0
STYLE
  5
43
330
5
100
AcDbSymbolTableRecord
100
AcDbTextStyleTableRecord
  2
OpenSans
 70
0
 40
0.0
 41
1.0
 50
0.0
 71
0
 42
2.5
  3
OpenSans-Regular.ttf
  4

  0
STYLE
  5
44
330
5
100
AcDbSymbolTableRecord
100
AcDbTextStyleTableRecord
  2
OpenSans-Italic
 70
0
 40
0.0
 41
1.0
 50
0.0
 71
0
 42
2.5
  3
OpenSans-Italic.ttf
  4

  0
STYLE
  5
45
330
5
100
AcDbSymbolTableRecord
100
AcDbTextStyleTableRecord
  2
OpenSans-SemiBold
 70
0
 40
0.0
 41
1.0
 50
0.0
 71
0
 42
2.5
  3
OpenSans-SemiBold.ttf
  4

  0
STYLE
  5
46
330
5
100
AcDbSymbolTableRecord
100
AcDbTextStyleTableRecord
  2
OpenSans-SemiBoldItalic
 70
0
 40
0.0
 41
1.0
 50
0.0
 71
0
 42
2.5
  3
OpenSans-SemiBoldItalic.ttf
  4

  0
STYLE
  5
47
330
5
100
AcDbSymbolTableRecord
100
AcDbTextStyleTableRecord
  2
OpenSans-Bold
 70
0
 40
0.0
 41
1.0
 50
0.0
 71
0
 42
2.5
  3
OpenSans-Bold.ttf
  4

  0
STYLE
  5
48
330
5
100
AcDbSymbolTableRecord
100
AcDbTextStyleTableRecord
  2
OpenSans-BoldItalic
 70
0
 40
0.0
 41
1.0
 50
0.0
 71
0
 42
2.5
  3
OpenSans-BoldItalic.ttf
  4

  0
STYLE
  5
49
330
5
100
AcDbSymbolTableRecord
100
AcDbTextStyleTableRecord
  2
OpenSans-ExtraBold
 70
0
 40
0.0
 41
1.0
 50
0.0
 71
0
 42
2.5
  3
OpenSans-ExtraBold.ttf
  4

  0
STYLE
  5
4A
330
5
100
AcDbSymbolTableRecord
100
AcDbTextStyleTableRecord
  2
OpenSans-ExtraBoldItalic
 70
0
 40
0.0
 41
1.0
 50
0.0
 71
0
 42
2.5
  3
OpenSans-ExtraBoldItalic.ttf
  4

  0
STYLE
  5
4B
330
5
100
AcDbSymbolTableRecord
100
AcDbTextStyleTableRecord
  2
OpenSansCondensed-Bold
 70
0
 40
0.0
 41
1.0
 50
0.0
 71
0
 42
2.5
  3
OpenSansCondensed-Bold.ttf
  4

  0
STYLE
  5
4C
330
5
100
AcDbSymbolTableRecord
100
AcDbTextStyleTableRecord
  2
OpenSansCondensed-Light
 70
0
 40
0.0
 41
1.0
 50
0.0
 71
0
 42
2.5
  3
OpenSansCondensed-Light.ttf
  4

  0
STYLE
  5
4D
330
5
100
AcDbSymbolTableRecord
100
AcDbTextStyleTableRecord
  2
OpenSansCondensed-Italic
 70
0
 40
0.0
 41
1.0
 50
0.0
 71
0
 42
2.5
  3
OpenSansCondensed-LightItalic.ttf
  4

  0
STYLE
  5
4E
330
5
100
AcDbSymbolTableRecord
100
AcDbTextStyleTableRecord
  2
LiberationSans
 70
0
 40
0.0
 41
1.0
 50
0.0
 71
0
 42
2.5
  3
LiberationSans-Regular.ttf
  4

  0
STYLE
  5
4F
330
5
100
AcDbSymbolTableRecord
100
AcDbTextStyleTableRecord
  2
LiberationSans-Bold
 70
0
 40
0.0
 41
1.0
 50
0.0
 71
0
 42
2.5
  3
LiberationSans-Bold.ttf
  4

  0
STYLE
  5
50
330
5
100
AcDbSymbolTableRecord
100
AcDbTextStyleTableRecord
  2
LiberationSans-BoldItalic
 70
0
 40
0.0
 41
1.0
 50
0.0
 71
0
 42
2.5
  3
LiberationSans-BoldItalic.ttf
  4

  0
STYLE
  5
51
330
5
100
AcDbSymbolTableRecord
100
AcDbTextStyleTableRecord
  2
LiberationSans-Italic
 70
0
 40
0.0
 41
1.0
 50
0.0
 71
0
 42
2.5
  3
LiberationSans-Italic.ttf
  4

  0
STYLE
  5
52
330
5
100
AcDbSymbolTableRecord
100
AcDbTextStyleTableRecord
  2
LiberationSerif
 70
0
 40
0.0
 41
1.0
 50
0.0
 71
0
 42
2.5
  3
LiberationSerif-Regular.ttf
  4

  0
STYLE
  5
53
330
5
100
AcDbSymbolTableRecord
100
AcDbTextStyleTableRecord
  2
LiberationSerif-Bold
 70
0
 40
0.0
 41
1.0
 50
0.0
 71
0
 42
2.5
  3
LiberationSerif-Bold.ttf
  4

  0
STYLE
  5
54
330
5
100
AcDbSymbolTableRecord
100
AcDbTextStyleTableRecord
  2
LiberationSerif-BoldItalic
 70
0
 40
0.0
 41
1.0
 50
0.0
 71
0
 42
2.5
  3
LiberationSerif-BoldItalic.ttf
  4

  0
STYLE
  5
55
330
5
100
AcDbSymbolTableRecord
100
AcDbTextStyleTableRecord
  2
LiberationSerif-Italic
 70
0
 40
0.0
 41
1.0
 50
0.0
 71
0
 42
2.5
  3
LiberationSerif-Italic.ttf
  4

  0
STYLE
  5
56
330
5
100
AcDbSymbolTableRecord
100
AcDbTextStyleTableRecord
  2
LiberationMono
 70
0
 40
0.0
 41
1.0
 50
0.0
 71
0
 42
2.5
  3
LiberationMono-Regular.ttf
  4

  0
STYLE
  5
57
330
5
100
AcDbSymbolTableRecord
100
AcDbTextStyleTableRecord
  2
LiberationMono-Bold
 70
0
 40
0.0
 41
1.0
 50
0.0
 71
0
 42
2.5
  3
LiberationMono-Bold.ttf
  4

  0
STYLE
  5
58
330
5
100
AcDbSymbolTableRecord
100
AcDbTextStyleTableRecord
  2
LiberationMono-BoldItalic
 70
0
 40
0.0
 41
1.0
 50
0.0
 71
0
 42
2.5
  3
LiberationMono-BoldItalic.ttf
  4

  0
STYLE
  5
59
330
5
100
AcDbSymbolTableRecord
100
AcDbTextStyleTableRecord
  2
LiberationMono-Italic
 70
0
 40
0.0
 41
1.0
 50
0.0
 71
0
 42
2.5
  3
LiberationMono-Italic.ttf
  4

  0
STYLE
  5
90
330
5
100
AcDbSymbolTableRecord
100
AcDbTextStyleTableRecord
  2
im1-011$0$GOST_A
 70
0
 40
0.0
 41
1.0
 50
0.0
 71
0
 42
30.0
  3
GOST_0.TTF
  4

1001
ACAD
1000
GOST type A
1071
34
  0
STYLE
  5
10F
330
5
100
AcDbSymbolTableRecord
100
AcDbTextStyleTableRecord
  2
im2-1$0$GOST_A
 70
0
 40
0.0
 41
1.0
 50
0.0
 71
0
 42
30.0
  3
GOST_0.TTF
  4

1001
ACAD
1000
GOST type A
1071
34
  0
ENDTAB
  0
TABLE
  2
VIEW
  5
7
330
0
100
AcDbSymbolTable
 70
0
  0
ENDTAB
  0
TABLE
  2
UCS
  5
6
330
0
100
AcDbSymbolTable
 70
0
  0
ENDTAB
  0
TABLE
  2
APPID
  5
3
330
0
100
AcDbSymbolTable
 70
7
  0
APPID
  5
2A
330
3
100
AcDbSymbolTableRecord
100
AcDbRegAppTableRecord
  2
ACAD
 70
0
  0
APPID
  5
105
330
3
100
AcDbSymbolTableRecord
100
AcDbRegAppTableRecord
  2
ACAECLAYERSTANDARD
 70
0
  0
APPID
  5
106
330
3
100
AcDbSymbolTableRecord
100
AcDbRegAppTableRecord
  2
GRADIENTCOLOR1ACI
 70
0
  0
APPID
  5
107
330
3
100
AcDbSymbolTableRecord
100
AcDbRegAppTableRecord
  2
ACCMTRANSPARENCY
 70
0
  0
APPID
  5
108
330
3
100
AcDbSymbolTableRecord
100
AcDbRegAppTableRecord
  2
GRADIENTCOLOR2ACI
 70
0
  0
APPID
  5
109
330
3
100
AcDbSymbolTableRecord
100
AcDbRegAppTableRecord
  2
HATCHBACKGROUNDCOLOR
 70
0
  0
APPID
  5
156
330
3
100
AcDbSymbolTableRecord
100
AcDbRegAppTableRecord
  2
EZDXF
 70
0
  0
ENDTAB
  0
TABLE
  2
DIMSTYLE
  5
4
330
0
100
AcDbSymbolTable
 70
12
100
AcDbDimStyleTable
  0
DIMSTYLE
105
2B
330
4
100
AcDbSymbolTableRecord
100
AcDbDimStyleTableRecord
  2
Standard
 70
0
 40
1.0
 41
2.5
 42
0.625
 43
3.75
 44
1.25
 45
0.0
 46
0.0
 47
0.0
 48
0.0
 49
2.5
140
2.5
141
2.5
142
0.0
143
0.03937007874
144
1.0
145
0.0
146
1.0
147
0.625
148
0.0
 69
0
 70
0
 71
0
 72
0
 73
0
 74
0
 75
0
 76
0
 77
1
 78
8
 79
3
170
0
171
3
172
1
173
0
174
0
175
0
176
0
177
0
178
0
179
2
271
2
272
2
273
2
274
3
275
0
276
0
277
2
278
44
279
0
280
0
281
0
282
0
283
0
284
8
285
0
286
0
288
0
289
3
290
0
371
-2
372
-2
  0
DIMSTYLE
105
73
330
4
100
AcDbSymbolTableRecord
100
AcDbDimStyleTableRecord
  2
EZDXF
 70
0
 40
1.0
 41
0.175
 42
0.125
 43
3.75
 44
0.375
 45
0.0
 46
0.0
 47
0.0
 48
0.0
 49
2.5
140
0.25
141
2.5
142
0.0
143
0.03937007874
144
100.0
145
0.0
146
0.5
147
0.1
148
0.0
 69
0
 70
0
 71
0
 72
0
 73
0
 74
0
 75
0
 76
0
 77
1
 78
12
 79
3
170
0
171
3
172
1
173
0
174
0
175
0
176
0
177
0
178
0
179
2
271
2
272
2
273
2
274
3
275
0
276
0
277
2
278
46
279
2
280
0
281
0
282
0
283
0
284
8
285
0
286
0
288
1
289
3
290
0
340
4C
342
74
371
-2
372
-2
  0
DIMSTYLE
105
7C
330
4
100
AcDbSymbolTableRecord
100
AcDbDimStyleTableRecord
  2
EZ_M_100_H25_CM
 70
0
 40
1.0
 41
0.25
 42
0.125
 43
3.75
 44
0.375
 45
0.0
 46
0.0
 47
0.0
 48
0.0
 49
2.5
140
0.25
141
2.5
142
0.125
143
0.03937007874
144
100.0
145
0.0
146
0.5
147
0.1
148
0.0
 69
0
 70
0
 71
0
 72
0
 73
0
 74
0
 75
0
 76
0
 77
1
 78
12
 79
3
170
0
171
3
172
1
173
0
174
0
175
0
176
0
177
0
178
0
179
2
271
2
272
2
273
2
274
3
275
0
276
0
277
2
278
46
279
2
280
0
281
0
282
0
283
0
284
8
285
0
286
0
288
1
289
3
290
0
340
4C
371
-2
372
-2
  0
DIMSTYLE
105
7D
330
4
100
AcDbSymbolTableRecord
100
AcDbDimStyleTableRecord
  2
EZ_M_50_H25_CM
 70
0
 40
1.0
 41
0.125
 42
0.0625
 43
3.75
 44
0.1875
 45
0.0
 46
0.0
 47
0.0
 48
0.0
 49
2.5
140
0.125
141
2.5
142
0.0625
143
0.03937007874
144
100.0
145
0.0
146
0.5
147
0.05
148
0.0
 69
0
 70
0
 71
0
 72
0
 73
0
 74
0
 75
0
 76
0
 77
1
 78
12
 79
3
170
0
171
3
172
1
173
0
174
0
175
0
176
0
177
0
178
0
179
2
271
2
272
2
273
2
274
3
275
0
276
0
277
2
278
46
279
2
280
0
281
0
282
0
283
0
284
8
285
0
286
0
288
1
289
3
290
0
340
4C
371
-2
372
-2
  0
DIMSTYLE
105
7E
330
4
100
AcDbSymbolTableRecord
100
AcDbDimStyleTableRecord
  2
EZ_M_25_H25_CM
 70
0
 40
1.0
 41
0.0625
 42
0.03125
 43
3.75
 44
0.09375
 45
0.0
 46
0.0
 47
0.0
 48
0.0
 49
2.5
140
0.0625
141
2.5
142
0.03125
143
0.03937007874
144
100.0
145
0.0
146
0.5
147
0.025
148
0.0
 69
0
 70
0
 71
0
 72
0
 73
0
 74
0
 75
0
 76
0
 77
1
 78
12
 79
3
170
0
171
3
172
1
173
0
174
0
175
0
176
0
177
0
178
0
179
2
271
2
272
2
273
2
274
3
275
0
276
0
277
2
278
46
279
2
280
0
281
0
282
0
283
0
284
8
285
0
286
0
288
1
289
3
290
0
340
4C
371
-2
372
-2
  0
DIMSTYLE
105
7F
330
4
100
AcDbSymbolTableRecord
100
AcDbDimStyleTableRecord
  2
EZ_M_20_H25_CM
 70
0
 40
1.0
 41
0.05
 42
0.025
 43
3.75
 44
0.07500000000000001
 45
0.0
 46
0.0
 47
0.0
 48
0.0
 49
2.5
140
0.05
141
2.5
142
0.025
143
0.03937007874
144
100.0
145
0.0
146
0.5
147
0.020000000000000004
148
0.0
 69
0
 70
0
 71
0
 72
0
 73
0
 74
0
 75
0
 76
0
 77
1
 78
12
 79
3
170
0
171
3
172
1
173
0
174
0
175
0
176
0
177
0
178
0
179
2
271
2
272
2
273
2
274
3
275
0
276
0
277
2
278
46
279
2
280
0
281
0
282
0
283
0
284
8
285
0
286
0
288
1
289
3
290
0
340
4C
371
-2
372
-2
  0
DIMSTYLE
105
80
330
4
100
AcDbSymbolTableRecord
100
AcDbDimStyleTableRecord
  2
EZ_M_10_H25_CM
 70
0
 40
1.0
 41
0.025
 42
0.0125
 43
3.75
 44
0.037500000000000006
 45
0.0
 46
0.0
 47
0.0
 48
0.0
 49
2.5
140
0.025
141
2.5
142
0.0125
143
0.03937007874
144
100.0
145
0.0
146
0.5
147
0.010000000000000002
148
0.0
 69
0
 70
0
 71
0
 72
0
 73
0
 74
0
 75
0
 76
0
 77
1
 78
12
 79
3
170
0
171
3
172
1
173
0
174
0
175
0
176
0
177
0
178
0
179
2
271
2
272
2
273
2
274
3
275
0
276
0
277
2
278
46
279
2
280
0
281
0
282
0
283
0
284
8
285
0
286
0
288
1
289
3
290
0
340
4C
371
-2
372
-2
  0
DIMSTYLE
105
81
330
4
100
AcDbSymbolTableRecord
100
AcDbDimStyleTableRecord
  2
EZ_M_5_H25_CM
 70
0
 40
1.0
 41
0.0125
 42
0.00625
 43
3.75
 44
0.018750000000000003
 45
0.0
 46
0.0
 47
0.0
 48
0.0
 49
2.5
140
0.0125
141
2.5
142
0.00625
143
0.03937007874
144
100.0
145
0.0
146
0.5
147
0.005000000000000001
148
0.0
 69
0
 70
0
 71
0
 72
0
 73
0
 74
0
 75
0
 76
0
 77
1
 78
12
 79
3
170
0
171
3
172
1
173
0
174
0
175
0
176
0
177
0
178
0
179
2
271
2
272
2
273
2
274
3
275
0
276
0
277
2
278
46
279
2
280
0
281
0
282
0
283
0
284
8
285
0
286
0
288
1
289
3
290
0
340
4C
371
-2
372
-2
  0
DIMSTYLE
105
82
330
4
100
AcDbSymbolTableRecord
100
AcDbDimStyleTableRecord
  2
EZ_M_1_H25_CM
 70
0
 40
1.0
 41
0.0025
 42
0.00125
 43
3.75
 44
0.00375
 45
0.0
 46
0.0
 47
0.0
 48
0.0
 49
2.5
140
0.0025
141
2.5
142
0.00125
143
0.03937007874
144
100.0
145
0.0
146
0.5
147
0.001
148
0.0
 69
0
 70
0
 71
0
 72
0
 73
0
 74
0
 75
0
 76
0
 77
1
 78
12
 79
3
170
0
171
3
172
1
173
0
174
0
175
0
176
0
177
0
178
0
179
2
271
2
272
2
273
2
274
3
275
0
276
0
277
2
278
46
279
2
280
0
281
0
282
0
283
0
284
8
285
0
286
0
288
1
289
3
290
0
340
4C
371
-2
372
-2
  0
DIMSTYLE
105
83
330
4
100
AcDbSymbolTableRecord
100
AcDbDimStyleTableRecord
  2
EZ_RADIUS
 70
0
 40
1.0
 41
0.25
 42
0.125
 43
3.75
 44
0.375
 45
0.0
 46
0.0
 47
0.0
 48
0.0
 49
2.5
140
0.25
141
0.0
142
0.0
143
0.03937007874
144
100.0
145
0.0
146
0.5
147
0.1
148
0.0
 69
0
 70
0
 71
0
 72
0
 73
0
 74
0
 75
0
 76
0
 77
1
 78
12
 79
3
170
0
171
3
172
0
173
0
174
0
175
0
176
0
177
0
178
0
179
2
271
2
272
2
273
2
274
3
275
0
276
0
277
2
278
46
279
1
280
0
281
0
282
0
283
0
284
8
285
0
286
0
288
1
289
3
290
0
340
4C
342
84
371
-2
372
-2
  0
DIMSTYLE
105
88
330
4
100
AcDbSymbolTableRecord
100
AcDbDimStyleTableRecord
  2
EZ_RADIUS_INSIDE
 70
0
 40
1.0
 41
0.25
 42
0.125
 43
3.75
 44
0.375
 45
0.0
 46
0.0
 47
0.0
 48
0.0
 49
2.5
140
0.25
141
0.0
142
0.0
143
0.03937007874
144
100.0
145
0.0
146
0.5
147
0.1
148
0.0
 69
0
 70
0
 71
0
 72
0
 73
0
 74
0
 75
0
 76
0
 77
0
 78
12
 79
3
170
0
171
3
172
0
173
0
174
1
175
0
176
0
177
0
178
0
179
2
271
2
272
2
273
2
274
3
275
0
276
0
277
2
278
46
279
0
280
0
281
0
282
0
283
0
284
8
285
0
286
0
288
1
289
0
290
0
340
4C
342
84
371
-2
372
-2
  0
DIMSTYLE
105
89
330
4
100
AcDbSymbolTableRecord
100
AcDbDimStyleTableRecord
  2
EZ_CURVED
 70
0
 40
1.0
 41
0.25
 42
0.125
 43
3.75
 44
0.375
 45
0.0
 46
0.0
 47
0.0
 48
0.0
 49
2.5
140
0.25
141
2.5
142
0.0
143
0.03937007874
144
100.0
145
0.0
146
0.5
147
0.1
148
0.0
 69
0
 70
0
 71
0
 72
0
 73
0
 74
0
 75
0
 76
0
 77
1
 78
12
 79
2
 90
2
170
0
171
3
172
1
173
0
174
0
175
0
176
0
177
0
178
0
179
2
271
2
272
2
273
2
274
3
275
0
276
0
277
2
278
46
279
2
280
0
281
0
282
0
283
0
284
8
285
0
286
0
288
1
289
3
290
0
340
4C
371
-2
372
-2
  0
ENDTAB
  0
TABLE
  2
BLOCK_RECORD
  5
9
330
0
100
AcDbSymbolTable
 70
5
  0
BLOCK_RECORD
  5
17
330
9
100
AcDbSymbolTableRecord
100
AcDbBlockTableRecord
  2
*Model_Space
340
1A
 70
0
280
1
281
0
  0
BLOCK_RECORD
  5
1B
330
9
100
AcDbSymbolTableRecord
100
AcDbBlockTableRecord
  2
*Paper_Space
340
1E
 70
0
280
1
281
0
  0
BLOCK_RECORD
  5
74
330
9
100
AcDbSymbolTableRecord
100
AcDbBlockTableRecord
  2
_ARCHTICK
340
0
 70
0
280
1
281
0
  0
BLOCK_RECORD
  5
78
330
9
100
AcDbSymbolTableRecord
100
AcDbBlockTableRecord
  2
_CLOSEDFILLED
340
0
 70
0
280
1
281
0
  0
BLOCK_RECORD
  5
84
330
9
100
AcDbSymbolTableRecord
100
AcDbBlockTableRecord
  2
_CLOSEDBLANK
340
0
 70
0
280
1
281
0
  0
ENDTAB
  0
ENDSEC
  0
SECTION
  2
BLOCKS
  0
BLOCK
  5
18
330
17
100
AcDbEntity
  8
0
100
AcDbBlockBegin
  2
*Model_Space
 70
0
 10
0.0
 20
0.0
 30
0.0
  3
*Model_Space
  1

  0
ENDBLK
  5
19
330
17
100
AcDbEntity
  8
0
100
AcDbBlockEnd
  0
BLOCK
  5
1C
330
1B
100
AcDbEntity
  8
0
100
AcDbBlockBegin
  2
*Paper_Space
 70
0
 10
0.0
 20
0.0
 30
0.0
  3
*Paper_Space
  1

  0
ENDBLK
  5
1D
330
1B
100
AcDbEntity
  8
0
100
AcDbBlockEnd
  0
BLOCK
  5
75
330
74
100
AcDbEntity
  8
0
100
AcDbBlockBegin
  2
_ARCHTICK
 70
0
 10
0.0
 20
0.0
 30
0.0
  3
_ARCHTICK
  1

  0
LWPOLYLINE
  5
77
330
74
100
AcDbEntity
  8
0
  6
BYBLOCK
 62
0
100
AcDbPolyline
 90
2
 70
0
 43
0.15
 10
-0.5
 20
-0.5
 10
0.5
 20
0.5
  0
ENDBLK
  5
76
330
74
100
AcDbEntity
  8
0
100
AcDbBlockEnd
  0
BLOCK
  5
79
330
78
100
AcDbEntity
  8
0
100
AcDbBlockBegin
  2
_CLOSEDFILLED
 70
0
 10
0.0
 20
0.0
 30
0.0
  3
_CLOSEDFILLED
  1

  0
SOLID
  5
7B
330
78
100
AcDbEntity
  8
0
  6
BYBLOCK
 62
0
100
AcDbTrace
 10
-1.0
 20
0.16439898372402537
 30
0.0
 11
0.0
 21
0.0
 31
0.0
 12
-1.0
 22
-0.16439898372402537
 32
0.0
 13
-1.0
 23
-0.16439898372402537
 33
0.0
  0
ENDBLK
  5
7A
330
78
100
AcDbEntity
  8
0
100
AcDbBlockEnd
  0
BLOCK
  5
85
330
84
100
AcDbEntity
  8
0
100
AcDbBlockBegin
  2
_CLOSEDBLANK
 70
0
 10
0.0
 20
0.0
 30
0.0
  3
_CLOSEDBLANK
  1

  0
LWPOLYLINE
  5
87
330
84
100
AcDbEntity
  8
0
  6
BYBLOCK
 62
0
100
AcDbPolyline
 90
3
 70
1
 10
-1.0
 20
0.16439898372402537
 10
0.0
 20
0.0
 10
-1.0
 20
-0.16439898372402537
  0
ENDBLK
  5
86
330
84
100
AcDbEntity
  8
0
100
AcDbBlockEnd
  0
ENDSEC
  0
SECTION
  2
ENTITIES
  0
LINE
  5
95
330
17
100
AcDbEntity
  8
im1-011$0$Кабель
100
AcDbLine
 10
29.365517561004708
 20
88.92100012285755
 30
0.0
 11
29.365517561004708
 21
84.75771649754552
 31
0.0
  0
LINE
  5
96
330
17
100
AcDbEntity
  8
im1-011$0$Кабель
100
AcDbLine
 10
34.36551729981966
 20
88.92100012285755
 30
0.0
 11
34.36551729981966
 21
84.75771649754552
 31
0.0
  0
LWPOLYLINE
  5
97
330
17
100
AcDbEntity
  8
im1-011$0$Слой1
 62
7
370
30
100
AcDbPolyline
 90
4
 70
1
 10
26.865517691597233
 20
79.85482903438879
 10
31.865517430412183
 20
79.85482903438879
 10
31.865517430412183
 20
84.75771649754552
 10
26.865517691597233
 20
84.75771649754552
  0
MTEXT
  5
98
330
17
100
AcDbEntity
  8
im1-011$0$XT7
370
-3
100
AcDbMText
 10
27.49185287041564
 20
83.30976332338741
 30
0.0
 40
1.8
 41
3.629860294456364
 46
0.0
 71
1
 72
5
  1
\pxqc;#1
  7
im1-011$0$GOST_A
101
Embedded Object
 70
1
 10
1.0
 20
0.0
 30
0.0
 11
27.49185287041564
 21
83.30976332338741
 31
0.0
 40
3.629860294456364
 41
0.0
 42
2.007147962830593
 43
1.802573266619013
 71
2
 72
1
 44
3.629860294456364
 45
15.0
 73
0
 74
0
 46
1.76171668847644
  0
LWPOLYLINE
  5
99
330
17
100
AcDbEntity
  8
im1-011$0$Слой1
 62
7
370
30
100
AcDbPolyline
 90
4
 70
1
 10
31.865517430412183
 20
79.85482903438879
 10
36.86551716922713
 20
79.85482903438879
 10
36.86551716922713
 20
84.75771649754552
 10
31.865517430412183
 20
84.75771649754552
  0
MTEXT
  5
9A
330
17
100
AcDbEntity
  8
im1-011$0$Слой1
370
-3
100
AcDbMText
 10
25.0
 20
79.45031295490298
 30
0.0
 40
1.3
 41
3.629860294456364
 46
0.0
 71
1
 72
5
  1
\pxqc;ХТ7
  7
im1-011$0$GOST_A
 11
1e-16
 21
1.0
 31
0.0
101
Embedded Object
 70
1
 10
1e-16
 20
1.0
 30
0.0
 11
25.0
 21
79.45031295490298
 31
0.0
 40
3.629860294456364
 41
0.0
 42
2.417869907076483
 43
1.302787705503931
 71
2
 72
1
 44
3.629860294456364
 45
15.0
 73
0
 74
0
 46
1.76171668847644
  0
MTEXT
  5
9B
330
17
100
AcDbEntity
  8
im1-011$0$XT7
370
-3
100
AcDbMText
 10
32.49185260923059
 20
83.30976332338741
 30
0.0
 40
1.8
 41
3.629860294456364
 46
0.0
 71
1
 72
5
  1
\pxqc;#2
  7
im1-011$0$GOST_A
101
Embedded Object
 70
1
 10
1.0
 20
0.0
 30
0.0
 11
32.49185260923059
 21
83.30976332338741
 31
0.0
 40
3.629860294456364
 41
0.0
 42
2.403431022158684
 43
1.802573266619013
 71
2
 72
1
 44
3.629860294456364
 45
15.0
 73
0
 74
0
 46
1.76171668847644
  0
LINE
  5
9C
330
17
100
AcDbEntity
  8
im1-011$0$Кабель
100
AcDbLine
 10
44.36551677744865
 20
88.92100012285755
 30
0.0
 11
44.36551677744865
 21
84.75771649754552
 31
0.0
  0
LWPOLYLINE
  5
9D
330
17
100
AcDbEntity
  8
im1-011$0$Слой1
 62
7
370
30
100
AcDbPolyline
 90
4
 70
1
 10
41.86551690804117
 20
79.85482903438879
 10
46.86551664685612
 20
79.85482903438879
 10
46.86551664685612
 20
84.75771649754552
 10
41.86551690804117
 20
84.75771649754552
  0
MTEXT
  5
9E
330
17
100
AcDbEntity
  8
im1-011$0$Headers
370
-3
100
AcDbMText
 10
26.030843998399178
 20
76.92901596837783
 30
0.0
 40
1.8
 41
22.11671788146231
 46
0.0
 71
1
 72
5
  1
\pxqc;#1
  7
im1-011$0$GOST_A
101
Embedded Object
 70
1
 10
1.0
 20
0.0
 30
0.0
 11
26.030843998399178
 21
76.92901596837783
 31
0.0
 40
22.11671788146231
 41
0.0
 42
2.007147962830593
 43
1.802573266619013
 71
2
 72
1
 44
22.11671788146231
 45
15.0
 73
0
 74
0
 46
7.09591565987182
  0
MTEXT
  5
9F
330
17
100
AcDbEntity
  8
im1-011$0$Слой1
370
-3
100
AcDbMText
 10
42.49185208685958
 20
83.30976332338741
 30
0.0
 40
1.8
 41
3.629860294456364
 46
0.0
 71
1
 72
5
  1
\pxqc;РЕ
  7
im1-011$0$GOST_A
101
Embedded Object
 70
1
 10
1.0
 20
0.0
 30
0.0
 11
42.49185208685958
 21
83.30976332338741
 31
0.0
 40
3.629860294456364
 41
0.0
 42
1.931236597569693
 43
1.801286633309506
 71
2
 72
1
 44
3.629860294456364
 45
15.0
 73
0
 74
0
 46
1.76171668847644
  0
LINE
  5
A0
330
17
100
AcDbEntity
  8
im1-011$0$Кабель
100
AcDbLine
 10
29.365517561004708
 20
257.83249274217815
 30
0.0
 11
29.365517561004708
 21
194.7508578409752
 31
0.0
  0
LINE
  5
A1
330
17
100
AcDbEntity
  8
im1-011$0$Кабель
100
AcDbLine
 10
29.365517561004708
 20
191.15474429387996
 30
0.0
 11
29.365517561004708
 21
186.99146066856883
 31
0.0
  0
LINE
  5
A2
330
17
100
AcDbEntity
  8
im1-011$0$Кабель
100
AcDbLine
 10
34.36551729981966
 20
191.15474429387996
 30
0.0
 11
34.36551729981966
 21
186.99146066856883
 31
0.0
  0
LINE
  5
A3
330
17
100
AcDbEntity
  8
im1-011$0$Кабель
100
AcDbLine
 10
39.3655170386337
 20
191.15474429387996
 30
0.0
 11
39.3655170386337
 21
186.99146066856883
 31
0.0
  0
LINE
  5
A4
330
17
100
AcDbEntity
  8
im1-011$0$Слой1
370
-3
100
AcDbLine
 10
37.115590468401024
 20
194.7508578409752
 30
0.0
 11
39.3655170386337
 21
191.15474429387996
 31
0.0
  0
LINE
  5
A5
330
17
100
AcDbEntity
  8
im1-011$0$Слой1
370
-3
100
AcDbLine
 10
32.115590729586984
 20
194.7508578409752
 30
0.0
 11
34.36551729981966
 21
191.15474429387996
 31
0.0
  0
LINE
  5
A6
330
17
100
AcDbEntity
  8
im1-011$0$Слой1
370
-3
100
AcDbLine
 10
27.115590990772034
 20
194.7508578409752
 30
0.0
 11
29.365517561004708
 21
191.15474429387996
 31
0.0
  0
LINE
  5
A7
330
17
100
AcDbEntity
  8
im1-011$0$Слой1
370
-3
100
AcDbLine
 10
27.24582093996196
 20
193.2098696665562
 30
0.0
 11
38.88117319984485
 21
193.2098696665562
 31
0.0
  0
LINE
  5
A8
330
17
100
AcDbEntity
  8
im1-011$0$Слой1
370
-3
100
AcDbLine
 10
27.656482468360082
 20
192.63530587339847
 30
0.0
 11
39.291834728242065
 21
192.63530587339847
 31
0.0
  0
LINE
  5
A9
330
17
100
AcDbEntity
  8
im1-011$0$Кабель
100
AcDbLine
 10
29.36551756100107
 20
185.3470080712068
 30
0.0
 11
29.36551756100107
 21
182.9405575691344
 31
0.0
  0
LINE
  5
AA
330
17
100
AcDbEntity
  8
im1-011$0$Кабель
100
AcDbLine
 10
34.36551729981966
 20
185.3470080712068
 30
0.0
 11
34.36551729981966
 21
182.9405575691344
 31
0.0
  0
LINE
  5
AB
330
17
100
AcDbEntity
  8
im1-011$0$Кабель
100
AcDbLine
 10
39.3655170386337
 20
185.3470080712068
 30
0.0
 11
39.3655170386337
 21
179.34437796125258
 31
0.0
  0
LINE
  5
AC
330
17
100
AcDbEntity
  8
im1-011$0$Кабель
100
AcDbLine
 10
29.365517561004708
 20
173.03760252476422
 30
0.0
 11
29.365517561004708
 21
88.92100012285755
 31
0.0
  0
LINE
  5
AD
330
17
100
AcDbEntity
  8
im1-011$0$Кабель
100
AcDbLine
 10
34.36551729981966
 20
173.03760252476422
 30
0.0
 11
34.36551729981966
 21
88.92100012285755
 31
0.0
  0
LINE
  5
AE
330
17
100
AcDbEntity
  8
im1-011$0$Слой1
370
-3
100
AcDbLine
 10
37.115590468401024
 20
176.63371607186036
 30
0.0
 11
39.3655170386337
 21
173.03760252476422
 31
0.0
  0
LINE
  5
AF
330
17
100
AcDbEntity
  8
im1-011$0$Слой1
370
-3
100
AcDbLine
 10
32.115590729586984
 20
176.63371607186036
 30
0.0
 11
34.36551729981966
 21
173.03760252476422
 31
0.0
  0
LINE
  5
B0
330
17
100
AcDbEntity
  8
im1-011$0$Слой1
370
-3
100
AcDbLine
 10
27.115590990772034
 20
176.63371607186036
 30
0.0
 11
29.365517561004708
 21
173.03760252476422
 31
0.0
  0
LINE
  5
B1
330
17
100
AcDbEntity
  8
im1-011$0$Слой1
370
-3
100
AcDbLine
 10
27.24582093996196
 20
175.09272789744227
 30
0.0
 11
38.88117319984485
 21
175.09272789744227
 31
0.0
  0
LINE
  5
B2
330
17
100
AcDbEntity
  8
im1-011$0$Слой1
370
-3
100
AcDbLine
 10
27.656482468360082
 20
174.51816410428364
 30
0.0
 11
39.291834728242065
 21
174.51816410428364
 31
0.0
  0
LINE
  5
B3
330
17
100
AcDbEntity
  8
im1-011$0$Слой1
370
-3
100
AcDbLine
 10
27.24582093996196
 20
193.2098696665562
 30
0.0
 11
26.173330649086893
 21
191.75355452250278
 31
0.0
  0
LINE
  5
B4
330
17
100
AcDbEntity
  8
im1-011$0$Слой1
370
-3
100
AcDbLine
 10
26.173330649086893
 20
191.75355452250278
 30
0.0
 11
26.949811970183873
 21
191.250537950712
 31
0.0
  0
LINE
  5
B5
330
17
100
AcDbEntity
  8
im1-011$0$Слой1
370
-3
100
AcDbLine
 10
26.949811970183873
 20
191.250537950712
 30
0.0
 11
27.656482468360082
 21
192.63530587339847
 31
0.0
  0
HATCH
  5
B6
330
17
100
AcDbEntity
  8
im1-011$0$Слой1
370
-3
100
AcDbHatch
 10
0.0
 20
0.0
 30
0.0
210
0.0
220
0.0
230
1.0
  2
AR-SAND
 70
0
 71
0
 91
1
 92
7
 72
1
 73
1
 93
2
 10
33.98141176416539
 20
252.8324930033632
 42
1.0
 10
34.74962283547484
 20
252.8324930033632
 42
1.0
 97
0
 75
1
 76
1
 52
0.0
 41
1.0
 77
0
 78
4
 53
37.5
 43
4.9999997388
 44
-6.0843839193
 45
-1.600031296
 46
48.9413237329
 79
6
 49
0.0
 49
-38.608
 49
0.0
 49
-43.18
 49
0.0
 49
-41.275
 53
7.5
 43
4.9999997388
 44
-6.0843839193
 45
44.9523283138
 46
71.6825100568
 79
6
 49
0.0
 49
-20.828
 49
0.0
 49
-34.798
 49
0.0
 49
-13.335
 53
327.5
 43
-26.2420002612
 44
-6.0843839193
 45
79.0992370241
 46
0.1437184679
 79
6
 49
0.0
 49
-12.7
 49
0.0
 49
-45.72
 49
0.0
 49
-59.69
 53
317.5
 43
-26.2420002612
 44
-6.0843839193
 45
76.3556452472
 46
22.2929323257
 79
6
 49
0.0
 49
-6.35
 49
0.0
 49
-29.972
 49
0.0
 49
-34.29
 47
0.0175069435101327
 98
1
 10
4489.880392140185
 20
6122.291206711325
1001
GradientColor1ACI
1070
5
1001
GradientColor2ACI
1070
2
1001
ACAD
1010
0.0
1020
0.0
1030
0.0
  0
HATCH
  5
B7
330
17
100
AcDbEntity
  8
im1-011$0$Слой1
370
-3
100
AcDbHatch
 10
0.0
 20
0.0
 30
0.0
210
0.0
220
0.0
230
1.0
  2
AR-SAND
 70
0
 71
0
 91
1
 92
7
 72
1
 73
1
 93
2
 10
38.98141150297943
 20
247.83249326454916
 42
1.0
 10
39.74962257428888
 20
247.83249326454916
 42
1.0
 97
0
 75
1
 76
1
 52
0.0
 41
1.0
 77
0
 78
4
 53
37.5
 43
9.9999994776
 44
-11.0843836581
 45
-1.600031296
 46
48.9413237329
 79
6
 49
0.0
 49
-38.608
 49
0.0
 49
-43.18
 49
0.0
 49
-41.275
 53
7.5
 43
9.9999994776
 44
-11.0843836581
 45
44.9523283138
 46
71.6825100568
 79
6
 49
0.0
 49
-20.828
 49
0.0
 49
-34.798
 49
0.0
 49
-13.335
 53
327.5
 43
-21.2420005224
 44
-11.0843836581
 45
79.0992370241
 46
0.1437184679
 79
6
 49
0.0
 49
-12.7
 49
0.0
 49
-45.72
 49
0.0
 49
-59.69
 53
317.5
 43
-21.2420005224
 44
-11.0843836581
 45
76.3556452472
 46
22.2929323257
 79
6
 49
0.0
 49
-6.35
 49
0.0
 49
-29.972
 49
0.0
 49
-34.29
 47
0.0175069435101327
 98
1
 10
4494.880391878999
 20
6117.29120697251
1001
GradientColor1ACI
1070
5
1001
GradientColor2ACI
1070
2
1001
ACAD
1010
0.0
1020
0.0
1030
0.0
  0
HATCH
  5
B8
330
17
100
AcDbEntity
  8
im1-011$0$Слой1
370
-3
100
AcDbHatch
 10
0.0
 20
0.0
 30
0.0
210
0.0
220
0.0
230
1.0
  2
AR-SAND
 70
0
 71
0
 91
1
 92
7
 72
1
 73
1
 93
2
 10
33.98141176416539
 20
252.8324930033632
 42
1.0
 10
34.74962283547484
 20
252.8324930033632
 42
1.0
 97
0
 75
1
 76
1
 52
0.0
 41
1.0
 77
0
 78
4
 53
37.5
 43
4.9999997388
 44
-6.0843839193
 45
-1.600031296
 46
48.9413237329
 79
6
 49
0.0
 49
-38.608
 49
0.0
 49
-43.18
 49
0.0
 49
-41.275
 53
7.5
 43
4.9999997388
 44
-6.0843839193
 45
44.9523283138
 46
71.6825100568
 79
6
 49
0.0
 49
-20.828
 49
0.0
 49
-34.798
 49
0.0
 49
-13.335
 53
327.5
 43
-26.2420002612
 44
-6.0843839193
 45
79.0992370241
 46
0.1437184679
 79
6
 49
0.0
 49
-12.7
 49
0.0
 49
-45.72
 49
0.0
 49
-59.69
 53
317.5
 43
-26.2420002612
 44
-6.0843839193
 45
76.3556452472
 46
22.2929323257
 79
6
 49
0.0
 49
-6.35
 49
0.0
 49
-29.972
 49
0.0
 49
-34.29
 47
0.0175069435101327
 98
1
 10
4489.880392140185
 20
6122.291206711325
1001
GradientColor1ACI
1070
5
1001
GradientColor2ACI
1070
2
1001
ACAD
1010
0.0
1020
0.0
1030
0.0
  0
HATCH
  5
B9
330
17
100
AcDbEntity
  8
im1-011$0$Слой1
370
-3
100
AcDbHatch
 10
0.0
 20
0.0
 30
0.0
210
0.0
220
0.0
230
1.0
  2
AR-SAND
 70
0
 71
0
 91
1
 92
7
 72
1
 73
1
 93
2
 10
38.98141150297943
 20
247.83249326454916
 42
1.0
 10
39.74962257428888
 20
247.83249326454916
 42
1.0
 97
0
 75
1
 76
1
 52
0.0
 41
1.0
 77
0
 78
4
 53
37.5
 43
9.9999994776
 44
-11.0843836581
 45
-1.600031296
 46
48.9413237329
 79
6
 49
0.0
 49
-38.608
 49
0.0
 49
-43.18
 49
0.0
 49
-41.275
 53
7.5
 43
9.9999994776
 44
-11.0843836581
 45
44.9523283138
 46
71.6825100568
 79
6
 49
0.0
 49
-20.828
 49
0.0
 49
-34.798
 49
0.0
 49
-13.335
 53
327.5
 43
-21.2420005224
 44
-11.0843836581
 45
79.0992370241
 46
0.1437184679
 79
6
 49
0.0
 49
-12.7
 49
0.0
 49
-45.72
 49
0.0
 49
-59.69
 53
317.5
 43
-21.2420005224
 44
-11.0843836581
 45
76.3556452472
 46
22.2929323257
 79
6
 49
0.0
 49
-6.35
 49
0.0
 49
-29.972
 49
0.0
 49
-34.29
 47
0.0175069435101327
 98
1
 10
4494.880391878999
 20
6117.29120697251
1001
GradientColor1ACI
1070
5
1001
GradientColor2ACI
1070
2
1001
ACAD
1010
0.0
1020
0.0
1030
0.0
  0
HATCH
  5
BA
330
17
100
AcDbEntity
  8
im1-011$0$Слой1
370
-3
100
AcDbHatch
 10
0.0
 20
0.0
 30
0.0
210
0.0
220
0.0
230
1.0
  2
AR-SAND
 70
0
 71
0
 91
1
 92
7
 72
1
 73
1
 93
2
 10
30.157150644276953
 20
258.6051849805417
 42
1.0
 10
30.925361715588224
 20
258.6051849805417
 42
1.0
 97
0
 75
1
 76
1
 52
0.0
 41
1.0
 77
0
 78
4
 53
37.5
 43
1.1757386189
 44
-0.3116919421
 45
-1.600031296
 46
48.9413237329
 79
6
 49
0.0
 49
-38.608
 49
0.0
 49
-43.18
 49
0.0
 49
-41.275
 53
7.5
 43
1.1757386189
 44
-0.3116919421
 45
44.9523283138
 46
71.6825100568
 79
6
 49
0.0
 49
-20.828
 49
0.0
 49
-34.798
 49
0.0
 49
-13.335
 53
327.5
 43
-30.0662613811
 44
-0.3116919421
 45
79.0992370241
 46
0.1437184679
 79
6
 49
0.0
 49
-12.7
 49
0.0
 49
-45.72
 49
0.0
 49
-59.69
 53
317.5
 43
-30.0662613811
 44
-0.3116919421
 45
76.3556452472
 46
22.2929323257
 79
6
 49
0.0
 49
-6.35
 49
0.0
 49
-29.972
 49
0.0
 49
-34.29
 47
0.0175069435101327
 98
1
 10
4486.056131020297
 20
6128.063898688504
1001
GradientColor1ACI
1070
5
1001
GradientColor2ACI
1070
2
1001
ACAD
1010
0.0
1020
0.0
1030
0.0
  0
HATCH
  5
BB
330
17
100
AcDbEntity
  8
im1-011$0$Слой1
370
-3
100
AcDbHatch
 10
0.0
 20
0.0
 30
0.0
210
0.0
220
0.0
230
1.0
  2
AR-SAND
 70
0
 71
0
 91
1
 92
7
 72
1
 73
1
 93
2
 10
27.41412039259012
 20
258.7688949136118
 42
1.0
 10
28.18233146390139
 20
258.7688949136118
 42
1.0
 97
0
 75
1
 76
1
 52
0.0
 41
1.0
 77
0
 78
4
 53
37.5
 43
-1.5672916328
 44
-0.1479820091
 45
-1.600031296
 46
48.9413237329
 79
6
 49
0.0
 49
-38.608
 49
0.0
 49
-43.18
 49
0.0
 49
-41.275
 53
7.5
 43
-1.5672916328
 44
-0.1479820091
 45
44.9523283138
 46
71.6825100568
 79
6
 49
0.0
 49
-20.828
 49
0.0
 49
-34.798
 49
0.0
 49
-13.335
 53
327.5
 43
-32.8092916328
 44
-0.1479820091
 45
79.0992370241
 46
0.1437184679
 79
6
 49
0.0
 49
-12.7
 49
0.0
 49
-45.72
 49
0.0
 49
-59.69
 53
317.5
 43
-32.8092916328
 44
-0.1479820091
 45
76.3556452472
 46
22.2929323257
 79
6
 49
0.0
 49
-6.35
 49
0.0
 49
-29.972
 49
0.0
 49
-34.29
 47
0.0175069435101327
 98
1
 10
4483.313100768611
 20
6128.227608621574
1001
GradientColor1ACI
1070
5
1001
GradientColor2ACI
1070
2
1001
ACAD
1010
0.0
1020
0.0
1030
0.0
  0
HATCH
  5
BC
330
17
100
AcDbEntity
  8
im1-011$0$Слой1
370
-3
100
AcDbHatch
 10
0.0
 20
0.0
 30
0.0
210
0.0
220
0.0
230
1.0
  2
AR-SAND
 70
0
 71
0
 91
1
 92
7
 72
1
 73
1
 93
2
 10
28.61364423984469
 20
258.68301955429524
 42
1.0
 10
29.38185531115596
 20
258.68301955429524
 42
1.0
 97
0
 75
1
 76
1
 52
0.0
 41
1.0
 77
0
 78
4
 53
37.5
 43
-0.3677677855
 44
-0.2338573684
 45
-1.600031296
 46
48.9413237329
 79
6
 49
0.0
 49
-38.608
 49
0.0
 49
-43.18
 49
0.0
 49
-41.275
 53
7.5
 43
-0.3677677855
 44
-0.2338573684
 45
44.9523283138
 46
71.6825100568
 79
6
 49
0.0
 49
-20.828
 49
0.0
 49
-34.798
 49
0.0
 49
-13.335
 53
327.5
 43
-31.6097677855
 44
-0.2338573684
 45
79.0992370241
 46
0.1437184679
 79
6
 49
0.0
 49
-12.7
 49
0.0
 49
-45.72
 49
0.0
 49
-59.69
 53
317.5
 43
-31.6097677855
 44
-0.2338573684
 45
76.3556452472
 46
22.2929323257
 79
6
 49
0.0
 49
-6.35
 49
0.0
 49
-29.972
 49
0.0
 49
-34.29
 47
0.0175069435101327
 98
1
 10
4484.512624615865
 20
6128.141733262258
1001
GradientColor1ACI
1070
5
1001
GradientColor2ACI
1070
2
1001
ACAD
1010
0.0
1020
0.0
1030
0.0
  0
HATCH
  5
BD
330
17
100
AcDbEntity
  8
im1-011$0$Слой1
370
-3
100
AcDbHatch
 10
0.0
 20
0.0
 30
0.0
210
0.0
220
0.0
230
1.0
  2
AR-SAND
 70
0
 71
0
 91
1
 92
7
 72
1
 73
1
 93
2
 10
28.77649557627865
 20
258.7537782577083
 42
1.0
 10
29.54470664758992
 20
258.7537782577083
 42
1.0
 97
0
 75
1
 76
1
 52
0.0
 41
1.0
 77
0
 78
4
 53
37.5
 43
-0.2049164491
 44
-0.163098665
 45
-1.600031296
 46
48.9413237329
 79
6
 49
0.0
 49
-38.608
 49
0.0
 49
-43.18
 49
0.0
 49
-41.275
 53
7.5
 43
-0.2049164491
 44
-0.163098665
 45
44.9523283138
 46
71.6825100568
 79
6
 49
0.0
 49
-20.828
 49
0.0
 49
-34.798
 49
0.0
 49
-13.335
 53
327.5
 43
-31.4469164491
 44
-0.163098665
 45
79.0992370241
 46
0.1437184679
 79
6
 49
0.0
 49
-12.7
 49
0.0
 49
-45.72
 49
0.0
 49
-59.69
 53
317.5
 43
-31.4469164491
 44
-0.163098665
 45
76.3556452472
 46
22.2929323257
 79
6
 49
0.0
 49
-6.35
 49
0.0
 49
-29.972
 49
0.0
 49
-34.29
 47
0.0175069435101327
 98
1
 10
4484.675475952299
 20
6128.21249196567
1001
GradientColor1ACI
1070
5
1001
GradientColor2ACI
1070
2
1001
ACAD
1010
0.0
1020
0.0
1030
0.0
  0
HATCH
  5
BE
330
17
100
AcDbEntity
  8
im1-011$0$Слой1
370
-3
100
AcDbHatch
 10
0.0
 20
0.0
 30
0.0
210
0.0
220
0.0
230
1.0
  2
AR-SAND
 70
0
 71
0
 91
1
 92
7
 72
1
 73
1
 93
2
 10
28.783571550425222
 20
258.7537782577083
 42
1.0
 10
29.551782621735583
 20
258.7537782577083
 42
1.0
 97
0
 75
1
 76
1
 52
0.0
 41
1.0
 77
0
 78
4
 53
37.5
 43
-0.1978404749
 44
-0.163098665
 45
-1.600031296
 46
48.9413237329
 79
6
 49
0.0
 49
-38.608
 49
0.0
 49
-43.18
 49
0.0
 49
-41.275
 53
7.5
 43
-0.1978404749
 44
-0.163098665
 45
44.9523283138
 46
71.6825100568
 79
6
 49
0.0
 49
-20.828
 49
0.0
 49
-34.798
 49
0.0
 49
-13.335
 53
327.5
 43
-31.4398404749
 44
-0.163098665
 45
79.0992370241
 46
0.1437184679
 79
6
 49
0.0
 49
-12.7
 49
0.0
 49
-45.72
 49
0.0
 49
-59.69
 53
317.5
 43
-31.4398404749
 44
-0.163098665
 45
76.3556452472
 46
22.2929323257
 79
6
 49
0.0
 49
-6.35
 49
0.0
 49
-29.972
 49
0.0
 49
-34.29
 47
0.0175069435101327
 98
1
 10
4484.682551926446
 20
6128.21249196567
1001
GradientColor1ACI
1070
5
1001
GradientColor2ACI
1070
2
1001
ACAD
1010
0.0
1020
0.0
1030
0.0
  0
HATCH
  5
BF
330
17
100
AcDbEntity
  8
im1-011$0$Слой1
370
-3
100
AcDbHatch
 10
0.0
 20
0.0
 30
0.0
210
0.0
220
0.0
230
1.0
  2
AR-SAND
 70
0
 71
0
 91
1
 92
7
 72
1
 73
1
 93
2
 10
29.86657571215619
 20
258.8563886257052
 42
1.0
 10
30.63478678346746
 20
258.8563886257052
 42
1.0
 97
0
 75
1
 76
1
 52
0.0
 41
1.0
 77
0
 78
4
 53
37.5
 43
0.8851636868
 44
-0.060488297
 45
-1.600031296
 46
48.9413237329
 79
6
 49
0.0
 49
-38.608
 49
0.0
 49
-43.18
 49
0.0
 49
-41.275
 53
7.5
 43
0.8851636868
 44
-0.060488297
 45
44.9523283138
 46
71.6825100568
 79
6
 49
0.0
 49
-20.828
 49
0.0
 49
-34.798
 49
0.0
 49
-13.335
 53
327.5
 43
-30.3568363132
 44
-0.060488297
 45
79.0992370241
 46
0.1437184679
 79
6
 49
0.0
 49
-12.7
 49
0.0
 49
-45.72
 49
0.0
 49
-59.69
 53
317.5
 43
-30.3568363132
 44
-0.060488297
 45
76.3556452472
 46
22.2929323257
 79
6
 49
0.0
 49
-6.35
 49
0.0
 49
-29.972
 49
0.0
 49
-34.29
 47
0.0175069435101327
 98
1
 10
4485.765556088176
 20
6128.315102333667
1001
GradientColor1ACI
1070
5
1001
GradientColor2ACI
1070
2
1001
ACAD
1010
0.0
1020
0.0
1030
0.0
  0
HATCH
  5
C0
330
17
100
AcDbEntity
  8
im1-011$0$Слой1
370
-3
100
AcDbHatch
 10
0.0
 20
0.0
 30
0.0
210
0.0
220
0.0
230
1.0
  2
AR-SAND
 70
0
 71
0
 91
1
 92
7
 72
1
 73
1
 93
2
 10
29.675689930969384
 20
258.9802061086275
 42
1.0
 10
30.443901002279745
 20
258.9802061086275
 42
1.0
 97
0
 75
1
 76
1
 52
0.0
 41
1.0
 77
0
 78
4
 53
37.5
 43
0.6942779056
 44
0.0633291859
 45
-1.600031296
 46
48.9413237329
 79
6
 49
0.0
 49
-38.608
 49
0.0
 49
-43.18
 49
0.0
 49
-41.275
 53
7.5
 43
0.6942779056
 44
0.0633291859
 45
44.9523283138
 46
71.6825100568
 79
6
 49
0.0
 49
-20.828
 49
0.0
 49
-34.798
 49
0.0
 49
-13.335
 53
327.5
 43
-30.5477220944
 44
0.0633291859
 45
79.0992370241
 46
0.1437184679
 79
6
 49
0.0
 49
-12.7
 49
0.0
 49
-45.72
 49
0.0
 49
-59.69
 53
317.5
 43
-30.5477220944
 44
0.0633291859
 45
76.3556452472
 46
22.2929323257
 79
6
 49
0.0
 49
-6.35
 49
0.0
 49
-29.972
 49
0.0
 49
-34.29
 47
0.0175069435101327
 98
1
 10
4485.574670306989
 20
6128.438919816589
1001
GradientColor1ACI
1070
5
1001
GradientColor2ACI
1070
2
1001
ACAD
1010
0.0
1020
0.0
1030
0.0
  0
HATCH
  5
C1
330
17
100
AcDbEntity
  8
im1-011$0$Слой1
370
-3
100
AcDbHatch
 10
0.0
 20
0.0
 30
0.0
210
0.0
220
0.0
230
1.0
  2
AR-SAND
 70
0
 71
0
 91
1
 92
7
 72
1
 73
1
 93
2
 10
29.516657694925925
 20
259.0148008845099
 42
1.0
 10
30.284868766237196
 20
259.0148008845099
 42
1.0
 97
0
 75
1
 76
1
 52
0.0
 41
1.0
 77
0
 78
4
 53
37.5
 43
0.5352456696
 44
0.0979239618
 45
-1.600031296
 46
48.9413237329
 79
6
 49
0.0
 49
-38.608
 49
0.0
 49
-43.18
 49
0.0
 49
-41.275
 53
7.5
 43
0.5352456696
 44
0.0979239618
 45
44.9523283138
 46
71.6825100568
 79
6
 49
0.0
 49
-20.828
 49
0.0
 49
-34.798
 49
0.0
 49
-13.335
 53
327.5
 43
-30.7067543304
 44
0.0979239618
 45
79.0992370241
 46
0.1437184679
 79
6
 49
0.0
 49
-12.7
 49
0.0
 49
-45.72
 49
0.0
 49
-59.69
 53
317.5
 43
-30.7067543304
 44
0.0979239618
 45
76.3556452472
 46
22.2929323257
 79
6
 49
0.0
 49
-6.35
 49
0.0
 49
-29.972
 49
0.0
 49
-34.29
 47
0.0175069435101327
 98
1
 10
4485.415638070946
 20
6128.473514592471
1001
GradientColor1ACI
1070
5
1001
GradientColor2ACI
1070
2
1001
ACAD
1010
0.0
1020
0.0
1030
0.0
  0
HATCH
  5
C2
330
17
100
AcDbEntity
  8
im1-011$0$Слой1
370
-3
100
AcDbHatch
 10
0.0
 20
0.0
 30
0.0
210
0.0
220
0.0
230
1.0
  2
AR-SAND
 70
0
 71
0
 91
1
 92
7
 72
1
 73
1
 93
2
 10
29.516657694925925
 20
259.0148008845099
 42
1.0
 10
30.284868766237196
 20
259.0148008845099
 42
1.0
 97
0
 75
1
 76
1
 52
0.0
 41
1.0
 77
0
 78
4
 53
37.5
 43
0.5352456696
 44
0.0979239618
 45
-1.600031296
 46
48.9413237329
 79
6
 49
0.0
 49
-38.608
 49
0.0
 49
-43.18
 49
0.0
 49
-41.275
 53
7.5
 43
0.5352456696
 44
0.0979239618
 45
44.9523283138
 46
71.6825100568
 79
6
 49
0.0
 49
-20.828
 49
0.0
 49
-34.798
 49
0.0
 49
-13.335
 53
327.5
 43
-30.7067543304
 44
0.0979239618
 45
79.0992370241
 46
0.1437184679
 79
6
 49
0.0
 49
-12.7
 49
0.0
 49
-45.72
 49
0.0
 49
-59.69
 53
317.5
 43
-30.7067543304
 44
0.0979239618
 45
76.3556452472
 46
22.2929323257
 79
6
 49
0.0
 49
-6.35
 49
0.0
 49
-29.972
 49
0.0
 49
-34.29
 47
0.0175069435101327
 98
1
 10
4485.415638070946
 20
6128.473514592471
1001
GradientColor1ACI
1070
5
1001
GradientColor2ACI
1070
2
1001
ACAD
1010
0.0
1020
0.0
1030
0.0
  0
HATCH
  5
C3
330
17
100
AcDbEntity
  8
im1-011$0$Слой1
370
-3
100
AcDbHatch
 10
0.0
 20
0.0
 30
0.0
210
0.0
220
0.0
230
1.0
  2
AR-SAND
 70
0
 71
0
 91
1
 92
7
 72
1
 73
1
 93
2
 10
29.516657694925925
 20
259.0148008845099
 42
1.0
 10
30.284868766237196
 20
259.0148008845099
 42
1.0
 97
0
 75
1
 76
1
 52
0.0
 41
1.0
 77
0
 78
4
 53
37.5
 43
0.5352456696
 44
0.0979239618
 45
-1.600031296
 46
48.9413237329
 79
6
 49
0.0
 49
-38.608
 49
0.0
 49
-43.18
 49
0.0
 49
-41.275
 53
7.5
 43
0.5352456696
 44
0.0979239618
 45
44.9523283138
 46
71.6825100568
 79
6
 49
0.0
 49
-20.828
 49
0.0
 49
-34.798
 49
0.0
 49
-13.335
 53
327.5
 43
-30.7067543304
 44
0.0979239618
 45
79.0992370241
 46
0.1437184679
 79
6
 49
0.0
 49
-12.7
 49
0.0
 49
-45.72
 49
0.0
 49
-59.69
 53
317.5
 43
-30.7067543304
 44
0.0979239618
 45
76.3556452472
 46
22.2929323257
 79
6
 49
0.0
 49
-6.35
 49
0.0
 49
-29.972
 49
0.0
 49
-34.29
 47
0.0175069435101327
 98
1
 10
4485.415638070946
 20
6128.473514592471
1001
GradientColor1ACI
1070
5
1001
GradientColor2ACI
1070
2
1001
ACAD
1010
0.0
1020
0.0
1030
0.0
  0
HATCH
  5
C4
330
17
100
AcDbEntity
  8
im1-011$0$Слой1
370
-3
100
AcDbHatch
 10
0.0
 20
0.0
 30
0.0
210
0.0
220
0.0
230
1.0
  2
AR-SAND
 70
0
 71
0
 91
1
 92
7
 72
1
 73
1
 93
2
 10
29.516657694925925
 20
259.0148008845099
 42
1.0
 10
30.284868766237196
 20
259.0148008845099
 42
1.0
 97
0
 75
1
 76
1
 52
0.0
 41
1.0
 77
0
 78
4
 53
37.5
 43
0.5352456696
 44
0.0979239618
 45
-1.600031296
 46
48.9413237329
 79
6
 49
0.0
 49
-38.608
 49
0.0
 49
-43.18
 49
0.0
 49
-41.275
 53
7.5
 43
0.5352456696
 44
0.0979239618
 45
44.9523283138
 46
71.6825100568
 79
6
 49
0.0
 49
-20.828
 49
0.0
 49
-34.798
 49
0.0
 49
-13.335
 53
327.5
 43
-30.7067543304
 44
0.0979239618
 45
79.0992370241
 46
0.1437184679
 79
6
 49
0.0
 49
-12.7
 49
0.0
 49
-45.72
 49
0.0
 49
-59.69
 53
317.5
 43
-30.7067543304
 44
0.0979239618
 45
76.3556452472
 46
22.2929323257
 79
6
 49
0.0
 49
-6.35
 49
0.0
 49
-29.972
 49
0.0
 49
-34.29
 47
0.0175069435101327
 98
1
 10
4485.415638070946
 20
6128.473514592471
1001
GradientColor1ACI
1070
5
1001
GradientColor2ACI
1070
2
1001
ACAD
1010
0.0
1020
0.0
1030
0.0
  0
HATCH
  5
C5
330
17
100
AcDbEntity
  8
im1-011$0$Слой1
370
-3
100
AcDbHatch
 10
0.0
 20
0.0
 30
0.0
210
0.0
220
0.0
230
1.0
  2
AR-SAND
 70
0
 71
0
 91
1
 92
7
 72
1
 73
1
 93
2
 10
29.516657694925925
 20
259.0148008845099
 42
1.0
 10
30.284868766237196
 20
259.0148008845099
 42
1.0
 97
0
 75
1
 76
1
 52
0.0
 41
1.0
 77
0
 78
4
 53
37.5
 43
0.5352456696
 44
0.0979239618
 45
-1.600031296
 46
48.9413237329
 79
6
 49
0.0
 49
-38.608
 49
0.0
 49
-43.18
 49
0.0
 49
-41.275
 53
7.5
 43
0.5352456696
 44
0.0979239618
 45
44.9523283138
 46
71.6825100568
 79
6
 49
0.0
 49
-20.828
 49
0.0
 49
-34.798
 49
0.0
 49
-13.335
 53
327.5
 43
-30.7067543304
 44
0.0979239618
 45
79.0992370241
 46
0.1437184679
 79
6
 49
0.0
 49
-12.7
 49
0.0
 49
-45.72
 49
0.0
 49
-59.69
 53
317.5
 43
-30.7067543304
 44
0.0979239618
 45
76.3556452472
 46
22.2929323257
 79
6
 49
0.0
 49
-6.35
 49
0.0
 49
-29.972
 49
0.0
 49
-34.29
 47
0.0175069435101327
 98
1
 10
4485.415638070946
 20
6128.473514592471
1001
GradientColor1ACI
1070
5
1001
GradientColor2ACI
1070
2
1001
ACAD
1010
0.0
1020
0.0
1030
0.0
  0
HATCH
  5
C6
330
17
100
AcDbEntity
  8
im1-011$0$Слой1
370
-3
100
AcDbHatch
 10
0.0
 20
0.0
 30
0.0
210
0.0
220
0.0
230
1.0
  2
AR-SAND
 70
0
 71
0
 91
1
 92
7
 72
1
 73
1
 93
2
 10
29.303871016716585
 20
259.0765791210615
 42
1.0
 10
30.072082088027855
 20
259.0765791210615
 42
1.0
 97
0
 75
1
 76
1
 52
0.0
 41
1.0
 77
0
 78
4
 53
37.5
 43
0.3224589914
 44
0.1597021984
 45
-1.600031296
 46
48.9413237329
 79
6
 49
0.0
 49
-38.608
 49
0.0
 49
-43.18
 49
0.0
 49
-41.275
 53
7.5
 43
0.3224589914
 44
0.1597021984
 45
44.9523283138
 46
71.6825100568
 79
6
 49
0.0
 49
-20.828
 49
0.0
 49
-34.798
 49
0.0
 49
-13.335
 53
327.5
 43
-30.9195410086
 44
0.1597021984
 45
79.0992370241
 46
0.1437184679
 79
6
 49
0.0
 49
-12.7
 49
0.0
 49
-45.72
 49
0.0
 49
-59.69
 53
317.5
 43
-30.9195410086
 44
0.1597021984
 45
76.3556452472
 46
22.2929323257
 79
6
 49
0.0
 49
-6.35
 49
0.0
 49
-29.972
 49
0.0
 49
-34.29
 47
0.0175069435101327
 98
1
 10
4485.202851392737
 20
6128.535292829023
1001
GradientColor1ACI
1070
5
1001
GradientColor2ACI
1070
2
1001
ACAD
1010
0.0
1020
0.0
1030
0.0
  0
HATCH
  5
C7
330
17
100
AcDbEntity
  8
im1-011$0$Слой1
370
-3
100
AcDbHatch
 10
0.0
 20
0.0
 30
0.0
210
0.0
220
0.0
230
1.0
  2
AR-SAND
 70
0
 71
0
 91
1
 92
7
 72
1
 73
1
 93
2
 10
29.303871016716585
 20
259.0765791210615
 42
1.0
 10
30.072082088027855
 20
259.0765791210615
 42
1.0
 97
0
 75
1
 76
1
 52
0.0
 41
1.0
 77
0
 78
4
 53
37.5
 43
0.3224589914
 44
0.1597021984
 45
-1.600031296
 46
48.9413237329
 79
6
 49
0.0
 49
-38.608
 49
0.0
 49
-43.18
 49
0.0
 49
-41.275
 53
7.5
 43
0.3224589914
 44
0.1597021984
 45
44.9523283138
 46
71.6825100568
 79
6
 49
0.0
 49
-20.828
 49
0.0
 49
-34.798
 49
0.0
 49
-13.335
 53
327.5
 43
-30.9195410086
 44
0.1597021984
 45
79.0992370241
 46
0.1437184679
 79
6
 49
0.0
 49
-12.7
 49
0.0
 49
-45.72
 49
0.0
 49
-59.69
 53
317.5
 43
-30.9195410086
 44
0.1597021984
 45
76.3556452472
 46
22.2929323257
 79
6
 49
0.0
 49
-6.35
 49
0.0
 49
-29.972
 49
0.0
 49
-34.29
 47
0.0175069435101327
 98
1
 10
4485.202851392737
 20
6128.535292829023
1001
GradientColor1ACI
1070
5
1001
GradientColor2ACI
1070
2
1001
ACAD
1010
0.0
1020
0.0
1030
0.0
  0
HATCH
  5
C8
330
17
100
AcDbEntity
  8
im1-011$0$Слой1
370
-3
100
AcDbHatch
 10
0.0
 20
0.0
 30
0.0
210
0.0
220
0.0
230
1.0
  2
AR-SAND
 70
0
 71
0
 91
1
 92
7
 72
1
 73
1
 93
2
 10
49.31104882600357
 20
90.13576981888673
 42
1.0
 10
50.07925989731393
 20
90.13576981888673
 42
1.0
 97
0
 75
1
 76
1
 52
0.0
 41
1.0
 77
0
 78
4
 53
37.5
 43
5.3296375842
 44
1.214769696
 45
-1.600031296
 46
48.9413237329
 79
6
 49
0.0
 49
-38.608
 49
0.0
 49
-43.18
 49
0.0
 49
-41.275
 53
7.5
 43
5.3296375842
 44
1.214769696
 45
44.9523283138
 46
71.6825100568
 79
6
 49
0.0
 49
-20.828
 49
0.0
 49
-34.798
 49
0.0
 49
-13.335
 53
327.5
 43
-25.9123624158
 44
1.214769696
 45
79.0992370241
 46
0.1437184679
 79
6
 49
0.0
 49
-12.7
 49
0.0
 49
-45.72
 49
0.0
 49
-59.69
 53
317.5
 43
-25.9123624158
 44
1.214769696
 45
76.3556452472
 46
22.2929323257
 79
6
 49
0.0
 49
-6.35
 49
0.0
 49
-29.972
 49
0.0
 49
-34.29
 47
0.004465353844224
 98
1
 10
4505.277585022105
 20
5959.334887285051
1001
GradientColor1ACI
1070
5
1001
GradientColor2ACI
1070
2
1001
ACAD
1010
0.0
1020
0.0
1030
0.0
  0
HATCH
  5
C9
330
17
100
AcDbEntity
  8
im1-011$0$Слой1
370
-3
100
AcDbHatch
 10
0.0
 20
0.0
 30
0.0
210
0.0
220
0.0
230
1.0
  2
AR-SAND
 70
0
 71
0
 91
1
 92
7
 72
1
 73
1
 93
2
 10
46.08377151340483
 20
90.76397553464994
 42
1.0
 10
46.85198258471519
 20
90.76397553464994
 42
1.0
 97
0
 75
1
 76
1
 52
0.0
 41
1.0
 77
0
 78
4
 53
37.5
 43
0.4805513164
 44
1.1683716418
 45
-1.600031296
 46
48.9413237329
 79
6
 49
0.0
 49
-38.608
 49
0.0
 49
-43.18
 49
0.0
 49
-41.275
 53
7.5
 43
0.4805513164
 44
1.1683716418
 45
44.9523283138
 46
71.6825100568
 79
6
 49
0.0
 49
-20.828
 49
0.0
 49
-34.798
 49
0.0
 49
-13.335
 53
327.5
 43
-30.7614486836
 44
1.1683716418
 45
79.0992370241
 46
0.1437184679
 79
6
 49
0.0
 49
-12.7
 49
0.0
 49
-45.72
 49
0.0
 49
-59.69
 53
317.5
 43
-30.7614486836
 44
1.1683716418
 45
76.3556452472
 46
22.2929323257
 79
6
 49
0.0
 49
-6.35
 49
0.0
 49
-29.972
 49
0.0
 49
-34.29
 47
0.0071679026380223
 98
1
 10
4502.1443748496
 20
5959.971074856394
1001
GradientColor1ACI
1070
5
1001
GradientColor2ACI
1070
2
1001
ACAD
1010
0.0
1020
0.0
1030
0.0
  0
HATCH
  5
CA
330
17
100
AcDbEntity
  8
im1-011$0$Слой1
370
-3
100
AcDbHatch
 10
0.0
 20
0.0
 30
0.0
210
0.0
220
0.0
230
1.0
  2
AR-SAND
 70
0
 71
0
 91
1
 92
7
 72
1
 73
1
 93
2
 10
33.98141176416539
 20
252.8324930033632
 42
1.0
 10
34.74962283547484
 20
252.8324930033632
 42
1.0
 97
0
 75
1
 76
1
 52
0.0
 41
1.0
 77
0
 78
4
 53
37.5
 43
3.0993191259
 44
0.9111461845
 45
-1.600031296
 46
48.9413237329
 79
6
 49
0.0
 49
-38.608
 49
0.0
 49
-43.18
 49
0.0
 49
-41.275
 53
7.5
 43
3.0993191259
 44
0.9111461845
 45
44.9523283138
 46
71.6825100568
 79
6
 49
0.0
 49
-20.828
 49
0.0
 49
-34.798
 49
0.0
 49
-13.335
 53
327.5
 43
-28.1426808741
 44
0.9111461845
 45
79.0992370241
 46
0.1437184679
 79
6
 49
0.0
 49
-12.7
 49
0.0
 49
-45.72
 49
0.0
 49
-59.69
 53
317.5
 43
-28.1426808741
 44
0.9111461845
 45
76.3556452472
 46
22.2929323257
 79
6
 49
0.0
 49
-6.35
 49
0.0
 49
-29.972
 49
0.0
 49
-34.29
 47
0.004465353844224
 98
1
 10
4503.047266563778
 20
5959.031263773495
1001
GradientColor1ACI
1070
5
1001
GradientColor2ACI
1070
2
1001
ACAD
1010
0.0
1020
0.0
1030
0.0
  0
HATCH
  5
CB
330
17
100
AcDbEntity
  8
im1-011$0$Слой1
370
-3
100
AcDbHatch
 10
0.0
 20
0.0
 30
0.0
210
0.0
220
0.0
230
1.0
  2
AR-SAND
 70
0
 71
1
 91
1
 92
7
 72
1
 73
1
 93
2
 10
28.981412025350437
 20
257.83249274217815
 42
1.0
 10
29.74962309665898
 20
257.83249274217815
 42
1.0
 97
1
330
CD
 75
1
 76
1
 52
0.0
 41
1.0
 77
0
 78
4
 53
37.5
 43
-1.9006806129
 44
5.9111459233
 45
-1.600031296
 46
48.9413237329
 79
6
 49
0.0
 49
-38.608
 49
0.0
 49
-43.18
 49
0.0
 49
-41.275
 53
7.5
 43
-1.9006806129
 44
5.9111459233
 45
44.9523283138
 46
71.6825100568
 79
6
 49
0.0
 49
-20.828
 49
0.0
 49
-34.798
 49
0.0
 49
-13.335
 53
327.5
 43
-33.1426806129
 44
5.9111459233
 45
79.0992370241
 46
0.1437184679
 79
6
 49
0.0
 49
-12.7
 49
0.0
 49
-45.72
 49
0.0
 49
-59.69
 53
317.5
 43
-33.1426806129
 44
5.9111459233
 45
76.3556452472
 46
22.2929323257
 79
6
 49
0.0
 49
-6.35
 49
0.0
 49
-29.972
 49
0.0
 49
-34.29
 47
0.004465353844224
 98
1
 10
4498.047266824963
 20
5964.03126351231
1001
GradientColor1ACI
1070
5
1001
GradientColor2ACI
1070
2
1001
ACAD
1010
0.0
1020
0.0
1030
0.0
  0
HATCH
  5
CC
330
17
100
AcDbEntity
  8
im1-011$0$Слой1
370
-3
100
AcDbHatch
 10
0.0
 20
0.0
 30
0.0
210
0.0
220
0.0
230
1.0
  2
AR-SAND
 70
0
 71
1
 91
1
 92
7
 72
1
 73
1
 93
2
 10
28.981412025350437
 20
257.83249274217815
 42
1.0
 10
29.74962309665898
 20
257.83249274217815
 42
1.0
 97
1
330
CD
 75
1
 76
1
 52
0.0
 41
1.0
 77
0
 78
4
 53
37.5
 43
-16.6218081717
 44
168.2368888493
 45
-1.600031296
 46
48.9413237329
 79
6
 49
0.0
 49
-38.608
 49
0.0
 49
-43.18
 49
0.0
 49
-41.275
 53
7.5
 43
-16.6218081717
 44
168.2368888493
 45
44.9523283138
 46
71.6825100568
 79
6
 49
0.0
 49
-20.828
 49
0.0
 49
-34.798
 49
0.0
 49
-13.335
 53
327.5
 43
-47.8638081717
 44
168.2368888493
 45
79.0992370241
 46
0.1437184679
 79
6
 49
0.0
 49
-12.7
 49
0.0
 49
-45.72
 49
0.0
 49
-59.69
 53
317.5
 43
-47.8638081717
 44
168.2368888493
 45
76.3556452472
 46
22.2929323257
 79
6
 49
0.0
 49
-6.35
 49
0.0
 49
-29.972
 49
0.0
 49
-34.29
 47
0.0071679026380223
 98
1
 10
4485.042015361545
 20
6127.039592063924
1001
GradientColor1ACI
1070
5
1001
GradientColor2ACI
1070
2
1001
ACAD
1010
0.0
1020
0.0
1030
0.0
1001
HATCHBACKGROUNDCOLOR
1071
-1023410169
1000

1000

  0
CIRCLE
  5
CD
102
{ACAD_REACTORS
330
CB
330
CC
102
}
330
17
100
AcDbEntity
  8
im1-011$0$Слой1
370
-3
100
AcDbCircle
 10
29.365517561004708
 20
257.83249274217815
 30
0.0
 40
0.3841055356551806
  0
HATCH
  5
CE
330
17
100
AcDbEntity
  8
im1-011$0$Слой1
370
-3
100
AcDbHatch
 10
0.0
 20
0.0
 30
0.0
210
0.0
220
0.0
230
1.0
  2
AR-SAND
 70
0
 71
0
 91
1
 92
7
 72
1
 73
1
 93
2
 10
38.98141150297943
 20
247.83249326454916
 42
1.0
 10
39.74962257428888
 20
247.83249326454916
 42
1.0
 97
0
 75
1
 76
1
 52
0.0
 41
1.0
 77
0
 78
4
 53
37.5
 43
8.0993188647
 44
-4.0888535543
 45
-1.600031296
 46
48.9413237329
 79
6
 49
0.0
 49
-38.608
 49
0.0
 49
-43.18
 49
0.0
 49
-41.275
 53
7.5
 43
8.0993188647
 44
-4.0888535543
 45
44.9523283138
 46
71.6825100568
 79
6
 49
0.0
 49
-20.828
 49
0.0
 49
-34.798
 49
0.0
 49
-13.335
 53
327.5
 43
-23.1426811353
 44
-4.0888535543
 45
79.0992370241
 46
0.1437184679
 79
6
 49
0.0
 49
-12.7
 49
0.0
 49
-45.72
 49
0.0
 49
-59.69
 53
317.5
 43
-23.1426811353
 44
-4.0888535543
 45
76.3556452472
 46
22.2929323257
 79
6
 49
0.0
 49
-6.35
 49
0.0
 49
-29.972
 49
0.0
 49
-34.29
 47
0.004465353844224
 98
1
 10
4508.047266302592
 20
5954.03126403468
1001
GradientColor1ACI
1070
5
1001
GradientColor2ACI
1070
2
1001
ACAD
1010
0.0
1020
0.0
1030
0.0
  0
HATCH
  5
CF
330
17
100
AcDbEntity
  8
im1-011$0$Слой1
370
-3
100
AcDbHatch
 10
0.0
 20
0.0
 30
0.0
210
0.0
220
0.0
230
1.0
  2
AR-SAND
 70
0
 71
1
 91
1
 92
7
 72
1
 73
1
 93
2
 10
43.981411241794376
 20
88.92100012285755
 42
1.0
 10
44.74962231310383
 20
88.92100012285755
 42
1.0
 97
1
330
D0
 75
1
 76
1
 52
0.0
 41
1.0
 77
0
 78
4
 53
37.5
 43
-1.6218089552
 44
-0.67460377
 45
-1.600031296
 46
48.9413237329
 79
6
 49
0.0
 49
-38.608
 49
0.0
 49
-43.18
 49
0.0
 49
-41.275
 53
7.5
 43
-1.6218089552
 44
-0.67460377
 45
44.9523283138
 46
71.6825100568
 79
6
 49
0.0
 49
-20.828
 49
0.0
 49
-34.798
 49
0.0
 49
-13.335
 53
327.5
 43
-32.8638089552
 44
-0.67460377
 45
79.0992370241
 46
0.1437184679
 79
6
 49
0.0
 49
-12.7
 49
0.0
 49
-45.72
 49
0.0
 49
-59.69
 53
317.5
 43
-32.8638089552
 44
-0.67460377
 45
76.3556452472
 46
22.2929323257
 79
6
 49
0.0
 49
-6.35
 49
0.0
 49
-29.972
 49
0.0
 49
-34.29
 47
0.0071679026380223
 98
1
 10
4500.04201457799
 20
5958.128099444603
1001
GradientColor1ACI
1070
5
1001
GradientColor2ACI
1070
2
1001
ACAD
1010
0.0
1020
0.0
1030
0.0
1001
HATCHBACKGROUNDCOLOR
1071
-1023410169
1000

1000

  0
CIRCLE
  5
D0
102
{ACAD_REACTORS
330
CE
330
CF
102
}
330
17
100
AcDbEntity
  8
im1-011$0$Слой1
370
-3
100
AcDbCircle
 10
44.36551677744865
 20
88.92100012285755
 30
0.0
 40
0.3841055356551806
  0
MTEXT
  5
D1
330
17
100
AcDbEntity
  8
im1-011$0$Слой1
370
-3
100
AcDbMText
 10
45.08058130691097
 20
175.8419811564372
 30
0.0
 40
1.8
 41
3.629860294456364
 46
0.0
 71
1
 72
5
  1
\pxqc;KM
  7
im1-011$0$GOST_A
101
Embedded Object
 70
1
 10
1.0
 20
0.0
 30
0.0
 11
45.08058130691097
 21
175.8419811564372
 31
0.0
 40
3.629860294456364
 41
0.0
 42
2.314653323802716
 43
1.811579699785561
 71
2
 72
1
 44
3.629860294456364
 45
15.0
 73
0
 74
0
 46
1.76171668847644
  0
MTEXT
  5
D2
330
17
100
AcDbEntity
  8
im1-011$0$Слой1
370
-3
100
AcDbMText
 10
41.41929203513337
 20
193.6533934277404
 30
0.0
 40
1.8
 41
3.629860294456364
 46
0.0
 71
1
 72
5
  1
\pxqc;QF
  7
im1-011$0$GOST_A
101
Embedded Object
 70
1
 10
1.0
 20
0.0
 30
0.0
 11
41.41929203513337
 21
193.6533934277404
 31
0.0
 40
3.629860294456364
 41
0.0
 42
2.058613295210864
 43
1.801286633309506
 71
2
 72
1
 44
3.629860294456364
 45
15.0
 73
0
 74
0
 46
1.76171668847644
  0
LWPOLYLINE
  5
D3
330
17
100
AcDbEntity
  8
im1-011$0$Слой1
 62
7
370
30
100
AcDbPolyline
 90
4
 70
1
 10
52.04365493076057
 20
275.09711253684236
 10
57.043654669576426
 20
275.09711253684236
 10
57.043654669576426
 20
280.0
 10
52.04365493076057
 20
280.0
  0
MTEXT
  5
D4
330
17
100
AcDbEntity
  8
im1-011$0$XT1
370
-3
100
AcDbMText
 10
52.669990109578976
 20
278.5520468258419
 30
0.0
 40
1.8
 41
3.629860294456364
 46
0.0
 71
1
 72
5
  1
\pxqc;#1
  7
im1-011$0$GOST_A
101
Embedded Object
 70
1
 10
1.0
 20
0.0
 30
0.0
 11
52.669990109578976
 21
278.5520468258419
 31
0.0
 40
3.629860294456364
 41
0.0
 42
2.007147962830593
 43
1.802573266619013
 71
2
 72
1
 44
3.629860294456364
 45
15.0
 73
0
 74
0
 46
1.76171668847644
  0
LINE
  5
D5
330
17
100
AcDbEntity
  8
im1-011$0$Слой1
370
-3
100
AcDbLine
 10
29.365517561004708
 20
186.99146066856883
 30
0.0
 11
27.380849181718077
 21
186.99146066856883
 31
0.0
  0
LINE
  5
D6
330
17
100
AcDbEntity
  8
im1-011$0$Слой1
370
-3
100
AcDbLine
 10
27.380849181718077
 20
186.99146066856883
 30
0.0
 11
27.380849181718077
 21
185.3470080712059
 31
0.0
  0
LINE
  5
D7
330
17
100
AcDbEntity
  8
im1-011$0$Слой1
370
-3
100
AcDbLine
 10
27.380849181718077
 20
185.3470080712059
 30
0.0
 11
29.365517561004708
 21
185.3470080712068
 31
0.0
  0
LINE
  5
D8
330
17
100
AcDbEntity
  8
im1-011$0$Слой1
370
-3
100
AcDbLine
 10
34.36551729981966
 20
186.99146066856883
 30
0.0
 11
32.380848920533026
 21
186.99146066856883
 31
0.0
  0
LINE
  5
D9
330
17
100
AcDbEntity
  8
im1-011$0$Слой1
370
-3
100
AcDbLine
 10
32.380848920533026
 20
186.99146066856883
 30
0.0
 11
32.380848920533026
 21
185.3470080712059
 31
0.0
  0
LINE
  5
DA
330
17
100
AcDbEntity
  8
im1-011$0$Слой1
370
-3
100
AcDbLine
 10
32.380848920533026
 20
185.3470080712059
 30
0.0
 11
34.36551729981966
 21
185.3470080712068
 31
0.0
  0
LINE
  5
DB
330
17
100
AcDbEntity
  8
im1-011$0$Слой1
370
-3
100
AcDbLine
 10
39.3655170386337
 20
186.99146066856883
 30
0.0
 11
37.380848659347976
 21
186.99146066856883
 31
0.0
  0
LINE
  5
DC
330
17
100
AcDbEntity
  8
im1-011$0$Слой1
370
-3
100
AcDbLine
 10
37.380848659347976
 20
186.99146066856883
 30
0.0
 11
37.380848659347976
 21
185.3470080712059
 31
0.0
  0
LINE
  5
DD
330
17
100
AcDbEntity
  8
im1-011$0$Слой1
370
-3
100
AcDbLine
 10
37.380848659347976
 20
185.3470080712059
 30
0.0
 11
39.3655170386337
 21
185.3470080712068
 31
0.0
  0
LINE
  5
DE
330
17
100
AcDbEntity
  8
im1-011$0$Слой1
370
-3
100
AcDbLine
 10
29.36551756100198
 20
182.9405575691344
 30
0.0
 11
34.36551729981966
 21
182.9405575691344
 31
0.0
  0
LINE
  5
DF
330
17
100
AcDbEntity
  8
im1-011$0$Кабель
100
AcDbLine
 10
34.36551729981966
 20
202.93360795816625
 30
0.0
 11
34.36551729981966
 21
194.7508578409752
 31
0.0
  0
LINE
  5
E0
330
17
100
AcDbEntity
  8
im1-011$0$Кабель
100
AcDbLine
 10
39.3655170386337
 20
202.93360795816625
 30
0.0
 11
39.3655170386337
 21
194.7508578409752
 31
0.0
  0
LINE
  5
E1
330
17
100
AcDbEntity
  8
im1-011$0$Слой1
370
-3
100
AcDbLine
 10
34.36551729981966
 20
202.93360795816625
 30
0.0
 11
39.3655170386337
 21
202.93360795816625
 31
0.0
  0
LINE
  5
E2
330
17
100
AcDbEntity
  8
im1-011$0$Слой1
370
-3
100
AcDbLine
 10
39.3655170386337
 20
179.34437796125258
 30
0.0
 11
29.36551756100198
 21
179.34437796125258
 31
0.0
  0
LINE
  5
E3
330
17
100
AcDbEntity
  8
im1-011$0$Слой1
370
-3
100
AcDbLine
 10
29.36551756100198
 20
179.34437796125258
 30
0.0
 11
29.36551756100198
 21
176.63371607186036
 31
0.0
  0
LINE
  5
E4
330
17
100
AcDbEntity
  8
im1-011$0$Кабель
100
AcDbLine
 10
44.453907675143455
 20
177.98904701655556
 30
0.0
 11
44.36551677744865
 21
93.9209998616725
 31
0.0
  0
HATCH
  5
E5
330
17
100
AcDbEntity
  8
im1-011$0$Слой1
370
-3
100
AcDbHatch
 10
0.0
 20
0.0
 30
0.0
210
0.0
220
0.0
230
1.0
  2
AR-SAND
 70
0
 71
1
 91
1
 92
7
 72
1
 73
1
 93
2
 10
43.981411241794376
 20
93.9209998616725
 42
1.0
 10
44.74962231310383
 20
93.9209998616725
 42
1.0
 97
1
330
E6
 75
1
 76
1
 52
0.0
 41
1.0
 77
0
 78
4
 53
37.5
 43
-1.6218089552
 44
4.3253959688
 45
-1.600031296
 46
48.9413237329
 79
6
 49
0.0
 49
-38.608
 49
0.0
 49
-43.18
 49
0.0
 49
-41.275
 53
7.5
 43
-1.6218089552
 44
4.3253959688
 45
44.9523283138
 46
71.6825100568
 79
6
 49
0.0
 49
-20.828
 49
0.0
 49
-34.798
 49
0.0
 49
-13.335
 53
327.5
 43
-32.8638089552
 44
4.3253959688
 45
79.0992370241
 46
0.1437184679
 79
6
 49
0.0
 49
-12.7
 49
0.0
 49
-45.72
 49
0.0
 49
-59.69
 53
317.5
 43
-32.8638089552
 44
4.3253959688
 45
76.3556452472
 46
22.2929323257
 79
6
 49
0.0
 49
-6.35
 49
0.0
 49
-29.972
 49
0.0
 49
-34.29
 47
0.0071679026380223
 98
1
 10
4500.04201457799
 20
5963.128099183418
1001
GradientColor1ACI
1070
5
1001
GradientColor2ACI
1070
2
1001
ACAD
1010
0.0
1020
0.0
1030
0.0
1001
HATCHBACKGROUNDCOLOR
1071
-1023410169
1000

1000

  0
CIRCLE
  5
E6
102
{ACAD_REACTORS
330
CE
330
E5
102
}
330
17
100
AcDbEntity
  8
im1-011$0$Слой1
370
-3
100
AcDbCircle
 10
44.36551677744865
 20
93.9209998616725
 30
0.0
 40
0.3841055356551806
  0
LINE
  5
E7
330
17
100
AcDbEntity
  8
im1-011$0$Слой1
370
-3
100
AcDbLine
 10
34.36551729981693
 20
177.98904701655556
 30
0.0
 11
34.36551729981693
 21
176.63371607186036
 31
0.0
  0
LINE
  5
E8
330
17
100
AcDbEntity
  8
im1-011$0$Слой1
370
-3
100
AcDbLine
 10
34.36551729981693
 20
177.98904701655556
 30
0.0
 11
44.453907675143455
 21
177.98904701655556
 31
0.0
  0
MTEXT
  5
E9
330
17
100
AcDbEntity
  8
im1-011$0$QF
370
-3
100
AcDbMText
 10
45.18009876734595
 20
193.6533934277404
 30
0.0
 40
1.8
 41
3.629860294456364
 46
0.0
 71
1
 72
5
  1
#1
  7
im1-011$0$GOST_A
101
Embedded Object
 70
1
 10
1.0
 20
0.0
 30
0.0
 11
45.18009876734595
 21
193.6533934277404
 31
0.0
 40
3.629860294456364
 41
0.0
 42
2.007147962830593
 43
1.802573266619013
 71
2
 72
1
 44
3.629860294456364
 45
15.0
 73
0
 74
0
 46
1.76171668847644
  0
MTEXT
  5
EA
330
17
100
AcDbEntity
  8
im1-011$0$KM
370
-3
100
AcDbMText
 10
48.79897403812174
 20
175.8419811564372
 30
0.0
 40
1.8
 41
3.629860294456364
 46
0.0
 71
1
 72
5
  1
#1.1
  7
im1-011$0$GOST_A
101
Embedded Object
 70
1
 10
1.0
 20
0.0
 30
0.0
 11
48.79897403812174
 21
175.8419811564372
 31
0.0
 40
3.629860294456364
 41
0.0
 42
3.100786275911365
 43
1.802573266619013
 71
2
 72
1
 44
3.629860294456364
 45
15.0
 73
0
 74
0
 46
1.76171668847644
  0
LINE
  5
EB
330
17
100
AcDbEntity
  8
im1-011$0$Слой1
370
-3
100
AcDbLine
 10
39.3655170386337
 20
173.03760252476422
 30
0.0
 11
39.3655170386337
 21
170.6035987494497
 31
0.0
  0
LWPOLYLINE
  5
EC
330
17
100
AcDbEntity
  8
im1-011$0$Слой1
 62
7
370
30
100
AcDbPolyline
 90
4
 70
1
 10
64.54365427779794
 20
172.47565824989397
 10
74.54365375542784
 20
172.47565824989397
 10
74.54365375542784
 20
177.3785457130516
 10
64.54365427779794
 20
177.3785457130516
  0
MTEXT
  5
ED
330
17
100
AcDbEntity
  8
im1-011$0$Слой1
370
-3
100
AcDbMText
 10
75.17606870438976
 20
175.8419811564372
 30
0.0
 40
1.8
 41
3.629860294456364
 46
0.0
 71
1
 72
5
  1
\pxqc;KM
  7
im1-011$0$GOST_A
101
Embedded Object
 70
1
 10
1.0
 20
0.0
 30
0.0
 11
75.17606870438976
 21
175.8419811564372
 31
0.0
 40
3.629860294456364
 41
0.0
 42
2.314653323802716
 43
1.811579699785561
 71
2
 72
1
 44
3.629860294456364
 45
15.0
 73
0
 74
0
 46
1.76171668847644
  0
LINE
  5
EE
330
17
100
AcDbEntity
  8
im1-011$0$Кабель
100
AcDbLine
 10
49.54365506135309
 20
242.8324935257324
 30
0.0
 11
49.54365506135309
 21
186.99146066856883
 31
0.0
  0
LINE
  5
EF
330
17
100
AcDbEntity
  8
im1-011$0$Кабель
100
AcDbLine
 10
54.54365480016804
 20
275.09711253684236
 30
0.0
 11
54.54365480016804
 21
194.75085784097337
 31
0.0
  0
LINE
  5
F0
330
17
100
AcDbEntity
  8
im1-011$0$Слой1
370
-3
100
AcDbLine
 10
49.54365506135309
 20
186.99146066856883
 30
0.0
 11
54.54365480016713
 21
186.99146066856883
 31
0.0
  0
LINE
  5
F1
330
17
100
AcDbEntity
  8
im1-011$0$Слой1
370
-3
100
AcDbLine
 10
54.54365480016713
 20
186.99146066856883
 30
0.0
 11
54.54365480016713
 21
189.07310248122394
 31
0.0
  0
LINE
  5
F2
330
17
100
AcDbEntity
  8
im1-011$0$Кабель
100
AcDbLine
 10
54.54365480016713
 20
191.15474429387814
 30
0.0
 11
54.54365480016713
 21
186.99146066856792
 31
0.0
  0
LINE
  5
F3
330
17
100
AcDbEntity
  8
im1-011$0$Слой1
370
-3
100
AcDbLine
 10
52.29372822993537
 20
194.75085784097337
 30
0.0
 11
54.54365480016713
 21
191.15474429387814
 31
0.0
  0
LINE
  5
F4
330
17
100
AcDbEntity
  8
im1-011$0$Кабель
100
AcDbLine
 10
64.54365427779794
 20
275.09711253684236
 30
0.0
 11
64.54365427779794
 21
242.8324935257342
 31
0.0
  0
LINE
  5
F5
330
17
100
AcDbEntity
  8
im1-011$0$Кабель
100
AcDbLine
 10
69.54365401661289
 20
275.09711253684236
 30
0.0
 11
69.54365401661289
 21
177.3785457130516
 31
0.0
  0
LINE
  5
F6
330
17
100
AcDbEntity
  8
im1-011$0$Слой1
370
-3
100
AcDbLine
 10
69.54365401661289
 20
172.47565824989397
 30
0.0
 11
69.54365401661289
 21
103.9209993393024
 31
0.0
  0
HATCH
  5
F7
330
17
100
AcDbEntity
  8
im1-011$0$Слой1
370
-3
100
AcDbHatch
 10
0.0
 20
0.0
 30
0.0
210
0.0
220
0.0
230
1.0
  2
AR-SAND
 70
0
 71
1
 91
1
 92
7
 72
1
 73
1
 93
2
 10
49.92776059700827
 20
242.8324935257342
 42
1.0
 10
49.15954952569791
 20
242.8324935257342
 42
1.0
 97
1
330
F8
 75
1
 76
1
 52
0.0
 41
1.0
 77
0
 78
4
 53
37.5
 43
3.5563293287
 44
153.2368896329
 45
-1.600031296
 46
48.9413237329
 79
6
 49
0.0
 49
-38.608
 49
0.0
 49
-43.18
 49
0.0
 49
-41.275
 53
7.5
 43
3.5563293287
 44
153.2368896329
 45
44.9523283138
 46
71.6825100568
 79
6
 49
0.0
 49
-20.828
 49
0.0
 49
-34.798
 49
0.0
 49
-13.335
 53
327.5
 43
-27.6856706713
 44
153.2368896329
 45
79.0992370241
 46
0.1437184679
 79
6
 49
0.0
 49
-12.7
 49
0.0
 49
-45.72
 49
0.0
 49
-59.69
 53
317.5
 43
-27.6856706713
 44
153.2368896329
 45
76.3556452472
 46
22.2929323257
 79
6
 49
0.0
 49
-6.35
 49
0.0
 49
-29.972
 49
0.0
 49
-34.29
 47
0.0071679026380223
 98
1
 10
4505.220152861894
 20
6112.039592847479
1001
GradientColor1ACI
1070
5
1001
GradientColor2ACI
1070
2
1001
ACAD
1010
0.0
1020
0.0
1030
0.0
1001
HATCHBACKGROUNDCOLOR
1071
-1023410169
1000

1000

  0
CIRCLE
  5
F8
102
{ACAD_REACTORS
330
F7
102
}
330
17
100
AcDbEntity
  8
im1-011$0$Слой1
370
-3
100
AcDbCircle
 10
49.54365506135309
 20
242.8324935257342
 30
0.0
 40
0.3841055356551806
  0
HATCH
  5
F9
330
17
100
AcDbEntity
  8
im1-011$0$Слой1
370
-3
100
AcDbHatch
 10
0.0
 20
0.0
 30
0.0
210
0.0
220
0.0
230
1.0
  2
AR-SAND
 70
0
 71
1
 91
1
 92
7
 72
1
 73
1
 93
2
 10
64.92775981345312
 20
242.8324935257342
 42
1.0
 10
64.15954874214185
 20
242.8324935257342
 42
1.0
 97
1
330
FA
 75
1
 76
1
 52
0.0
 41
1.0
 77
0
 78
4
 53
37.5
 43
18.5563285451
 44
153.2368896329
 45
-1.600031296
 46
48.9413237329
 79
6
 49
0.0
 49
-38.608
 49
0.0
 49
-43.18
 49
0.0
 49
-41.275
 53
7.5
 43
18.5563285451
 44
153.2368896329
 45
44.9523283138
 46
71.6825100568
 79
6
 49
0.0
 49
-20.828
 49
0.0
 49
-34.798
 49
0.0
 49
-13.335
 53
327.5
 43
-12.6856714549
 44
153.2368896329
 45
79.0992370241
 46
0.1437184679
 79
6
 49
0.0
 49
-12.7
 49
0.0
 49
-45.72
 49
0.0
 49
-59.69
 53
317.5
 43
-12.6856714549
 44
153.2368896329
 45
76.3556452472
 46
22.2929323257
 79
6
 49
0.0
 49
-6.35
 49
0.0
 49
-29.972
 49
0.0
 49
-34.29
 47
0.0071679026380223
 98
1
 10
4520.220152078338
 20
6112.039592847479
1001
GradientColor1ACI
1070
5
1001
GradientColor2ACI
1070
2
1001
ACAD
1010
0.0
1020
0.0
1030
0.0
1001
HATCHBACKGROUNDCOLOR
1071
-1023410169
1000

1000

  0
CIRCLE
  5
FA
102
{ACAD_REACTORS
330
F9
102
}
330
17
100
AcDbEntity
  8
im1-011$0$Слой1
370
-3
100
AcDbCircle
 10
64.54365427779794
 20
242.8324935257342
 30
0.0
 40
0.3841055356551806
  0
HATCH
  5
FB
330
17
100
AcDbEntity
  8
im1-011$0$Слой1
370
-3
100
AcDbHatch
 10
0.0
 20
0.0
 30
0.0
210
0.0
220
0.0
230
1.0
  2
AR-SAND
 70
0
 71
1
 91
1
 92
7
 72
1
 73
1
 93
2
 10
69.92775955226807
 20
103.9209993393024
 42
1.0
 10
69.1595484809568
 20
103.9209993393024
 42
1.0
 97
1
330
FC
 75
1
 76
1
 52
0.0
 41
1.0
 77
0
 78
4
 53
37.5
 43
23.5563282839
 44
14.3253954464
 45
-1.600031296
 46
48.9413237329
 79
6
 49
0.0
 49
-38.608
 49
0.0
 49
-43.18
 49
0.0
 49
-41.275
 53
7.5
 43
23.5563282839
 44
14.3253954464
 45
44.9523283138
 46
71.6825100568
 79
6
 49
0.0
 49
-20.828
 49
0.0
 49
-34.798
 49
0.0
 49
-13.335
 53
327.5
 43
-7.6856717161
 44
14.3253954464
 45
79.0992370241
 46
0.1437184679
 79
6
 49
0.0
 49
-12.7
 49
0.0
 49
-45.72
 49
0.0
 49
-59.69
 53
317.5
 43
-7.6856717161
 44
14.3253954464
 45
76.3556452472
 46
22.2929323257
 79
6
 49
0.0
 49
-6.35
 49
0.0
 49
-29.972
 49
0.0
 49
-34.29
 47
0.0071679026380223
 98
1
 10
4525.220151817153
 20
5973.128098661047
1001
GradientColor1ACI
1070
5
1001
GradientColor2ACI
1070
2
1001
ACAD
1010
0.0
1020
0.0
1030
0.0
1001
HATCHBACKGROUNDCOLOR
1071
-1023410169
1000

1000

  0
CIRCLE
  5
FC
102
{ACAD_REACTORS
330
FB
102
}
330
17
100
AcDbEntity
  8
im1-011$0$Слой1
370
-3
100
AcDbCircle
 10
69.54365401661289
 20
103.9209993393024
 30
0.0
 40
0.3841055356551806
  0
MTEXT
  5
FD
330
17
100
AcDbEntity
  8
im1-011$0$Слой1
370
-3
100
AcDbMText
 10
55.93205749547724
 20
193.6533934277404
 30
0.0
 40
1.8
 41
3.629860294456364
 46
0.0
 71
1
 72
5
  1
\pxqc;QF
  7
im1-011$0$GOST_A
101
Embedded Object
 70
1
 10
1.0
 20
0.0
 30
0.0
 11
55.93205749547724
 21
193.6533934277404
 31
0.0
 40
3.629860294456364
 41
0.0
 42
2.058613295210864
 43
1.801286633309506
 71
2
 72
1
 44
3.629860294456364
 45
15.0
 73
0
 74
0
 46
1.76171668847644
  0
MTEXT
  5
FE
330
17
100
AcDbEntity
  8
im1-011$0$QF
370
-3
100
AcDbMText
 10
59.18583637800202
 20
193.6533934277404
 30
0.0
 40
1.8
 41
3.629860294456364
 46
0.0
 71
1
 72
5
  1
\pxqc;#1.1
  7
im1-011$0$GOST_A
101
Embedded Object
 70
1
 10
1.0
 20
0.0
 30
0.0
 11
59.18583637800202
 21
193.6533934277404
 31
0.0
 40
3.629860294456364
 41
0.0
 42
3.100786275911365
 43
1.802573266619013
 71
2
 72
1
 44
3.629860294456364
 45
15.0
 73
0
 74
0
 46
1.76171668847644
  0
MTEXT
  5
FF
330
17
100
AcDbEntity
  8
im1-011$0$KM
370
-3
100
AcDbMText
 10
79.00323222420411
 20
175.8419811564372
 30
0.0
 40
1.8
 41
3.629860294456364
 46
0.0
 71
1
 72
5
  1
\pxqc;#1
  7
im1-011$0$GOST_A
101
Embedded Object
 70
1
 10
1.0
 20
0.0
 30
0.0
 11
79.00323222420411
 21
175.8419811564372
 31
0.0
 40
3.629860294456364
 41
0.0
 42
2.007147962830593
 43
1.802573266619013
 71
2
 72
1
 44
3.629860294456364
 45
15.0
 73
0
 74
0
 46
1.76171668847644
  0
LWPOLYLINE
  5
100
330
17
100
AcDbEntity
  8
im1-011$0$Слой1
 62
7
370
30
100
AcDbPolyline
 90
4
 70
1
 10
62.04365440838956
 20
275.09711253684236
 10
67.04365414720542
 20
275.09711253684236
 10
67.04365414720542
 20
280.0
 10
62.04365440838956
 20
280.0
  0
MTEXT
  5
101
330
17
100
AcDbEntity
  8
im1-011$0$XT1
370
-3
100
AcDbMText
 10
62.669989587207965
 20
278.5520468258419
 30
0.0
 40
1.8
 41
3.629860294456364
 46
0.0
 71
1
 72
5
  1
\pxqc;#2
  7
im1-011$0$GOST_A
101
Embedded Object
 70
1
 10
1.0
 20
0.0
 30
0.0
 11
62.669989587207965
 21
278.5520468258419
 31
0.0
 40
3.629860294456364
 41
0.0
 42
2.403431022158684
 43
1.802573266619013
 71
2
 72
1
 44
3.629860294456364
 45
15.0
 73
0
 74
0
 46
1.76171668847644
  0
LWPOLYLINE
  5
102
330
17
100
AcDbEntity
  8
im1-011$0$Слой1
 62
7
370
30
100
AcDbPolyline
 90
4
 70
1
 10
67.04365414720542
 20
275.09711253684236
 10
72.04365388602037
 20
275.09711253684236
 10
72.04365388602037
 20
280.0
 10
67.04365414720542
 20
280.0
  0
MTEXT
  5
103
330
17
100
AcDbEntity
  8
im1-011$0$XT1
370
-3
100
AcDbMText
 10
67.66998932602291
 20
278.5520468258419
 30
0.0
 40
1.8
 41
3.629860294456364
 46
0.0
 71
1
 72
5
  1
\pxqc;#3
  7
im1-011$0$GOST_A
101
Embedded Object
 70
1
 10
1.0
 20
0.0
 30
0.0
 11
67.66998932602291
 21
278.5520468258419
 31
0.0
 40
3.629860294456364
 41
0.0
 42
2.264474624731951
 43
1.802573266619013
 71
2
 72
1
 44
3.629860294456364
 45
15.0
 73
0
 74
0
 46
1.76171668847644
  0
MTEXT
  5
104
330
17
100
AcDbEntity
  8
im1-011$0$Слой1
370
-3
100
AcDbMText
 10
68.12943424007517
 20
175.8419811564372
 30
0.0
 40
1.8
 41
3.629860294456364
 46
0.0
 71
1
 72
5
  1
В1
  7
im1-011$0$GOST_A
101
Embedded Object
 70
1
 10
1.0
 20
0.0
 30
0.0
 11
68.12943424007517
 21
175.8419811564372
 31
0.0
 40
3.629860294456364
 41
0.0
 42
1.672623302358827
 43
1.802573266619013
 71
2
 72
1
 44
3.629860294456364
 45
15.0
 73
0
 74
0
 46
1.76171668847644
  0
HATCH
  5
112
330
17
100
AcDbEntity
  8
im2-1$0$Слой1
370
-3
100
AcDbHatch
 10
0.0
 20
0.0
 30
0.0
210
0.0
220
0.0
230
1.0
  2
AR-SAND
 70
0
 71
0
 91
1
 92
7
 72
1
 73
1
 93
2
 10
87.57767155860984
 20
254.7161604407529
 42
1.0
 10
88.34588262991929
 20
254.7161604407529
 42
1.0
 97
0
 75
1
 76
1
 52
0.0
 41
1.0
 77
0
 78
4
 53
37.5
 43
4.9999997388
 44
-6.0843839193
 45
-1.600031296
 46
48.9413237329
 79
6
 49
0.0
 49
-38.608
 49
0.0
 49
-43.18
 49
0.0
 49
-41.275
 53
7.5
 43
4.9999997388
 44
-6.0843839193
 45
44.9523283138
 46
71.6825100568
 79
6
 49
0.0
 49
-20.828
 49
0.0
 49
-34.798
 49
0.0
 49
-13.335
 53
327.5
 43
-26.2420002612
 44
-6.0843839193
 45
79.0992370241
 46
0.1437184679
 79
6
 49
0.0
 49
-12.7
 49
0.0
 49
-45.72
 49
0.0
 49
-59.69
 53
317.5
 43
-26.2420002612
 44
-6.0843839193
 45
76.3556452472
 46
22.2929323257
 79
6
 49
0.0
 49
-6.35
 49
0.0
 49
-29.972
 49
0.0
 49
-34.29
 47
0.0175069435101327
 98
1
 10
4489.880392140185
 20
6122.291206711325
1001
GradientColor1ACI
1070
5
1001
GradientColor2ACI
1070
2
1001
ACAD
1010
0.0
1020
0.0
1030
0.0
  0
HATCH
  5
113
330
17
100
AcDbEntity
  8
im2-1$0$Слой1
370
-3
100
AcDbHatch
 10
0.0
 20
0.0
 30
0.0
210
0.0
220
0.0
230
1.0
  2
AR-SAND
 70
0
 71
0
 91
1
 92
7
 72
1
 73
1
 93
2
 10
92.57767129742388
 20
249.71616070193886
 42
1.0
 10
93.34588236873333
 20
249.71616070193886
 42
1.0
 97
0
 75
1
 76
1
 52
0.0
 41
1.0
 77
0
 78
4
 53
37.5
 43
9.9999994776
 44
-11.0843836581
 45
-1.600031296
 46
48.9413237329
 79
6
 49
0.0
 49
-38.608
 49
0.0
 49
-43.18
 49
0.0
 49
-41.275
 53
7.5
 43
9.9999994776
 44
-11.0843836581
 45
44.9523283138
 46
71.6825100568
 79
6
 49
0.0
 49
-20.828
 49
0.0
 49
-34.798
 49
0.0
 49
-13.335
 53
327.5
 43
-21.2420005224
 44
-11.0843836581
 45
79.0992370241
 46
0.1437184679
 79
6
 49
0.0
 49
-12.7
 49
0.0
 49
-45.72
 49
0.0
 49
-59.69
 53
317.5
 43
-21.2420005224
 44
-11.0843836581
 45
76.3556452472
 46
22.2929323257
 79
6
 49
0.0
 49
-6.35
 49
0.0
 49
-29.972
 49
0.0
 49
-34.29
 47
0.0175069435101327
 98
1
 10
4494.880391878999
 20
6117.29120697251
1001
GradientColor1ACI
1070
5
1001
GradientColor2ACI
1070
2
1001
ACAD
1010
0.0
1020
0.0
1030
0.0
  0
HATCH
  5
114
330
17
100
AcDbEntity
  8
im2-1$0$Слой1
370
-3
100
AcDbHatch
 10
0.0
 20
0.0
 30
0.0
210
0.0
220
0.0
230
1.0
  2
AR-SAND
 70
0
 71
0
 91
1
 92
7
 72
1
 73
1
 93
2
 10
87.57767155860984
 20
254.7161604407529
 42
1.0
 10
88.34588262991929
 20
254.7161604407529
 42
1.0
 97
0
 75
1
 76
1
 52
0.0
 41
1.0
 77
0
 78
4
 53
37.5
 43
4.9999997388
 44
-6.0843839193
 45
-1.600031296
 46
48.9413237329
 79
6
 49
0.0
 49
-38.608
 49
0.0
 49
-43.18
 49
0.0
 49
-41.275
 53
7.5
 43
4.9999997388
 44
-6.0843839193
 45
44.9523283138
 46
71.6825100568
 79
6
 49
0.0
 49
-20.828
 49
0.0
 49
-34.798
 49
0.0
 49
-13.335
 53
327.5
 43
-26.2420002612
 44
-6.0843839193
 45
79.0992370241
 46
0.1437184679
 79
6
 49
0.0
 49
-12.7
 49
0.0
 49
-45.72
 49
0.0
 49
-59.69
 53
317.5
 43
-26.2420002612
 44
-6.0843839193
 45
76.3556452472
 46
22.2929323257
 79
6
 49
0.0
 49
-6.35
 49
0.0
 49
-29.972
 49
0.0
 49
-34.29
 47
0.0175069435101327
 98
1
 10
4489.880392140185
 20
6122.291206711325
1001
GradientColor1ACI
1070
5
1001
GradientColor2ACI
1070
2
1001
ACAD
1010
0.0
1020
0.0
1030
0.0
  0
HATCH
  5
115
330
17
100
AcDbEntity
  8
im2-1$0$Слой1
370
-3
100
AcDbHatch
 10
0.0
 20
0.0
 30
0.0
210
0.0
220
0.0
230
1.0
  2
AR-SAND
 70
0
 71
0
 91
1
 92
7
 72
1
 73
1
 93
2
 10
92.57767129742388
 20
249.71616070193886
 42
1.0
 10
93.34588236873333
 20
249.71616070193886
 42
1.0
 97
0
 75
1
 76
1
 52
0.0
 41
1.0
 77
0
 78
4
 53
37.5
 43
9.9999994776
 44
-11.0843836581
 45
-1.600031296
 46
48.9413237329
 79
6
 49
0.0
 49
-38.608
 49
0.0
 49
-43.18
 49
0.0
 49
-41.275
 53
7.5
 43
9.9999994776
 44
-11.0843836581
 45
44.9523283138
 46
71.6825100568
 79
6
 49
0.0
 49
-20.828
 49
0.0
 49
-34.798
 49
0.0
 49
-13.335
 53
327.5
 43
-21.2420005224
 44
-11.0843836581
 45
79.0992370241
 46
0.1437184679
 79
6
 49
0.0
 49
-12.7
 49
0.0
 49
-45.72
 49
0.0
 49
-59.69
 53
317.5
 43
-21.2420005224
 44
-11.0843836581
 45
76.3556452472
 46
22.2929323257
 79
6
 49
0.0
 49
-6.35
 49
0.0
 49
-29.972
 49
0.0
 49
-34.29
 47
0.0175069435101327
 98
1
 10
4494.880391878999
 20
6117.29120697251
1001
GradientColor1ACI
1070
5
1001
GradientColor2ACI
1070
2
1001
ACAD
1010
0.0
1020
0.0
1030
0.0
  0
HATCH
  5
116
330
17
100
AcDbEntity
  8
im2-1$0$Слой1
370
-3
100
AcDbHatch
 10
0.0
 20
0.0
 30
0.0
210
0.0
220
0.0
230
1.0
  2
AR-SAND
 70
0
 71
0
 91
1
 92
7
 72
1
 73
1
 93
2
 10
83.7534104387214
 20
260.4888524179314
 42
1.0
 10
84.52162151003267
 20
260.4888524179314
 42
1.0
 97
0
 75
1
 76
1
 52
0.0
 41
1.0
 77
0
 78
4
 53
37.5
 43
1.1757386189
 44
-0.3116919421
 45
-1.600031296
 46
48.9413237329
 79
6
 49
0.0
 49
-38.608
 49
0.0
 49
-43.18
 49
0.0
 49
-41.275
 53
7.5
 43
1.1757386189
 44
-0.3116919421
 45
44.9523283138
 46
71.6825100568
 79
6
 49
0.0
 49
-20.828
 49
0.0
 49
-34.798
 49
0.0
 49
-13.335
 53
327.5
 43
-30.0662613811
 44
-0.3116919421
 45
79.0992370241
 46
0.1437184679
 79
6
 49
0.0
 49
-12.7
 49
0.0
 49
-45.72
 49
0.0
 49
-59.69
 53
317.5
 43
-30.0662613811
 44
-0.3116919421
 45
76.3556452472
 46
22.2929323257
 79
6
 49
0.0
 49
-6.35
 49
0.0
 49
-29.972
 49
0.0
 49
-34.29
 47
0.0175069435101327
 98
1
 10
4486.056131020297
 20
6128.063898688504
1001
GradientColor1ACI
1070
5
1001
GradientColor2ACI
1070
2
1001
ACAD
1010
0.0
1020
0.0
1030
0.0
  0
HATCH
  5
117
330
17
100
AcDbEntity
  8
im2-1$0$Слой1
370
-3
100
AcDbHatch
 10
0.0
 20
0.0
 30
0.0
210
0.0
220
0.0
230
1.0
  2
AR-SAND
 70
0
 71
0
 91
1
 92
7
 72
1
 73
1
 93
2
 10
81.01038018703457
 20
260.6525623510015
 42
1.0
 10
81.77859125834584
 20
260.6525623510015
 42
1.0
 97
0
 75
1
 76
1
 52
0.0
 41
1.0
 77
0
 78
4
 53
37.5
 43
-1.5672916328
 44
-0.1479820091
 45
-1.600031296
 46
48.9413237329
 79
6
 49
0.0
 49
-38.608
 49
0.0
 49
-43.18
 49
0.0
 49
-41.275
 53
7.5
 43
-1.5672916328
 44
-0.1479820091
 45
44.9523283138
 46
71.6825100568
 79
6
 49
0.0
 49
-20.828
 49
0.0
 49
-34.798
 49
0.0
 49
-13.335
 53
327.5
 43
-32.8092916328
 44
-0.1479820091
 45
79.0992370241
 46
0.1437184679
 79
6
 49
0.0
 49
-12.7
 49
0.0
 49
-45.72
 49
0.0
 49
-59.69
 53
317.5
 43
-32.8092916328
 44
-0.1479820091
 45
76.3556452472
 46
22.2929323257
 79
6
 49
0.0
 49
-6.35
 49
0.0
 49
-29.972
 49
0.0
 49
-34.29
 47
0.0175069435101327
 98
1
 10
4483.313100768611
 20
6128.227608621574
1001
GradientColor1ACI
1070
5
1001
GradientColor2ACI
1070
2
1001
ACAD
1010
0.0
1020
0.0
1030
0.0
  0
HATCH
  5
118
330
17
100
AcDbEntity
  8
im2-1$0$Слой1
370
-3
100
AcDbHatch
 10
0.0
 20
0.0
 30
0.0
210
0.0
220
0.0
230
1.0
  2
AR-SAND
 70
0
 71
0
 91
1
 92
7
 72
1
 73
1
 93
2
 10
82.20990403428914
 20
260.56668699168495
 42
1.0
 10
82.97811510560041
 20
260.56668699168495
 42
1.0
 97
0
 75
1
 76
1
 52
0.0
 41
1.0
 77
0
 78
4
 53
37.5
 43
-0.3677677855
 44
-0.2338573684
 45
-1.600031296
 46
48.9413237329
 79
6
 49
0.0
 49
-38.608
 49
0.0
 49
-43.18
 49
0.0
 49
-41.275
 53
7.5
 43
-0.3677677855
 44
-0.2338573684
 45
44.9523283138
 46
71.6825100568
 79
6
 49
0.0
 49
-20.828
 49
0.0
 49
-34.798
 49
0.0
 49
-13.335
 53
327.5
 43
-31.6097677855
 44
-0.2338573684
 45
79.0992370241
 46
0.1437184679
 79
6
 49
0.0
 49
-12.7
 49
0.0
 49
-45.72
 49
0.0
 49
-59.69
 53
317.5
 43
-31.6097677855
 44
-0.2338573684
 45
76.3556452472
 46
22.2929323257
 79
6
 49
0.0
 49
-6.35
 49
0.0
 49
-29.972
 49
0.0
 49
-34.29
 47
0.0175069435101327
 98
1
 10
4484.512624615865
 20
6128.141733262258
1001
GradientColor1ACI
1070
5
1001
GradientColor2ACI
1070
2
1001
ACAD
1010
0.0
1020
0.0
1030
0.0
  0
HATCH
  5
119
330
17
100
AcDbEntity
  8
im2-1$0$Слой1
370
-3
100
AcDbHatch
 10
0.0
 20
0.0
 30
0.0
210
0.0
220
0.0
230
1.0
  2
AR-SAND
 70
0
 71
0
 91
1
 92
7
 72
1
 73
1
 93
2
 10
82.3727553707231
 20
260.637445695098
 42
1.0
 10
83.14096644203437
 20
260.637445695098
 42
1.0
 97
0
 75
1
 76
1
 52
0.0
 41
1.0
 77
0
 78
4
 53
37.5
 43
-0.2049164491
 44
-0.163098665
 45
-1.600031296
 46
48.9413237329
 79
6
 49
0.0
 49
-38.608
 49
0.0
 49
-43.18
 49
0.0
 49
-41.275
 53
7.5
 43
-0.2049164491
 44
-0.163098665
 45
44.9523283138
 46
71.6825100568
 79
6
 49
0.0
 49
-20.828
 49
0.0
 49
-34.798
 49
0.0
 49
-13.335
 53
327.5
 43
-31.4469164491
 44
-0.163098665
 45
79.0992370241
 46
0.1437184679
 79
6
 49
0.0
 49
-12.7
 49
0.0
 49
-45.72
 49
0.0
 49
-59.69
 53
317.5
 43
-31.4469164491
 44
-0.163098665
 45
76.3556452472
 46
22.2929323257
 79
6
 49
0.0
 49
-6.35
 49
0.0
 49
-29.972
 49
0.0
 49
-34.29
 47
0.0175069435101327
 98
1
 10
4484.675475952299
 20
6128.21249196567
1001
GradientColor1ACI
1070
5
1001
GradientColor2ACI
1070
2
1001
ACAD
1010
0.0
1020
0.0
1030
0.0
  0
HATCH
  5
11A
330
17
100
AcDbEntity
  8
im2-1$0$Слой1
370
-3
100
AcDbHatch
 10
0.0
 20
0.0
 30
0.0
210
0.0
220
0.0
230
1.0
  2
AR-SAND
 70
0
 71
0
 91
1
 92
7
 72
1
 73
1
 93
2
 10
82.37983134486967
 20
260.637445695098
 42
1.0
 10
83.14804241618003
 20
260.637445695098
 42
1.0
 97
0
 75
1
 76
1
 52
0.0
 41
1.0
 77
0
 78
4
 53
37.5
 43
-0.1978404749
 44
-0.163098665
 45
-1.600031296
 46
48.9413237329
 79
6
 49
0.0
 49
-38.608
 49
0.0
 49
-43.18
 49
0.0
 49
-41.275
 53
7.5
 43
-0.1978404749
 44
-0.163098665
 45
44.9523283138
 46
71.6825100568
 79
6
 49
0.0
 49
-20.828
 49
0.0
 49
-34.798
 49
0.0
 49
-13.335
 53
327.5
 43
-31.4398404749
 44
-0.163098665
 45
79.0992370241
 46
0.1437184679
 79
6
 49
0.0
 49
-12.7
 49
0.0
 49
-45.72
 49
0.0
 49
-59.69
 53
317.5
 43
-31.4398404749
 44
-0.163098665
 45
76.3556452472
 46
22.2929323257
 79
6
 49
0.0
 49
-6.35
 49
0.0
 49
-29.972
 49
0.0
 49
-34.29
 47
0.0175069435101327
 98
1
 10
4484.682551926446
 20
6128.21249196567
1001
GradientColor1ACI
1070
5
1001
GradientColor2ACI
1070
2
1001
ACAD
1010
0.0
1020
0.0
1030
0.0
  0
HATCH
  5
11B
330
17
100
AcDbEntity
  8
im2-1$0$Слой1
370
-3
100
AcDbHatch
 10
0.0
 20
0.0
 30
0.0
210
0.0
220
0.0
230
1.0
  2
AR-SAND
 70
0
 71
0
 91
1
 92
7
 72
1
 73
1
 93
2
 10
83.46283550660064
 20
260.7400560630949
 42
1.0
 10
84.23104657791191
 20
260.7400560630949
 42
1.0
 97
0
 75
1
 76
1
 52
0.0
 41
1.0
 77
0
 78
4
 53
37.5
 43
0.8851636868
 44
-0.060488297
 45
-1.600031296
 46
48.9413237329
 79
6
 49
0.0
 49
-38.608
 49
0.0
 49
-43.18
 49
0.0
 49
-41.275
 53
7.5
 43
0.8851636868
 44
-0.060488297
 45
44.9523283138
 46
71.6825100568
 79
6
 49
0.0
 49
-20.828
 49
0.0
 49
-34.798
 49
0.0
 49
-13.335
 53
327.5
 43
-30.3568363132
 44
-0.060488297
 45
79.0992370241
 46
0.1437184679
 79
6
 49
0.0
 49
-12.7
 49
0.0
 49
-45.72
 49
0.0
 49
-59.69
 53
317.5
 43
-30.3568363132
 44
-0.060488297
 45
76.3556452472
 46
22.2929323257
 79
6
 49
0.0
 49
-6.35
 49
0.0
 49
-29.972
 49
0.0
 49
-34.29
 47
0.0175069435101327
 98
1
 10
4485.765556088176
 20
6128.315102333667
1001
GradientColor1ACI
1070
5
1001
GradientColor2ACI
1070
2
1001
ACAD
1010
0.0
1020
0.0
1030
0.0
  0
HATCH
  5
11C
330
17
100
AcDbEntity
  8
im2-1$0$Слой1
370
-3
100
AcDbHatch
 10
0.0
 20
0.0
 30
0.0
210
0.0
220
0.0
230
1.0
  2
AR-SAND
 70
0
 71
0
 91
1
 92
7
 72
1
 73
1
 93
2
 10
83.27194972541383
 20
260.8638735460172
 42
1.0
 10
84.0401607967242
 20
260.8638735460172
 42
1.0
 97
0
 75
1
 76
1
 52
0.0
 41
1.0
 77
0
 78
4
 53
37.5
 43
0.6942779056
 44
0.0633291859
 45
-1.600031296
 46
48.9413237329
 79
6
 49
0.0
 49
-38.608
 49
0.0
 49
-43.18
 49
0.0
 49
-41.275
 53
7.5
 43
0.6942779056
 44
0.0633291859
 45
44.9523283138
 46
71.6825100568
 79
6
 49
0.0
 49
-20.828
 49
0.0
 49
-34.798
 49
0.0
 49
-13.335
 53
327.5
 43
-30.5477220944
 44
0.0633291859
 45
79.0992370241
 46
0.1437184679
 79
6
 49
0.0
 49
-12.7
 49
0.0
 49
-45.72
 49
0.0
 49
-59.69
 53
317.5
 43
-30.5477220944
 44
0.0633291859
 45
76.3556452472
 46
22.2929323257
 79
6
 49
0.0
 49
-6.35
 49
0.0
 49
-29.972
 49
0.0
 49
-34.29
 47
0.0175069435101327
 98
1
 10
4485.574670306989
 20
6128.438919816589
1001
GradientColor1ACI
1070
5
1001
GradientColor2ACI
1070
2
1001
ACAD
1010
0.0
1020
0.0
1030
0.0
  0
HATCH
  5
11D
330
17
100
AcDbEntity
  8
im2-1$0$Слой1
370
-3
100
AcDbHatch
 10
0.0
 20
0.0
 30
0.0
210
0.0
220
0.0
230
1.0
  2
AR-SAND
 70
0
 71
0
 91
1
 92
7
 72
1
 73
1
 93
2
 10
83.11291748937037
 20
260.8984683218996
 42
1.0
 10
83.88112856068165
 20
260.8984683218996
 42
1.0
 97
0
 75
1
 76
1
 52
0.0
 41
1.0
 77
0
 78
4
 53
37.5
 43
0.5352456696
 44
0.0979239618
 45
-1.600031296
 46
48.9413237329
 79
6
 49
0.0
 49
-38.608
 49
0.0
 49
-43.18
 49
0.0
 49
-41.275
 53
7.5
 43
0.5352456696
 44
0.0979239618
 45
44.9523283138
 46
71.6825100568
 79
6
 49
0.0
 49
-20.828
 49
0.0
 49
-34.798
 49
0.0
 49
-13.335
 53
327.5
 43
-30.7067543304
 44
0.0979239618
 45
79.0992370241
 46
0.1437184679
 79
6
 49
0.0
 49
-12.7
 49
0.0
 49
-45.72
 49
0.0
 49
-59.69
 53
317.5
 43
-30.7067543304
 44
0.0979239618
 45
76.3556452472
 46
22.2929323257
 79
6
 49
0.0
 49
-6.35
 49
0.0
 49
-29.972
 49
0.0
 49
-34.29
 47
0.0175069435101327
 98
1
 10
4485.415638070946
 20
6128.473514592471
1001
GradientColor1ACI
1070
5
1001
GradientColor2ACI
1070
2
1001
ACAD
1010
0.0
1020
0.0
1030
0.0
  0
HATCH
  5
11E
330
17
100
AcDbEntity
  8
im2-1$0$Слой1
370
-3
100
AcDbHatch
 10
0.0
 20
0.0
 30
0.0
210
0.0
220
0.0
230
1.0
  2
AR-SAND
 70
0
 71
0
 91
1
 92
7
 72
1
 73
1
 93
2
 10
83.11291748937037
 20
260.8984683218996
 42
1.0
 10
83.88112856068165
 20
260.8984683218996
 42
1.0
 97
0
 75
1
 76
1
 52
0.0
 41
1.0
 77
0
 78
4
 53
37.5
 43
0.5352456696
 44
0.0979239618
 45
-1.600031296
 46
48.9413237329
 79
6
 49
0.0
 49
-38.608
 49
0.0
 49
-43.18
 49
0.0
 49
-41.275
 53
7.5
 43
0.5352456696
 44
0.0979239618
 45
44.9523283138
 46
71.6825100568
 79
6
 49
0.0
 49
-20.828
 49
0.0
 49
-34.798
 49
0.0
 49
-13.335
 53
327.5
 43
-30.7067543304
 44
0.0979239618
 45
79.0992370241
 46
0.1437184679
 79
6
 49
0.0
 49
-12.7
 49
0.0
 49
-45.72
 49
0.0
 49
-59.69
 53
317.5
 43
-30.7067543304
 44
0.0979239618
 45
76.3556452472
 46
22.2929323257
 79
6
 49
0.0
 49
-6.35
 49
0.0
 49
-29.972
 49
0.0
 49
-34.29
 47
0.0175069435101327
 98
1
 10
4485.415638070946
 20
6128.473514592471
1001
GradientColor1ACI
1070
5
1001
GradientColor2ACI
1070
2
1001
ACAD
1010
0.0
1020
0.0
1030
0.0
  0
HATCH
  5
11F
330
17
100
AcDbEntity
  8
im2-1$0$Слой1
370
-3
100
AcDbHatch
 10
0.0
 20
0.0
 30
0.0
210
0.0
220
0.0
230
1.0
  2
AR-SAND
 70
0
 71
0
 91
1
 92
7
 72
1
 73
1
 93
2
 10
83.11291748937037
 20
260.8984683218996
 42
1.0
 10
83.88112856068165
 20
260.8984683218996
 42
1.0
 97
0
 75
1
 76
1
 52
0.0
 41
1.0
 77
0
 78
4
 53
37.5
 43
0.5352456696
 44
0.0979239618
 45
-1.600031296
 46
48.9413237329
 79
6
 49
0.0
 49
-38.608
 49
0.0
 49
-43.18
 49
0.0
 49
-41.275
 53
7.5
 43
0.5352456696
 44
0.0979239618
 45
44.9523283138
 46
71.6825100568
 79
6
 49
0.0
 49
-20.828
 49
0.0
 49
-34.798
 49
0.0
 49
-13.335
 53
327.5
 43
-30.7067543304
 44
0.0979239618
 45
79.0992370241
 46
0.1437184679
 79
6
 49
0.0
 49
-12.7
 49
0.0
 49
-45.72
 49
0.0
 49
-59.69
 53
317.5
 43
-30.7067543304
 44
0.0979239618
 45
76.3556452472
 46
22.2929323257
 79
6
 49
0.0
 49
-6.35
 49
0.0
 49
-29.972
 49
0.0
 49
-34.29
 47
0.0175069435101327
 98
1
 10
4485.415638070946
 20
6128.473514592471
1001
GradientColor1ACI
1070
5
1001
GradientColor2ACI
1070
2
1001
ACAD
1010
0.0
1020
0.0
1030
0.0
  0
HATCH
  5
120
330
17
100
AcDbEntity
  8
im2-1$0$Слой1
370
-3
100
AcDbHatch
 10
0.0
 20
0.0
 30
0.0
210
0.0
220
0.0
230
1.0
  2
AR-SAND
 70
0
 71
0
 91
1
 92
7
 72
1
 73
1
 93
2
 10
83.11291748937037
 20
260.8984683218996
 42
1.0
 10
83.88112856068165
 20
260.8984683218996
 42
1.0
 97
0
 75
1
 76
1
 52
0.0
 41
1.0
 77
0
 78
4
 53
37.5
 43
0.5352456696
 44
0.0979239618
 45
-1.600031296
 46
48.9413237329
 79
6
 49
0.0
 49
-38.608
 49
0.0
 49
-43.18
 49
0.0
 49
-41.275
 53
7.5
 43
0.5352456696
 44
0.0979239618
 45
44.9523283138
 46
71.6825100568
 79
6
 49
0.0
 49
-20.828
 49
0.0
 49
-34.798
 49
0.0
 49
-13.335
 53
327.5
 43
-30.7067543304
 44
0.0979239618
 45
79.0992370241
 46
0.1437184679
 79
6
 49
0.0
 49
-12.7
 49
0.0
 49
-45.72
 49
0.0
 49
-59.69
 53
317.5
 43
-30.7067543304
 44
0.0979239618
 45
76.3556452472
 46
22.2929323257
 79
6
 49
0.0
 49
-6.35
 49
0.0
 49
-29.972
 49
0.0
 49
-34.29
 47
0.0175069435101327
 98
1
 10
4485.415638070946
 20
6128.473514592471
1001
GradientColor1ACI
1070
5
1001
GradientColor2ACI
1070
2
1001
ACAD
1010
0.0
1020
0.0
1030
0.0
  0
HATCH
  5
121
330
17
100
AcDbEntity
  8
im2-1$0$Слой1
370
-3
100
AcDbHatch
 10
0.0
 20
0.0
 30
0.0
210
0.0
220
0.0
230
1.0
  2
AR-SAND
 70
0
 71
0
 91
1
 92
7
 72
1
 73
1
 93
2
 10
83.11291748937037
 20
260.8984683218996
 42
1.0
 10
83.88112856068165
 20
260.8984683218996
 42
1.0
 97
0
 75
1
 76
1
 52
0.0
 41
1.0
 77
0
 78
4
 53
37.5
 43
0.5352456696
 44
0.0979239618
 45
-1.600031296
 46
48.9413237329
 79
6
 49
0.0
 49
-38.608
 49
0.0
 49
-43.18
 49
0.0
 49
-41.275
 53
7.5
 43
0.5352456696
 44
0.0979239618
 45
44.9523283138
 46
71.6825100568
 79
6
 49
0.0
 49
-20.828
 49
0.0
 49
-34.798
 49
0.0
 49
-13.335
 53
327.5
 43
-30.7067543304
 44
0.0979239618
 45
79.0992370241
 46
0.1437184679
 79
6
 49
0.0
 49
-12.7
 49
0.0
 49
-45.72
 49
0.0
 49
-59.69
 53
317.5
 43
-30.7067543304
 44
0.0979239618
 45
76.3556452472
 46
22.2929323257
 79
6
 49
0.0
 49
-6.35
 49
0.0
 49
-29.972
 49
0.0
 49
-34.29
 47
0.0175069435101327
 98
1
 10
4485.415638070946
 20
6128.473514592471
1001
GradientColor1ACI
1070
5
1001
GradientColor2ACI
1070
2
1001
ACAD
1010
0.0
1020
0.0
1030
0.0
  0
HATCH
  5
122
330
17
100
AcDbEntity
  8
im2-1$0$Слой1
370
-3
100
AcDbHatch
 10
0.0
 20
0.0
 30
0.0
210
0.0
220
0.0
230
1.0
  2
AR-SAND
 70
0
 71
0
 91
1
 92
7
 72
1
 73
1
 93
2
 10
82.90013081116103
 20
260.9602465584512
 42
1.0
 10
83.6683418824723
 20
260.9602465584512
 42
1.0
 97
0
 75
1
 76
1
 52
0.0
 41
1.0
 77
0
 78
4
 53
37.5
 43
0.3224589914
 44
0.1597021984
 45
-1.600031296
 46
48.9413237329
 79
6
 49
0.0
 49
-38.608
 49
0.0
 49
-43.18
 49
0.0
 49
-41.275
 53
7.5
 43
0.3224589914
 44
0.1597021984
 45
44.9523283138
 46
71.6825100568
 79
6
 49
0.0
 49
-20.828
 49
0.0
 49
-34.798
 49
0.0
 49
-13.335
 53
327.5
 43
-30.9195410086
 44
0.1597021984
 45
79.0992370241
 46
0.1437184679
 79
6
 49
0.0
 49
-12.7
 49
0.0
 49
-45.72
 49
0.0
 49
-59.69
 53
317.5
 43
-30.9195410086
 44
0.1597021984
 45
76.3556452472
 46
22.2929323257
 79
6
 49
0.0
 49
-6.35
 49
0.0
 49
-29.972
 49
0.0
 49
-34.29
 47
0.0175069435101327
 98
1
 10
4485.202851392737
 20
6128.535292829023
1001
GradientColor1ACI
1070
5
1001
GradientColor2ACI
1070
2
1001
ACAD
1010
0.0
1020
0.0
1030
0.0
  0
HATCH
  5
123
330
17
100
AcDbEntity
  8
im2-1$0$Слой1
370
-3
100
AcDbHatch
 10
0.0
 20
0.0
 30
0.0
210
0.0
220
0.0
230
1.0
  2
AR-SAND
 70
0
 71
0
 91
1
 92
7
 72
1
 73
1
 93
2
 10
82.90013081116103
 20
260.9602465584512
 42
1.0
 10
83.6683418824723
 20
260.9602465584512
 42
1.0
 97
0
 75
1
 76
1
 52
0.0
 41
1.0
 77
0
 78
4
 53
37.5
 43
0.3224589914
 44
0.1597021984
 45
-1.600031296
 46
48.9413237329
 79
6
 49
0.0
 49
-38.608
 49
0.0
 49
-43.18
 49
0.0
 49
-41.275
 53
7.5
 43
0.3224589914
 44
0.1597021984
 45
44.9523283138
 46
71.6825100568
 79
6
 49
0.0
 49
-20.828
 49
0.0
 49
-34.798
 49
0.0
 49
-13.335
 53
327.5
 43
-30.9195410086
 44
0.1597021984
 45
79.0992370241
 46
0.1437184679
 79
6
 49
0.0
 49
-12.7
 49
0.0
 49
-45.72
 49
0.0
 49
-59.69
 53
317.5
 43
-30.9195410086
 44
0.1597021984
 45
76.3556452472
 46
22.2929323257
 79
6
 49
0.0
 49
-6.35
 49
0.0
 49
-29.972
 49
0.0
 49
-34.29
 47
0.0175069435101327
 98
1
 10
4485.202851392737
 20
6128.535292829023
1001
GradientColor1ACI
1070
5
1001
GradientColor2ACI
1070
2
1001
ACAD
1010
0.0
1020
0.0
1030
0.0
  0
HATCH
  5
124
330
17
100
AcDbEntity
  8
im2-1$0$Слой1
370
-3
100
AcDbHatch
 10
0.0
 20
0.0
 30
0.0
210
0.0
220
0.0
230
1.0
  2
AR-SAND
 70
0
 71
0
 91
1
 92
7
 72
1
 73
1
 93
2
 10
102.90730862044802
 20
92.01943725627643
 42
1.0
 10
103.67551969175838
 20
92.01943725627643
 42
1.0
 97
0
 75
1
 76
1
 52
0.0
 41
1.0
 77
0
 78
4
 53
37.5
 43
5.3296375842
 44
1.214769696
 45
-1.600031296
 46
48.9413237329
 79
6
 49
0.0
 49
-38.608
 49
0.0
 49
-43.18
 49
0.0
 49
-41.275
 53
7.5
 43
5.3296375842
 44
1.214769696
 45
44.9523283138
 46
71.6825100568
 79
6
 49
0.0
 49
-20.828
 49
0.0
 49
-34.798
 49
0.0
 49
-13.335
 53
327.5
 43
-25.9123624158
 44
1.214769696
 45
79.0992370241
 46
0.1437184679
 79
6
 49
0.0
 49
-12.7
 49
0.0
 49
-45.72
 49
0.0
 49
-59.69
 53
317.5
 43
-25.9123624158
 44
1.214769696
 45
76.3556452472
 46
22.2929323257
 79
6
 49
0.0
 49
-6.35
 49
0.0
 49
-29.972
 49
0.0
 49
-34.29
 47
0.004465353844224
 98
1
 10
4505.277585022105
 20
5959.334887285051
1001
GradientColor1ACI
1070
5
1001
GradientColor2ACI
1070
2
1001
ACAD
1010
0.0
1020
0.0
1030
0.0
  0
HATCH
  5
125
330
17
100
AcDbEntity
  8
im2-1$0$Слой1
370
-3
100
AcDbHatch
 10
0.0
 20
0.0
 30
0.0
210
0.0
220
0.0
230
1.0
  2
AR-SAND
 70
0
 71
0
 91
1
 92
7
 72
1
 73
1
 93
2
 10
99.68003130784928
 20
92.64764297203965
 42
1.0
 10
100.44824237915964
 20
92.64764297203965
 42
1.0
 97
0
 75
1
 76
1
 52
0.0
 41
1.0
 77
0
 78
4
 53
37.5
 43
0.4805513164
 44
1.1683716418
 45
-1.600031296
 46
48.9413237329
 79
6
 49
0.0
 49
-38.608
 49
0.0
 49
-43.18
 49
0.0
 49
-41.275
 53
7.5
 43
0.4805513164
 44
1.1683716418
 45
44.9523283138
 46
71.6825100568
 79
6
 49
0.0
 49
-20.828
 49
0.0
 49
-34.798
 49
0.0
 49
-13.335
 53
327.5
 43
-30.7614486836
 44
1.1683716418
 45
79.0992370241
 46
0.1437184679
 79
6
 49
0.0
 49
-12.7
 49
0.0
 49
-45.72
 49
0.0
 49
-59.69
 53
317.5
 43
-30.7614486836
 44
1.1683716418
 45
76.3556452472
 46
22.2929323257
 79
6
 49
0.0
 49
-6.35
 49
0.0
 49
-29.972
 49
0.0
 49
-34.29
 47
0.0071679026380223
 98
1
 10
4502.1443748496
 20
5959.971074856394
1001
GradientColor1ACI
1070
5
1001
GradientColor2ACI
1070
2
1001
ACAD
1010
0.0
1020
0.0
1030
0.0
  0
HATCH
  5
126
330
17
100
AcDbEntity
  8
im2-1$0$Слой1
370
-3
100
AcDbHatch
 10
0.0
 20
0.0
 30
0.0
210
0.0
220
0.0
230
1.0
  2
AR-SAND
 70
0
 71
0
 91
1
 92
7
 72
1
 73
1
 93
2
 10
87.57767155860984
 20
254.7161604407529
 42
1.0
 10
88.34588262991929
 20
254.7161604407529
 42
1.0
 97
0
 75
1
 76
1
 52
0.0
 41
1.0
 77
0
 78
4
 53
37.5
 43
3.0993191259
 44
0.9111461845
 45
-1.600031296
 46
48.9413237329
 79
6
 49
0.0
 49
-38.608
 49
0.0
 49
-43.18
 49
0.0
 49
-41.275
 53
7.5
 43
3.0993191259
 44
0.9111461845
 45
44.9523283138
 46
71.6825100568
 79
6
 49
0.0
 49
-20.828
 49
0.0
 49
-34.798
 49
0.0
 49
-13.335
 53
327.5
 43
-28.1426808741
 44
0.9111461845
 45
79.0992370241
 46
0.1437184679
 79
6
 49
0.0
 49
-12.7
 49
0.0
 49
-45.72
 49
0.0
 49
-59.69
 53
317.5
 43
-28.1426808741
 44
0.9111461845
 45
76.3556452472
 46
22.2929323257
 79
6
 49
0.0
 49
-6.35
 49
0.0
 49
-29.972
 49
0.0
 49
-34.29
 47
0.004465353844224
 98
1
 10
4503.047266563778
 20
5959.031263773495
1001
GradientColor1ACI
1070
5
1001
GradientColor2ACI
1070
2
1001
ACAD
1010
0.0
1020
0.0
1030
0.0
  0
HATCH
  5
127
330
17
100
AcDbEntity
  8
im2-1$0$Слой1
370
-3
100
AcDbHatch
 10
0.0
 20
0.0
 30
0.0
210
0.0
220
0.0
230
1.0
  2
AR-SAND
 70
0
 71
0
 91
1
 92
7
 72
1
 73
1
 93
2
 10
82.57767181979489
 20
259.71616017956785
 42
1.0
 10
83.34588289110343
 20
259.71616017956785
 42
1.0
 97
0
 75
1
 76
1
 52
0.0
 41
1.0
 77
0
 78
4
 53
37.5
 43
-1.9006806129
 44
5.9111459233
 45
-1.600031296
 46
48.9413237329
 79
6
 49
0.0
 49
-38.608
 49
0.0
 49
-43.18
 49
0.0
 49
-41.275
 53
7.5
 43
-1.9006806129
 44
5.9111459233
 45
44.9523283138
 46
71.6825100568
 79
6
 49
0.0
 49
-20.828
 49
0.0
 49
-34.798
 49
0.0
 49
-13.335
 53
327.5
 43
-33.1426806129
 44
5.9111459233
 45
79.0992370241
 46
0.1437184679
 79
6
 49
0.0
 49
-12.7
 49
0.0
 49
-45.72
 49
0.0
 49
-59.69
 53
317.5
 43
-33.1426806129
 44
5.9111459233
 45
76.3556452472
 46
22.2929323257
 79
6
 49
0.0
 49
-6.35
 49
0.0
 49
-29.972
 49
0.0
 49
-34.29
 47
0.004465353844224
 98
1
 10
4498.047266824963
 20
5964.03126351231
1001
GradientColor1ACI
1070
5
1001
GradientColor2ACI
1070
2
1001
ACAD
1010
0.0
1020
0.0
1030
0.0
  0
HATCH
  5
128
330
17
100
AcDbEntity
  8
im2-1$0$Слой1
370
-3
100
AcDbHatch
 10
0.0
 20
0.0
 30
0.0
210
0.0
220
0.0
230
1.0
  2
AR-SAND
 70
0
 71
0
 91
1
 92
7
 72
1
 73
1
 93
2
 10
92.57767129742388
 20
249.71616070193886
 42
1.0
 10
93.34588236873333
 20
249.71616070193886
 42
1.0
 97
0
 75
1
 76
1
 52
0.0
 41
1.0
 77
0
 78
4
 53
37.5
 43
8.0993188647
 44
-4.0888535543
 45
-1.600031296
 46
48.9413237329
 79
6
 49
0.0
 49
-38.608
 49
0.0
 49
-43.18
 49
0.0
 49
-41.275
 53
7.5
 43
8.0993188647
 44
-4.0888535543
 45
44.9523283138
 46
71.6825100568
 79
6
 49
0.0
 49
-20.828
 49
0.0
 49
-34.798
 49
0.0
 49
-13.335
 53
327.5
 43
-23.1426811353
 44
-4.0888535543
 45
79.0992370241
 46
0.1437184679
 79
6
 49
0.0
 49
-12.7
 49
0.0
 49
-45.72
 49
0.0
 49
-59.69
 53
317.5
 43
-23.1426811353
 44
-4.0888535543
 45
76.3556452472
 46
22.2929323257
 79
6
 49
0.0
 49
-6.35
 49
0.0
 49
-29.972
 49
0.0
 49
-34.29
 47
0.004465353844224
 98
1
 10
4508.047266302592
 20
5954.03126403468
1001
GradientColor1ACI
1070
5
1001
GradientColor2ACI
1070
2
1001
ACAD
1010
0.0
1020
0.0
1030
0.0
  0
LWPOLYLINE
  5
129
330
17
100
AcDbEntity
  8
im2-1$0$Слой1
 62
7
370
30
100
AcDbPolyline
 90
4
 70
1
 10
159.83429376773438
 20
268.0000000000009
 10
205.07394848781678
 20
268.0000000000009
 10
205.07394848781678
 20
280.0
 10
159.83429376773438
 20
280.0
  0
LWPOLYLINE
  5
12A
330
17
100
AcDbEntity
  8
im2-1$0$Слой1
 62
7
370
30
100
AcDbPolyline
 90
4
 70
1
 10
159.83429376773438
 20
256.0
 10
205.07394848781678
 20
255.9999999999991
 10
205.07394848781678
 20
268.0
 10
159.83429376773438
 20
268.0000000000009
  0
LWPOLYLINE
  5
12B
330
17
100
AcDbEntity
  8
im2-1$0$Слой1
 62
7
370
30
100
AcDbPolyline
 90
4
 70
1
 10
159.83429376773438
 20
244.0000000000009
 10
205.07394848781678
 20
244.0000000000009
 10
205.07394848781678
 20
256.0
 10
159.83429376773438
 20
256.0
  0
LWPOLYLINE
  5
12C
330
17
100
AcDbEntity
  8
im2-1$0$Слой1
 62
7
370
30
100
AcDbPolyline
 90
4
 70
1
 10
159.83429376773438
 20
232.0000000000009
 10
205.07394848781678
 20
232.0000000000009
 10
205.07394848781678
 20
244.0000000000009
 10
159.83429376773438
 20
244.0000000000009
  0
MTEXT
  5
12D
330
17
100
AcDbEntity
  8
im2-1$0$Headers
370
-3
100
AcDbMText
 10
172.8977940354789
 20
278.98933224107986
 30
0.0
 40
1.8
 41
22.11671788146231
 46
0.0
 71
1
 72
5
  1
\pxqc;#2
  7
im2-1$0$GOST_A
101
Embedded Object
 70
1
 10
1.0
 20
0.0
 30
0.0
 11
172.8977940354789
 21
278.98933224107986
 31
0.0
 40
22.11671788146231
 41
0.0
 42
2.403431022158684
 43
1.802573266619013
 71
2
 72
1
 44
22.11671788146231
 45
15.0
 73
0
 74
0
 46
7.09591565987182
  0
MTEXT
  5
12E
330
17
100
AcDbEntity
  8
im2-1$0$Headers
370
-3
100
AcDbMText
 10
172.8977940354789
 20
266.98933224107986
 30
0.0
 40
1.8
 41
22.11671788146231
 46
0.0
 71
1
 72
5
  1
\pxqc;#3
  7
im2-1$0$GOST_A
101
Embedded Object
 70
1
 10
1.0
 20
0.0
 30
0.0
 11
172.8977940354789
 21
266.98933224107986
 31
0.0
 40
22.11671788146231
 41
0.0
 42
2.264474624731951
 43
1.802573266619013
 71
2
 72
1
 44
22.11671788146231
 45
15.0
 73
0
 74
0
 46
7.09591565987182
  0
MTEXT
  5
12F
330
17
100
AcDbEntity
  8
im2-1$0$Headers
370
-3
100
AcDbMText
 10
172.8977940354789
 20
254.98933224107986
 30
0.0
 40
1.8
 41
22.11671788146231
 46
0.0
 71
1
 72
5
  1
\pxqc;#4
  7
im2-1$0$GOST_A
101
Embedded Object
 70
1
 10
1.0
 20
0.0
 30
0.0
 11
172.8977940354789
 21
254.98933224107986
 31
0.0
 40
22.11671788146231
 41
0.0
 42
2.394424588992137
 43
1.802573266619013
 71
2
 72
1
 44
22.11671788146231
 45
15.0
 73
0
 74
0
 46
7.09591565987182
  0
MTEXT
  5
130
330
17
100
AcDbEntity
  8
im2-1$0$Слой1
370
-3
100
AcDbMText
 10
172.8977940354789
 20
242.98933224107986
 30
0.0
 40
1.8
 41
23.66570583164611
 46
0.0
 71
1
 72
5
  1
\pxqc;Двигатель вентилятора, 220 (230) В
  7
im2-1$0$GOST_A
101
Embedded Object
 70
1
 10
1.0
 20
0.0
 30
0.0
 11
172.8977940354789
 21
242.98933224107986
 31
0.0
 40
23.66570583164611
 41
0.0
 42
22.9072194424589
 43
5.059899928520371
 71
2
 72
1
 44
23.66570583164611
 45
15.0
 73
0
 74
0
 46
12.4168641678342
  0
LWPOLYLINE
  5
131
330
17
100
AcDbEntity
  8
im2-1$0$Слой1
 62
7
370
30
100
AcDbPolyline
 90
4
 70
1
 10
166.5870632222859
 20
196.14676886463621
 10
202.6927438407074
 20
196.14676886463621
 10
202.6927438407074
 20
221.47814171857317
 10
166.5870632222859
 20
221.47814171857317
  0
LWPOLYLINE
  5
132
330
17
100
AcDbEntity
  8
im2-1$0$Слой1
 62
7
370
30
100
AcDbPolyline
 90
4
 70
1
 10
176.13789626254402
 20
202.78813836126574
 10
181.13789600135988
 20
202.78813836126574
 10
181.13789600135988
 20
207.69102582442338
 10
176.13789626254402
 20
207.69102582442338
  0
LWPOLYLINE
  5
133
330
17
100
AcDbEntity
  8
im2-1$0$Слой1
 62
7
370
30
100
AcDbPolyline
 90
4
 70
1
 10
181.13789600135988
 20
202.78813836126574
 10
186.13789574017483
 20
202.78813836126574
 10
186.13789574017483
 20
207.69102582442338
 10
181.13789600135988
 20
207.69102582442338
  0
LINE
  5
134
330
17
100
AcDbEntity
  8
im2-1$0$Кабель
100
AcDbLine
 10
178.6378961319524
 20
202.78813836126574
 30
0.0
 11
178.6378961319524
 21
198.6248547359546
 31
0.0
  0
LINE
  5
135
330
17
100
AcDbEntity
  8
im2-1$0$Кабель
100
AcDbLine
 10
188.6378956095823
 20
202.78813836126574
 30
0.0
 11
188.6378956095823
 21
198.6248547359546
 31
0.0
  0
LINE
  5
136
330
17
100
AcDbEntity
  8
im2-1$0$Кабель
100
AcDbLine
 10
178.6378961319524
 20
198.6248547359546
 30
0.0
 11
188.6378956095823
 21
198.6248547359546
 31
0.0
  0
LINE
  5
137
330
17
100
AcDbEntity
  8
im2-1$0$Кабель
100
AcDbLine
 10
183.63789587076735
 20
198.6248547359546
 30
0.0
 11
183.63789587076735
 21
110.61494115198639
 31
0.0
  0
CIRCLE
  5
138
330
17
100
AcDbEntity
  8
im2-1$0$Слой1
100
AcDbCircle
 10
183.63789587076735
 20
107.73494115198173
 30
0.0
 40
2.880000000004656
  0
MTEXT
  5
139
330
17
100
AcDbEntity
  8
im2-1$0$Слой1
370
-3
100
AcDbMText
 10
181.65074883225589
 20
108.66816830445987
 30
0.0
 40
1.8
 41
3.629860294456364
 46
0.0
 71
1
 72
5
  1
\pxqc;1
  7
im2-1$0$GOST_A
101
Embedded Object
 70
1
 10
1.0
 20
0.0
 30
0.0
 11
181.65074883225589
 21
108.66816830445987
 31
0.0
 40
3.629860294456364
 41
0.0
 42
0.5133666904932096
 43
1.802573266619013
 71
2
 72
1
 44
3.629860294456364
 45
15.0
 73
0
 74
0
 46
1.76171668847644
  0
LINE
  5
13A
330
17
100
AcDbEntity
  8
im2-1$0$Кабель
100
AcDbLine
 10
183.63789587076735
 20
104.85494115197616
 30
0.0
 11
183.63789587076735
 21
89.32380610687323
 31
0.0
  0
LINE
  5
13B
330
17
100
AcDbEntity
  8
im2-1$0$Кабель
100
AcDbLine
 10
178.6378961319524
 20
89.32380610687323
 30
0.0
 11
188.6378956095823
 21
89.32380610687323
 31
0.0
  0
LINE
  5
13C
330
17
100
AcDbEntity
  8
im2-1$0$Кабель
100
AcDbLine
 10
178.6378961319524
 20
89.32380610687323
 30
0.0
 11
178.6378961319524
 21
85.1605224815612
 31
0.0
  0
LINE
  5
13D
330
17
100
AcDbEntity
  8
im2-1$0$Кабель
100
AcDbLine
 10
183.63789587076735
 20
89.32380610687323
 30
0.0
 11
183.63789587076735
 21
85.1605224815612
 31
0.0
  0
MTEXT
  5
13E
330
17
100
AcDbEntity
  8
im2-1$0$Слой1
370
-3
100
AcDbMText
 10
176.8787346828267
 20
85.57031289227507
 30
0.0
 40
1.3
 41
3.629860294456364
 46
0.0
 71
1
 72
5
  1
\pxqc;1
  7
im2-1$0$GOST_A
 11
1e-16
 21
1.0
 31
0.0
101
Embedded Object
 70
1
 10
1e-16
 20
1.0
 30
0.0
 11
176.8787346828267
 21
85.57031289227507
 31
0.0
 40
3.629860294456364
 41
0.0
 42
0.3707648320228735
 43
1.301858470335954
 71
2
 72
1
 44
3.629860294456364
 45
15.0
 73
0
 74
0
 46
1.76171668847644
  0
MTEXT
  5
13F
330
17
100
AcDbEntity
  8
im2-1$0$Слой1
370
-3
100
AcDbMText
 10
181.87873442164164
 20
85.57031289227507
 30
0.0
 40
1.3
 41
3.629860294456364
 46
0.0
 71
1
 72
5
  1
\pxqc;2
  7
im2-1$0$GOST_A
 11
1e-16
 21
1.0
 31
0.0
101
Embedded Object
 70
1
 10
1e-16
 20
1.0
 30
0.0
 11
181.87873442164164
 21
85.57031289227507
 31
0.0
 40
3.629860294456364
 41
0.0
 42
0.6569692637598286
 43
1.300929235167977
 71
2
 72
1
 44
3.629860294456364
 45
15.0
 73
0
 74
0
 46
1.76171668847644
  0
LWPOLYLINE
  5
140
330
17
100
AcDbEntity
  8
im2-1$0$Слой1
 62
7
370
30
100
AcDbPolyline
 90
4
 70
1
 10
176.13789626254402
 20
80.25763501840447
 10
181.13789600135988
 20
80.25763501840447
 10
181.13789600135988
 20
85.1605224815612
 10
176.13789626254402
 20
85.1605224815612
  0
LWPOLYLINE
  5
141
330
17
100
AcDbEntity
  8
im2-1$0$Слой1
 62
7
370
30
100
AcDbPolyline
 90
4
 70
1
 10
181.13789600135988
 20
80.25763501840447
 10
186.13789574017483
 20
80.25763501840447
 10
186.13789574017483
 20
85.1605224815612
 10
181.13789600135988
 20
85.1605224815612
  0
MTEXT
  5
142
330
17
100
AcDbEntity
  8
im2-1$0$Слой1
370
-3
100
AcDbMText
 10
174.2723785709477
 20
79.85311893891685
 30
0.0
 40
1.3
 41
3.629860294456364
 46
0.0
 71
1
 72
5
  1
\pxqc;ХТ7
  7
im2-1$0$GOST_A
 11
1e-16
 21
1.0
 31
0.0
101
Embedded Object
 70
1
 10
1e-16
 20
1.0
 30
0.0
 11
174.2723785709477
 21
79.85311893891685
 31
0.0
 40
3.629860294456364
 41
0.0
 42
2.417869907076483
 43
1.302787705503931
 71
2
 72
1
 44
3.629860294456364
 45
15.0
 73
0
 74
0
 46
1.76171668847644
  0
LWPOLYLINE
  5
143
330
17
100
AcDbEntity
  8
im2-1$0$Слой1
 62
7
370
30
100
AcDbPolyline
 90
4
 70
1
 10
186.13789574017483
 20
202.78813836126574
 10
191.13789547898978
 20
202.78813836126574
 10
191.13789547898978
 20
207.69102582442338
 10
186.13789574017483
 20
207.69102582442338
  0
CIRCLE
  5
144
330
17
100
AcDbEntity
  8
im2-1$0$Слой1
100
AcDbCircle
 10
183.8215842826403
 20
216.0353882394611
 30
0.0
 40
3.226957685553582
  0
MTEXT
  5
145
330
17
100
AcDbEntity
  8
im2-1$0$Слой1
370
-3
100
AcDbMText
 10
182.06117552071464
 20
216.98963423481655
 30
0.0
 40
1.8
 41
3.629860294456364
 46
0.0
 71
1
 72
5
  1
\pxqc;М
  7
im2-1$0$GOST_A
101
Embedded Object
 70
1
 10
1.0
 20
0.0
 30
0.0
 11
182.06117552071464
 21
216.98963423481655
 31
0.0
 40
3.629860294456364
 41
0.0
 42
1.157969978556111
 43
1.812866333095067
 71
2
 72
1
 44
3.629860294456364
 45
15.0
 73
0
 74
0
 46
1.76171668847644
  0
LINE
  5
146
330
17
100
AcDbEntity
  8
im2-1$0$Кабель
100
AcDbLine
 10
183.63789587076735
 20
202.78813836126574
 30
0.0
 11
183.63789587076735
 21
198.6248547359546
 31
0.0
  0
LINE
  5
147
330
17
100
AcDbEntity
  8
im2-1$0$Кабель
100
AcDbLine
 10
188.6378956095823
 20
89.32380610687323
 30
0.0
 11
188.6378956095823
 21
85.1605224815612
 31
0.0
  0
MTEXT
  5
148
330
17
100
AcDbEntity
  8
im2-1$0$Слой1
370
-3
100
AcDbMText
 10
186.8787341604566
 20
85.57031289227507
 30
0.0
 40
1.3
 41
3.629860294456364
 46
0.0
 71
1
 72
5
  1
\pxqc;3
  7
im2-1$0$GOST_A
 11
1e-16
 21
1.0
 31
0.0
101
Embedded Object
 70
1
 10
1e-16
 20
1.0
 30
0.0
 11
186.8787341604566
 21
85.57031289227507
 31
0.0
 40
3.629860294456364
 41
0.0
 42
0.5575411007862761
 43
1.300929235167977
 71
2
 72
1
 44
3.629860294456364
 45
15.0
 73
0
 74
0
 46
1.76171668847644
  0
MTEXT
  5
149
330
17
100
AcDbEntity
  8
im2-1$0$Слой1
370
-3
100
AcDbMText
 10
176.8787346828267
 20
199.03464514666848
 30
0.0
 40
1.3
 41
3.629860294456364
 46
0.0
 71
1
 72
5
  1
\pxqc;1
  7
im2-1$0$GOST_A
 11
1e-16
 21
1.0
 31
0.0
101
Embedded Object
 70
1
 10
1e-16
 20
1.0
 30
0.0
 11
176.8787346828267
 21
199.03464514666848
 31
0.0
 40
3.629860294456364
 41
0.0
 42
0.3707648320228735
 43
1.301858470335954
 71
2
 72
1
 44
3.629860294456364
 45
15.0
 73
0
 74
0
 46
1.76171668847644
  0
MTEXT
  5
14A
330
17
100
AcDbEntity
  8
im2-1$0$Слой1
370
-3
100
AcDbMText
 10
186.8787341604566
 20
199.03464514666848
 30
0.0
 40
1.3
 41
3.629860294456364
 46
0.0
 71
1
 72
5
  1
\pxqc;3
  7
im2-1$0$GOST_A
 11
1e-16
 21
1.0
 31
0.0
101
Embedded Object
 70
1
 10
1e-16
 20
1.0
 30
0.0
 11
186.8787341604566
 21
199.03464514666848
 31
0.0
 40
3.629860294456364
 41
0.0
 42
0.5575411007862761
 43
1.300929235167977
 71
2
 72
1
 44
3.629860294456364
 45
15.0
 73
0
 74
0
 46
1.76171668847644
  0
MTEXT
  5
14B
330
17
100
AcDbEntity
  8
im2-1$0$Слой1
370
-3
100
AcDbMText
 10
181.87873442164164
 20
199.03464514666848
 30
0.0
 40
1.3
 41
3.629860294456364
 46
0.0
 71
1
 72
5
  1
\pxqc;2
  7
im2-1$0$GOST_A
 11
1e-16
 21
1.0
 31
0.0
101
Embedded Object
 70
1
 10
1e-16
 20
1.0
 30
0.0
 11
181.87873442164164
 21
199.03464514666848
 31
0.0
 40
3.629860294456364
 41
0.0
 42
0.6569692637598286
 43
1.300929235167977
 71
2
 72
1
 44
3.629860294456364
 45
15.0
 73
0
 74
0
 46
1.76171668847644
  0
LWPOLYLINE
  5
14C
330
17
100
AcDbEntity
  8
im2-1$0$Слой1
 62
7
370
30
100
AcDbPolyline
 90
4
 70
1
 10
186.13789574017483
 20
80.25763501840447
 10
191.13789547898978
 20
80.25763501840447
 10
191.13789547898978
 20
85.1605224815612
 10
186.13789574017483
 20
85.1605224815612
  0
MTEXT
  5
14D
330
17
100
AcDbEntity
  8
im2-1$0$Слой1
370
-3
100
AcDbMText
 10
186.76423091899233
 20
83.71256930740401
 30
0.0
 40
1.8
 41
3.629860294456364
 46
0.0
 71
1
 72
5
  1
\pxqc;PE
  7
im2-1$0$GOST_A
101
Embedded Object
 70
1
 10
1.0
 20
0.0
 30
0.0
 11
186.76423091899233
 21
83.71256930740401
 31
0.0
 40
3.629860294456364
 41
0.0
 42
1.931236597569693
 43
1.801286633309506
 71
2
 72
1
 44
3.629860294456364
 45
15.0
 73
0
 74
0
 46
1.76171668847644
  0
MTEXT
  5
14E
330
17
100
AcDbEntity
  8
im2-1$0$Слой1
370
-3
100
AcDbMText
 10
186.76423091899233
 20
206.24307265026528
 30
0.0
 40
1.8
 41
3.629860294456364
 46
0.0
 71
1
 72
5
  1
\pxqc;PE
  7
im2-1$0$GOST_A
101
Embedded Object
 70
1
 10
1.0
 20
0.0
 30
0.0
 11
186.76423091899233
 21
206.24307265026528
 31
0.0
 40
3.629860294456364
 41
0.0
 42
1.931236597569693
 43
1.801286633309506
 71
2
 72
1
 44
3.629860294456364
 45
15.0
 73
0
 74
0
 46
1.76171668847644
  0
LINE
  5
14F
330
17
100
AcDbEntity
  8
im2-1$0$Кабель
100
AcDbLine
 10
188.6378956095823
 20
209.16420381142052
 30
0.0
 11
188.6378956095823
 21
207.69102582442338
 31
0.0
  0
LINE
  5
150
330
17
100
AcDbEntity
  8
im2-1$0$Кабель
100
AcDbLine
 10
187.13711745194541
 20
209.16420381142052
 30
0.0
 11
190.1386737672192
 21
209.16420381142052
 31
0.0
  0
LINE
  5
151
330
17
100
AcDbEntity
  8
im2-1$0$Кабель
100
AcDbLine
 10
187.68054162094268
 20
209.71606728205188
 30
0.0
 11
189.59524959822102
 21
209.71606728205188
 31
0.0
  0
LINE
  5
152
330
17
100
AcDbEntity
  8
im2-1$0$Кабель
100
AcDbLine
 10
188.1342960301281
 20
210.26793075268506
 30
0.0
 11
189.14149518903469
 21
210.26793075268506
 31
0.0
  0
MTEXT
  5
153
330
17
100
AcDbEntity
  8
im2-1$0$XT7
370
-3
100
AcDbMText
 10
176.76423144136334
 20
83.71256930740401
 30
0.0
 40
1.8
 41
3.629860294456364
 46
0.0
 71
1
 72
5
  1
\pxqc;#1
  7
im2-1$0$GOST_A
101
Embedded Object
 70
1
 10
1.0
 20
0.0
 30
0.0
 11
176.76423144136334
 21
83.71256930740401
 31
0.0
 40
3.629860294456364
 41
0.0
 42
2.007147962830593
 43
1.802573266619013
 71
2
 72
1
 44
3.629860294456364
 45
15.0
 73
0
 74
0
 46
1.76171668847644
  0
MTEXT
  5
154
330
17
100
AcDbEntity
  8
im2-1$0$XT7
370
-3
100
AcDbMText
 10
181.76423118017829
 20
83.71256930740401
 30
0.0
 40
1.8
 41
3.629860294456364
 46
0.0
 71
1
 72
5
  1
\pxqc;#2
  7
im2-1$0$GOST_A
101
Embedded Object
 70
1
 10
1.0
 20
0.0
 30
0.0
 11
181.76423118017829
 21
83.71256930740401
 31
0.0
 40
3.629860294456364
 41
0.0
 42
2.403431022158684
 43
1.802573266619013
 71
2
 72
1
 44
3.629860294456364
 45
15.0
 73
0
 74
0
 46
1.76171668847644
  0
ENDSEC
  0
SECTION
  2
OBJECTS
  0
DICTIONARY
  5
A
330
0
100
AcDbDictionary
281
1
  3
ACAD_COLOR
350
B
  3
ACAD_GROUP
350
C
  3
ACAD_LAYOUT
350
D
  3
ACAD_MATERIAL
350
E
  3
ACAD_MLEADERSTYLE
350
F
  3
ACAD_MLINESTYLE
350
10
  3
ACAD_PLOTSETTINGS
350
11
  3
ACAD_PLOTSTYLENAME
350
12
  3
ACAD_SCALELIST
350
14
  3
ACAD_TABLESTYLE
350
15
  3
ACAD_VISUALSTYLE
350
16
  3
EZDXF_META
350
2D
  0
DICTIONARY
  5
B
330
A
100
AcDbDictionary
281
1
  0
DICTIONARY
  5
C
330
A
100
AcDbDictionary
281
1
  0
DICTIONARY
  5
D
330
A
100
AcDbDictionary
281
1
  3
Model
350
1A
  3
Layout1
350
1E
  0
DICTIONARY
  5
E
330
A
100
AcDbDictionary
281
1
  3
ByBlock
350
1F
  3
ByLayer
350
20
  3
Global
350
21
  0
DICTIONARY
  5
F
330
A
100
AcDbDictionary
281
1
  3
Standard
350
2C
  0
DICTIONARY
  5
10
330
A
100
AcDbDictionary
281
1
  3
Standard
350
22
  0
DICTIONARY
  5
11
330
A
100
AcDbDictionary
281
1
  0
ACDBDICTIONARYWDFLT
  5
12
330
A
100
AcDbDictionary
281
1
  3
Normal
350
13
100
AcDbDictionaryWithDefault
340
13
  0
ACDBPLACEHOLDER
  5
13
330
12
  0
DICTIONARY
  5
14
330
A
100
AcDbDictionary
281
1
  0
DICTIONARY
  5
15
330
A
100
AcDbDictionary
281
1
  0
DICTIONARY
  5
16
330
A
100
AcDbDictionary
281
1
  3
2dWireframe
350
5A
  3
Basic
350
5B
  3
Brighten
350
5C
  3
ColorChange
350
5D
  3
Conceptual
350
5E
  3
Dim
350
5F
  3
EdgeColorOff
350
60
  3
Facepattern
350
61
  3
Flat
350
62
  3
FlatWithEdges
350
63
  3
Gouraud
350
64
  3
GouraudWithEdges
350
65
  3
Hidden
350
66
  3
JitterOff
350
67
  3
Linepattern
350
68
  3
Modeling
350
69
  3
OverhangOff
350
6A
  3
Realistic
350
6B
  3
Shaded
350
6C
  3
Shaded with edges
350
6D
  3
Shades of Gray
350
6E
  3
Sketchy
350
6F
  3
Thicken
350
70
  3
Wireframe
350
71
  3
X-Ray
350
72
  0
LAYOUT
  5
1A
330
D
100
AcDbPlotSettings
  1

  4
A3
  6

 40
7.5
 41
20.0
 42
7.5
 43
20.0
 44
420.0
 45
297.0
 46
0.0
 47
0.0
 48
0.0
 49
0.0
140
0.0
141
0.0
142
1.0
143
1.0
 70
1024
 72
1
 73
0
 74
5
  7

 75
16
 76
0
 77
2
 78
300
147
1.0
148
0.0
149
0.0
100
AcDbLayout
  1
Model
 70
1
 71
0
 10
0.0
 20
0.0
 11
420.0
 21
297.0
 12
0.0
 22
0.0
 32
0.0
 14
1e+20
 24
1e+20
 34
1e+20
 15
-1e+20
 25
-1e+20
 35
-1e+20
146
0.0
 13
0.0
 23
0.0
 33
0.0
 16
1.0
 26
0.0
 36
0.0
 17
0.0
 27
1.0
 37
0.0
 76
1
330
17
  0
LAYOUT
  5
1E
330
D
100
AcDbPlotSettings
  1

  4
A3
  6

 40
7.5
 41
20.0
 42
7.5
 43
20.0
 44
420.0
 45
297.0
 46
0.0
 47
0.0
 48
0.0
 49
0.0
140
0.0
141
0.0
142
1.0
143
1.0
 70
0
 72
1
 73
0
 74
5
  7

 75
16
 76
0
 77
2
 78
300
147
1.0
148
0.0
149
0.0
100
AcDbLayout
  1
Layout1
 70
1
 71
1
 10
0.0
 20
0.0
 11
420.0
 21
297.0
 12
0.0
 22
0.0
 32
0.0
 14
1e+20
 24
1e+20
 34
1e+20
 15
-1e+20
 25
-1e+20
 35
-1e+20
146
0.0
 13
0.0
 23
0.0
 33
0.0
 16
1.0
 26
0.0
 36
0.0
 17
0.0
 27
1.0
 37
0.0
 76
1
330
1B
  0
MATERIAL
  5
1F
102
{ACAD_REACTORS
330
E
102
}
330
E
100
AcDbMaterial
  1
ByBlock
  2

 70
0
 40
1.0
 71
1
 41
1.0
 91
-1023410177
 42
1.0
 72
1
  3

 73
1
 74
1
 75
1
 44
0.5
 73
0
 45
1.0
 46
1.0
 77
1
  4

 78
1
 79
1
170
1
 48
1.0
171
1
  6

172
1
173
1
174
1
140
1.0
141
1.0
175
1
  7

176
1
177
1
178
1
143
1.0
179
1
  8

270
1
271
1
272
1
145
1.0
146
1.0
273
1
  9

274
1
275
1
276
1
 42
1.0
 72
1
  3

 73
1
 74
1
 75
1
 94
63
  0
MATERIAL
  5
20
102
{ACAD_REACTORS
330
E
102
}
330
E
100
AcDbMaterial
  1
ByLayer
  2

 70
0
 40
1.0
 71
1
 41
1.0
 91
-1023410177
 42
1.0
 72
1
  3

 73
1
 74
1
 75
1
 44
0.5
 73
0
 45
1.0
 46
1.0
 77
1
  4

 78
1
 79
1
170
1
 48
1.0
171
1
  6

172
1
173
1
174
1
140
1.0
141
1.0
175
1
  7

176
1
177
1
178
1
143
1.0
179
1
  8

270
1
271
1
272
1
145
1.0
146
1.0
273
1
  9

274
1
275
1
276
1
 42
1.0
 72
1
  3

 73
1
 74
1
 75
1
 94
63
  0
MATERIAL
  5
21
102
{ACAD_REACTORS
330
E
102
}
330
E
100
AcDbMaterial
  1
Global
  2

 70
0
 40
1.0
 71
1
 41
1.0
 91
-1023410177
 42
1.0
 72
1
  3

 73
1
 74
1
 75
1
 44
0.5
 73
0
 45
1.0
 46
1.0
 77
1
  4

 78
1
 79
1
170
1
 48
1.0
171
1
  6

172
1
173
1
174
1
140
1.0
141
1.0
175
1
  7

176
1
177
1
178
1
143
1.0
179
1
  8

270
1
271
1
272
1
145
1.0
146
1.0
273
1
  9

274
1
275
1
276
1
 42
1.0
 72
1
  3

 73
1
 74
1
 75
1
 94
63
  0
MLINESTYLE
  5
22
102
{ACAD_REACTORS
330
10
102
}
330
10
100
AcDbMlineStyle
  2
Standard
 70
0
  3

 62
256
 51
90.0
 52
90.0
 71
2
 49
0.5
 62
256
  6
BYLAYER
 49
-0.5
 62
256
  6
BYLAYER
  0
MLEADERSTYLE
  5
2C
102
{ACAD_REACTORS
330
F
102
}
330
F
100
AcDbMLeaderStyle
179
2
170
2
171
1
172
0
 90
2
 40
0.0
 41
0.0
173
1
 91
-1056964608
 92
-2
290
1
 42
2.0
291
1
 43
8.0
  3
Standard
 44
4.0
300

342
29
174
1
175
1
176
0
178
1
 93
-1056964608
 45
4.0
292
0
297
0
 46
4.0
 94
-1056964608
 47
1.0
 49
1.0
140
1.0
294
1
141
0.0
177
0
142
1.0
295
0
296
0
143
3.75
271
0
272
9
273
9
  0
DICTIONARY
  5
2D
330
A
100
AcDbDictionary
280
1
281
1
  3
CREATED_BY_EZDXF
350
2E
  3
WRITTEN_BY_EZDXF
350
157
  0
DICTIONARYVAR
  5
2E
330
2D
100
DictionaryVariables
280
0
  1
1.4.4 @ 2026-09-10T07:10:04.277372+00:00
  0
VISUALSTYLE
  5
5A
102
{ACAD_REACTORS
330
16
102
}
330
16
100
AcDbVisualStyle
  2
2dWireframe
 70
4
177
3
291
0
 70
58
 90
2
176
1
 90
2
176
1
 90
0
176
1
 90
0
176
1
 40
0.6
176
1
 40
30.0
176
1
 62
7
420
16777215
176
1
 90
1
176
1
 90
4
176
1
 62
7
176
1
 62
257
176
1
 90
1
176
1
 90
1
176
1
 40
1.0
176
1
 90
8
176
1
 62
7
176
1
 40
1.0
176
1
 90
1
176
1
 90
6
176
1
 90
2
176
1
 62
7
176
1
 90
5
176
1
 90
0
176
1
 90
0
176
1
290
0
176
1
 90
1
176
1
 40
0.0
176
1
 90
0
176
1
290
1
176
1
290
1
176
1
290
0
176
1
290
0
176
1
290
0
176
1
290
0
176
1
290
0
176
1
290
0
176
1
290
0
176
1
 90
50
176
1
 40
0.0
176
1
 40
1.0
176
1
 90
0
176
1
 62
18
420
0
176
1
 90
50
176
1
 90
3
176
1
 62
5
420
255
176
1
290
0
176
1
 90
50
176
1
 90
50
176
1
 90
50
176
1
290
0
176
1
 90
50
176
1
 62
256
176
0
 40
1.0
176
0
 90
2
176
1
  1
strokes_ogs.tif
176
1
290
0
176
1
 40
1.0
176
1
 40
1.0
176
1
  0
VISUALSTYLE
  5
5B
102
{ACAD_REACTORS
330
16
102
}
330
16
100
AcDbVisualStyle
  2
Basic
 70
7
177
3
291
1
 70
58
 90
2
176
1
 90
2
176
1
 90
0
176
1
 90
1
176
1
 40
0.6
176
1
 40
30.0
176
1
 62
7
420
16777215
176
1
 90
1
176
1
 90
4
176
1
 62
7
176
1
 62
257
176
1
 90
1
176
1
 90
1
176
1
 40
1.0
176
1
 90
8
176
1
 62
7
176
1
 40
1.0
176
1
 90
1
176
1
 90
6
176
1
 90
2
176
1
 62
7
176
1
 90
5
176
1
 90
0
176
1
 90
0
176
1
290
0
176
1
 90
1
176
1
 40
0.0
176
1
 90
0
176
1
290
0
176
1
290
1
176
1
290
1
176
1
290
0
176
1
290
0
176
1
290
0
176
1
290
0
176
1
290
0
176
1
290
0
176
1
 90
50
176
1
 40
0.0
176
1
 40
1.0
176
1
 90
0
176
1
 62
18
420
0
176
1
 90
50
176
1
 90
3
176
1
 62
5
420
255
176
1
290
0
176
1
 90
50
176
1
 90
50
176
1
 90
50
176
1
290
0
176
1
 90
50
176
1
 62
256
176
0
 40
1.0
176
0
 90
2
176
1
  1
strokes_ogs.tif
176
1
290
0
176
1
 40
1.0
176
1
 40
1.0
176
1
  0
VISUALSTYLE
  5
5C
102
{ACAD_REACTORS
330
16
102
}
330
16
100
AcDbVisualStyle
  2
Brighten
 70
12
177
3
291
1
 70
58
 90
2
176
1
 90
2
176
1
 90
0
176
1
 90
2
176
1
 40
0.6
176
1
 40
30.0
176
1
 62
7
420
16777215
176
1
 90
1
176
1
 90
4
176
1
 62
7
176
1
 62
257
176
1
 90
1
176
1
 90
1
176
1
 40
1.0
176
1
 90
8
176
1
 62
7
176
1
 40
1.0
176
1
 90
1
176
1
 90
6
176
1
 90
2
176
1
 62
7
176
1
 90
5
176
1
 90
0
176
1
 90
0
176
1
290
0
176
1
 90
1
176
1
 40
0.0
176
1
 90
0
176
1
290
0
176
1
290
1
176
1
290
1
176
1
290
0
176
1
290
0
176
1
290
0
176
1
290
0
176
1
290
0
176
1
290
0
176
1
 90
50
176
1
 40
0.0
176
1
 40
1.0
176
1
 90
0
176
1
 62
18
420
0
176
1
 90
50
176
1
 90
3
176
1
 62
5
420
255
176
1
290
0
176
1
 90
50
176
1
 90
50
176
1
 90
50
176
1
290
0
176
1
 90
50
176
1
 62
256
176
0
 40
1.0
176
0
 90
2
176
1
  1
strokes_ogs.tif
176
1
290
0
176
1
 40
1.0
176
1
 40
1.0
176
1
  0
VISUALSTYLE
  5
5D
102
{ACAD_REACTORS
330
16
102
}
330
16
100
AcDbVisualStyle
  2
ColorChange
 70
16
177
3
291
1
 70
58
 90
2
176
1
 90
2
176
1
 90
0
176
1
 90
2
176
1
 40
0.6
176
1
 40
30.0
176
1
 62
7
420
16777215
176
1
 90
1
176
1
 90
4
176
1
 62
7
176
1
 62
257
176
1
 90
1
176
1
 90
1
176
1
 40
1.0
176
1
 90
8
176
1
 62
7
176
1
 40
1.0
176
1
 90
1
176
1
 90
6
176
1
 90
2
176
1
 62
7
176
1
 90
5
176
1
 90
0
176
1
 90
0
176
1
290
0
176
1
 90
1
176
1
 40
0.0
176
1
 90
0
176
1
290
0
176
1
290
1
176
1
290
1
176
1
290
0
176
1
290
0
176
1
290
0
176
1
290
0
176
1
290
0
176
1
290
0
176
1
 90
50
176
1
 40
0.0
176
1
 40
1.0
176
1
 90
0
176
1
 62
18
420
0
176
1
 90
50
176
1
 90
3
176
1
 62
5
420
255
176
1
290
0
176
1
 90
50
176
1
 90
50
176
1
 90
50
176
1
290
0
176
1
 90
50
176
1
 62
256
176
0
 40
1.0
176
0
 90
2
176
1
  1
strokes_ogs.tif
176
1
290
0
176
1
 40
1.0
176
1
 40
1.0
176
1
  0
VISUALSTYLE
  5
5E
102
{ACAD_REACTORS
330
16
102
}
330
16
100
AcDbVisualStyle
  2
Conceptual
 70
9
177
3
291
0
 70
58
 90
2
176
1
 90
2
176
1
 90
0
176
1
 90
3
176
1
 40
0.6
176
1
 40
30.0
176
1
 62
7
420
16777215
176
1
 90
1
176
1
 90
4
176
1
 62
7
176
1
 62
257
176
1
 90
1
176
1
 90
1
176
1
 40
1.0
176
1
 90
8
176
1
 62
7
176
1
 40
1.0
176
1
 90
1
176
1
 90
6
176
1
 90
2
176
1
 62
7
176
1
 90
5
176
1
 90
0
176
1
 90
0
176
1
290
0
176
1
 90
1
176
1
 40
0.0
176
1
 90
0
176
1
290
0
176
1
290
1
176
1
290
1
176
1
290
0
176
1
290
0
176
1
290
0
176
1
290
0
176
1
290
0
176
1
290
0
176
1
 90
50
176
1
 40
0.0
176
1
 40
1.0
176
1
 90
0
176
1
 62
18
420
0
176
1
 90
50
176
1
 90
3
176
1
 62
5
420
255
176
1
290
0
176
1
 90
50
176
1
 90
50
176
1
 90
50
176
1
290
0
176
1
 90
50
176
1
 62
256
176
0
 40
1.0
176
0
 90
2
176
1
  1
strokes_ogs.tif
176
1
290
0
176
1
 40
1.0
176
1
 40
1.0
176
1
  0
VISUALSTYLE
  5
5F
102
{ACAD_REACTORS
330
16
102
}
330
16
100
AcDbVisualStyle
  2
Dim
 70
11
177
3
291
1
 70
58
 90
2
176
1
 90
2
176
1
 90
0
176
1
 90
2
176
1
 40
0.6
176
1
 40
30.0
176
1
 62
7
420
16777215
176
1
 90
1
176
1
 90
4
176
1
 62
7
176
1
 62
257
176
1
 90
1
176
1
 90
1
176
1
 40
1.0
176
1
 90
8
176
1
 62
7
176
1
 40
1.0
176
1
 90
1
176
1
 90
6
176
1
 90
2
176
1
 62
7
176
1
 90
5
176
1
 90
0
176
1
 90
0
176
1
290
0
176
1
 90
1
176
1
 40
0.0
176
1
 90
0
176
1
290
0
176
1
290
1
176
1
290
1
176
1
290
0
176
1
290
0
176
1
290
0
176
1
290
0
176
1
290
0
176
1
290
0
176
1
 90
50
176
1
 40
0.0
176
1
 40
1.0
176
1
 90
0
176
1
 62
18
420
0
176
1
 90
50
176
1
 90
3
176
1
 62
5
420
255
176
1
290
0
176
1
 90
50
176
1
 90
50
176
1
 90
50
176
1
290
0
176
1
 90
50
176
1
 62
256
176
0
 40
1.0
176
0
 90
2
176
1
  1
strokes_ogs.tif
176
1
290
0
176
1
 40
1.0
176
1
 40
1.0
176
1
  0
VISUALSTYLE
  5
60
102
{ACAD_REACTORS
330
16
102
}
330
16
100
AcDbVisualStyle
  2
EdgeColorOff
 70
22
177
3
291
1
 70
58
 90
2
176
1
 90
2
176
1
 90
0
176
1
 90
2
176
1
 40
0.6
176
1
 40
30.0
176
1
 62
7
420
16777215
176
1
 90
1
176
1
 90
4
176
1
 62
7
176
1
 62
257
176
1
 90
1
176
1
 90
1
176
1
 40
1.0
176
1
 90
8
176
1
 62
7
176
1
 40
1.0
176
1
 90
1
176
1
 90
6
176
1
 90
2
176
1
 62
7
176
1
 90
5
176
1
 90
0
176
1
 90
0
176
1
290
0
176
1
 90
1
176
1
 40
0.0
176
1
 90
0
176
1
290
0
176
1
290
1
176
1
290
1
176
1
290
0
176
1
290
0
176
1
290
0
176
1
290
0
176
1
290
0
176
1
290
0
176
1
 90
50
176
1
 40
0.0
176
1
 40
1.0
176
1
 90
0
176
1
 62
18
420
0
176
1
 90
50
176
1
 90
3
176
1
 62
5
420
255
176
1
290
0
176
1
 90
50
176
1
 90
50
176
1
 90
50
176
1
290
0
176
1
 90
50
176
1
 62
256
176
0
 40
1.0
176
0
 90
2
176
1
  1
strokes_ogs.tif
176
1
290
0
176
1
 40
1.0
176
1
 40
1.0
176
1
  0
VISUALSTYLE
  5
61
102
{ACAD_REACTORS
330
16
102
}
330
16
100
AcDbVisualStyle
  2
Facepattern
 70
15
177
3
291
1
 70
58
 90
2
176
1
 90
2
176
1
 90
0
176
1
 90
2
176
1
 40
0.6
176
1
 40
30.0
176
1
 62
7
420
16777215
176
1
 90
1
176
1
 90
4
176
1
 62
7
176
1
 62
257
176
1
 90
1
176
1
 90
1
176
1
 40
1.0
176
1
 90
8
176
1
 62
7
176
1
 40
1.0
176
1
 90
1
176
1
 90
6
176
1
 90
2
176
1
 62
7
176
1
 90
5
176
1
 90
0
176
1
 90
0
176
1
290
0
176
1
 90
1
176
1
 40
0.0
176
1
 90
0
176
1
290
0
176
1
290
1
176
1
290
1
176
1
290
0
176
1
290
0
176
1
290
0
176
1
290
0
176
1
290
0
176
1
290
0
176
1
 90
50
176
1
 40
0.0
176
1
 40
1.0
176
1
 90
0
176
1
 62
18
420
0
176
1
 90
50
176
1
 90
3
176
1
 62
5
420
255
176
1
290
0
176
1
 90
50
176
1
 90
50
176
1
 90
50
176
1
290
0
176
1
 90
50
176
1
 62
256
176
0
 40
1.0
176
0
 90
2
176
1
  1
strokes_ogs.tif
176
1
290
0
176
1
 40
1.0
176
1
 40
1.0
176
1
  0
VISUALSTYLE
  5
62
102
{ACAD_REACTORS
330
16
102
}
330
16
100
AcDbVisualStyle
  2
Flat
 70
0
177
3
291
1
 70
58
 90
2
176
1
 90
2
176
1
 90
0
176
1
 90
2
176
1
 40
0.6
176
1
 40
30.0
176
1
 62
7
420
16777215
176
1
 90
1
176
1
 90
4
176
1
 62
7
176
1
 62
257
176
1
 90
1
176
1
 90
1
176
1
 40
1.0
176
1
 90
8
176
1
 62
7
176
1
 40
1.0
176
1
 90
1
176
1
 90
6
176
1
 90
2
176
1
 62
7
176
1
 90
5
176
1
 90
0
176
1
 90
0
176
1
290
0
176
1
 90
1
176
1
 40
0.0
176
1
 90
0
176
1
290
0
176
1
290
1
176
1
290
1
176
1
290
0
176
1
290
0
176
1
290
0
176
1
290
0
176
1
290
0
176
1
290
0
176
1
 90
50
176
1
 40
0.0
176
1
 40
1.0
176
1
 90
0
176
1
 62
18
420
0
176
1
 90
50
176
1
 90
3
176
1
 62
5
420
255
176
1
290
0
176
1
 90
50
176
1
 90
50
176
1
 90
50
176
1
290
0
176
1
 90
50
176
1
 62
256
176
0
 40
1.0
176
0
 90
2
176
1
  1
strokes_ogs.tif
176
1
290
0
176
1
 40
1.0
176
1
 40
1.0
176
1
  0
VISUALSTYLE
  5
63
102
{ACAD_REACTORS
330
16
102
}
330
16
100
AcDbVisualStyle
  2
FlatWithEdges
 70
1
177
3
291
1
 70
58
 90
2
176
1
 90
2
176
1
 90
0
176
1
 90
2
176
1
 40
0.6
176
1
 40
30.0
176
1
 62
7
420
16777215
176
1
 90
1
176
1
 90
4
176
1
 62
7
176
1
 62
257
176
1
 90
1
176
1
 90
1
176
1
 40
1.0
176
1
 90
8
176
1
 62
7
176
1
 40
1.0
176
1
 90
1
176
1
 90
6
176
1
 90
2
176
1
 62
7
176
1
 90
5
176
1
 90
0
176
1
 90
0
176
1
290
0
176
1
 90
1
176
1
 40
0.0
176
1
 90
0
176
1
290
0
176
1
290
1
176
1
290
1
176
1
290
0
176
1
290
0
176
1
290
0
176
1
290
0
176
1
290
0
176
1
290
0
176
1
 90
50
176
1
 40
0.0
176
1
 40
1.0
176
1
 90
0
176
1
 62
18
420
0
176
1
 90
50
176
1
 90
3
176
1
 62
5
420
255
176
1
290
0
176
1
 90
50
176
1
 90
50
176
1
 90
50
176
1
290
0
176
1
 90
50
176
1
 62
256
176
0
 40
1.0
176
0
 90
2
176
1
  1
strokes_ogs.tif
176
1
290
0
176
1
 40
1.0
176
1
 40
1.0
176
1
  0
VISUALSTYLE
  5
64
102
{ACAD_REACTORS
330
16
102
}
330
16
100
AcDbVisualStyle
  2
Gouraud
 70
2
177
3
291
1
 70
58
 90
2
176
1
 90
2
176
1
 90
0
176
1
 90
2
176
1
 40
0.6
176
1
 40
30.0
176
1
 62
7
420
16777215
176
1
 90
1
176
1
 90
4
176
1
 62
7
176
1
 62
257
176
1
 90
1
176
1
 90
1
176
1
 40
1.0
176
1
 90
8
176
1
 62
7
176
1
 40
1.0
176
1
 90
1
176
1
 90
6
176
1
 90
2
176
1
 62
7
176
1
 90
5
176
1
 90
0
176
1
 90
0
176
1
290
0
176
1
 90
1
176
1
 40
0.0
176
1
 90
0
176
1
290
0
176
1
290
1
176
1
290
1
176
1
290
0
176
1
290
0
176
1
290
0
176
1
290
0
176
1
290
0
176
1
290
0
176
1
 90
50
176
1
 40
0.0
176
1
 40
1.0
176
1
 90
0
176
1
 62
18
420
0
176
1
 90
50
176
1
 90
3
176
1
 62
5
420
255
176
1
290
0
176
1
 90
50
176
1
 90
50
176
1
 90
50
176
1
290
0
176
1
 90
50
176
1
 62
256
176
0
 40
1.0
176
0
 90
2
176
1
  1
strokes_ogs.tif
176
1
290
0
176
1
 40
1.0
176
1
 40
1.0
176
1
  0
VISUALSTYLE
  5
65
102
{ACAD_REACTORS
330
16
102
}
330
16
100
AcDbVisualStyle
  2
GouraudWithEdges
 70
3
177
3
291
1
 70
58
 90
2
176
1
 90
2
176
1
 90
0
176
1
 90
2
176
1
 40
0.6
176
1
 40
30.0
176
1
 62
7
420
16777215
176
1
 90
1
176
1
 90
4
176
1
 62
7
176
1
 62
257
176
1
 90
1
176
1
 90
1
176
1
 40
1.0
176
1
 90
8
176
1
 62
7
176
1
 40
1.0
176
1
 90
1
176
1
 90
6
176
1
 90
2
176
1
 62
7
176
1
 90
5
176
1
 90
0
176
1
 90
0
176
1
290
0
176
1
 90
1
176
1
 40
0.0
176
1
 90
0
176
1
290
0
176
1
290
1
176
1
290
1
176
1
290
0
176
1
290
0
176
1
290
0
176
1
290
0
176
1
290
0
176
1
290
0
176
1
 90
50
176
1
 40
0.0
176
1
 40
1.0
176
1
 90
0
176
1
 62
18
420
0
176
1
 90
50
176
1
 90
3
176
1
 62
5
420
255
176
1
290
0
176
1
 90
50
176
1
 90
50
176
1
 90
50
176
1
290
0
176
1
 90
50
176
1
 62
256
176
0
 40
1.0
176
0
 90
2
176
1
  1
strokes_ogs.tif
176
1
290
0
176
1
 40
1.0
176
1
 40
1.0
176
1
  0
VISUALSTYLE
  5
66
102
{ACAD_REACTORS
330
16
102
}
330
16
100
AcDbVisualStyle
  2
Hidden
 70
6
177
3
291
0
 70
58
 90
2
176
1
 90
2
176
1
 90
0
176
1
 90
1
176
1
 40
0.6
176
1
 40
30.0
176
1
 62
7
420
16777215
176
1
 90
1
176
1
 90
4
176
1
 62
7
176
1
 62
257
176
1
 90
1
176
1
 90
1
176
1
 40
1.0
176
1
 90
8
176
1
 62
7
176
1
 40
1.0
176
1
 90
1
176
1
 90
6
176
1
 90
2
176
1
 62
7
176
1
 90
5
176
1
 90
0
176
1
 90
0
176
1
290
0
176
1
 90
1
176
1
 40
0.0
176
1
 90
0
176
1
290
0
176
1
290
1
176
1
290
1
176
1
290
0
176
1
290
0
176
1
290
0
176
1
290
0
176
1
290
0
176
1
290
0
176
1
 90
50
176
1
 40
0.0
176
1
 40
1.0
176
1
 90
0
176
1
 62
18
420
0
176
1
 90
50
176
1
 90
3
176
1
 62
5
420
255
176
1
290
0
176
1
 90
50
176
1
 90
50
176
1
 90
50
176
1
290
0
176
1
 90
50
176
1
 62
256
176
0
 40
1.0
176
0
 90
2
176
1
  1
strokes_ogs.tif
176
1
290
0
176
1
 40
1.0
176
1
 40
1.0
176
1
  0
VISUALSTYLE
  5
67
102
{ACAD_REACTORS
330
16
102
}
330
16
100
AcDbVisualStyle
  2
JitterOff
 70
20
177
3
291
1
 70
58
 90
2
176
1
 90
2
176
1
 90
0
176
1
 90
2
176
1
 40
0.6
176
1
 40
30.0
176
1
 62
7
420
16777215
176
1
 90
1
176
1
 90
4
176
1
 62
7
176
1
 62
257
176
1
 90
1
176
1
 90
1
176
1
 40
1.0
176
1
 90
8
176
1
 62
7
176
1
 40
1.0
176
1
 90
1
176
1
 90
6
176
1
 90
2
176
1
 62
7
176
1
 90
5
176
1
 90
0
176
1
 90
0
176
1
290
0
176
1
 90
1
176
1
 40
0.0
176
1
 90
0
176
1
290
0
176
1
290
1
176
1
290
1
176
1
290
0
176
1
290
0
176
1
290
0
176
1
290
0
176
1
290
0
176
1
290
0
176
1
 90
50
176
1
 40
0.0
176
1
 40
1.0
176
1
 90
0
176
1
 62
18
420
0
176
1
 90
50
176
1
 90
3
176
1
 62
5
420
255
176
1
290
0
176
1
 90
50
176
1
 90
50
176
1
 90
50
176
1
290
0
176
1
 90
50
176
1
 62
256
176
0
 40
1.0
176
0
 90
2
176
1
  1
strokes_ogs.tif
176
1
290
0
176
1
 40
1.0
176
1
 40
1.0
176
1
  0
VISUALSTYLE
  5
68
102
{ACAD_REACTORS
330
16
102
}
330
16
100
AcDbVisualStyle
  2
Linepattern
 70
14
177
3
291
1
 70
58
 90
2
176
1
 90
2
176
1
 90
0
176
1
 90
2
176
1
 40
0.6
176
1
 40
30.0
176
1
 62
7
420
16777215
176
1
 90
1
176
1
 90
4
176
1
 62
7
176
1
 62
257
176
1
 90
1
176
1
 90
1
176
1
 40
1.0
176
1
 90
8
176
1
 62
7
176
1
 40
1.0
176
1
 90
1
176
1
 90
6
176
1
 90
2
176
1
 62
7
176
1
 90
5
176
1
 90
0
176
1
 90
0
176
1
290
0
176
1
 90
1
176
1
 40
0.0
176
1
 90
0
176
1
290
0
176
1
290
1
176
1
290
1
176
1
290
0
176
1
290
0
176
1
290
0
176
1
290
0
176
1
290
0
176
1
290
0
176
1
 90
50
176
1
 40
0.0
176
1
 40
1.0
176
1
 90
0
176
1
 62
18
420
0
176
1
 90
50
176
1
 90
3
176
1
 62
5
420
255
176
1
290
0
176
1
 90
50
176
1
 90
50
176
1
 90
50
176
1
290
0
176
1
 90
50
176
1
 62
256
176
0
 40
1.0
176
0
 90
2
176
1
  1
strokes_ogs.tif
176
1
290
0
176
1
 40
1.0
176
1
 40
1.0
176
1
  0
VISUALSTYLE
  5
69
102
{ACAD_REACTORS
330
16
102
}
330
16
100
AcDbVisualStyle
  2
Modeling
 70
10
177
3
291
0
 70
58
 90
2
176
1
 90
2
176
1
 90
0
176
1
 90
2
176
1
 40
0.6
176
1
 40
30.0
176
1
 62
7
420
16777215
176
1
 90
1
176
1
 90
4
176
1
 62
7
176
1
 62
257
176
1
 90
1
176
1
 90
1
176
1
 40
1.0
176
1
 90
8
176
1
 62
7
176
1
 40
1.0
176
1
 90
1
176
1
 90
6
176
1
 90
2
176
1
 62
7
176
1
 90
5
176
1
 90
0
176
1
 90
0
176
1
290
0
176
1
 90
1
176
1
 40
0.0
176
1
 90
0
176
1
290
0
176
1
290
1
176
1
290
1
176
1
290
0
176
1
290
0
176
1
290
0
176
1
290
0
176
1
290
0
176
1
290
0
176
1
 90
50
176
1
 40
0.0
176
1
 40
1.0
176
1
 90
0
176
1
 62
18
420
0
176
1
 90
50
176
1
 90
3
176
1
 62
5
420
255
176
1
290
0
176
1
 90
50
176
1
 90
50
176
1
 90
50
176
1
290
0
176
1
 90
50
176
1
 62
256
176
0
 40
1.0
176
0
 90
2
176
1
  1
strokes_ogs.tif
176
1
290
0
176
1
 40
1.0
176
1
 40
1.0
176
1
  0
VISUALSTYLE
  5
6A
102
{ACAD_REACTORS
330
16
102
}
330
16
100
AcDbVisualStyle
  2
OverhangOff
 70
21
177
3
291
1
 70
58
 90
2
176
1
 90
2
176
1
 90
0
176
1
 90
2
176
1
 40
0.6
176
1
 40
30.0
176
1
 62
7
420
16777215
176
1
 90
1
176
1
 90
4
176
1
 62
7
176
1
 62
257
176
1
 90
1
176
1
 90
1
176
1
 40
1.0
176
1
 90
8
176
1
 62
7
176
1
 40
1.0
176
1
 90
1
176
1
 90
6
176
1
 90
2
176
1
 62
7
176
1
 90
5
176
1
 90
0
176
1
 90
0
176
1
290
0
176
1
 90
1
176
1
 40
0.0
176
1
 90
0
176
1
290
0
176
1
290
1
176
1
290
1
176
1
290
0
176
1
290
0
176
1
290
0
176
1
290
0
176
1
290
0
176
1
290
0
176
1
 90
50
176
1
 40
0.0
176
1
 40
1.0
176
1
 90
0
176
1
 62
18
420
0
176
1
 90
50
176
1
 90
3
176
1
 62
5
420
255
176
1
290
0
176
1
 90
50
176
1
 90
50
176
1
 90
50
176
1
290
0
176
1
 90
50
176
1
 62
256
176
0
 40
1.0
176
0
 90
2
176
1
  1
strokes_ogs.tif
176
1
290
0
176
1
 40
1.0
176
1
 40
1.0
176
1
  0
VISUALSTYLE
  5
6B
102
{ACAD_REACTORS
330
16
102
}
330
16
100
AcDbVisualStyle
  2
Realistic
 70
8
177
3
291
0
 70
58
 90
2
176
1
 90
2
176
1
 90
0
176
1
 90
2
176
1
 40
0.6
176
1
 40
30.0
176
1
 62
7
420
16777215
176
1
 90
1
176
1
 90
4
176
1
 62
7
176
1
 62
257
176
1
 90
1
176
1
 90
1
176
1
 40
1.0
176
1
 90
8
176
1
 62
7
176
1
 40
1.0
176
1
 90
1
176
1
 90
6
176
1
 90
2
176
1
 62
7
176
1
 90
5
176
1
 90
0
176
1
 90
0
176
1
290
0
176
1
 90
1
176
1
 40
0.0
176
1
 90
0
176
1
290
0
176
1
290
1
176
1
290
1
176
1
290
0
176
1
290
0
176
1
290
0
176
1
290
0
176
1
290
0
176
1
290
0
176
1
 90
50
176
1
 40
0.0
176
1
 40
1.0
176
1
 90
0
176
1
 62
18
420
0
176
1
 90
50
176
1
 90
3
176
1
 62
5
420
255
176
1
290
0
176
1
 90
50
176
1
 90
50
176
1
 90
50
176
1
290
0
176
1
 90
50
176
1
 62
256
176
0
 40
1.0
176
0
 90
2
176
1
  1
strokes_ogs.tif
176
1
290
0
176
1
 40
1.0
176
1
 40
1.0
176
1
  0
VISUALSTYLE
  5
6C
102
{ACAD_REACTORS
330
16
102
}
330
16
100
AcDbVisualStyle
  2
Shaded
 70
27
177
3
291
0
 70
58
 90
2
176
1
 90
2
176
1
 90
0
176
1
 90
2
176
1
 40
0.6
176
1
 40
30.0
176
1
 62
7
420
16777215
176
1
 90
1
176
1
 90
4
176
1
 62
7
176
1
 62
257
176
1
 90
1
176
1
 90
1
176
1
 40
1.0
176
1
 90
8
176
1
 62
7
176
1
 40
1.0
176
1
 90
1
176
1
 90
6
176
1
 90
2
176
1
 62
7
176
1
 90
5
176
1
 90
0
176
1
 90
0
176
1
290
0
176
1
 90
1
176
1
 40
0.0
176
1
 90
0
176
1
290
0
176
1
290
1
176
1
290
1
176
1
290
0
176
1
290
0
176
1
290
0
176
1
290
0
176
1
290
0
176
1
290
0
176
1
 90
50
176
1
 40
0.0
176
1
 40
1.0
176
1
 90
0
176
1
 62
18
420
0
176
1
 90
50
176
1
 90
3
176
1
 62
5
420
255
176
1
290
0
176
1
 90
50
176
1
 90
50
176
1
 90
50
176
1
290
0
176
1
 90
50
176
1
 62
256
176
0
 40
1.0
176
0
 90
2
176
1
  1
strokes_ogs.tif
176
1
290
0
176
1
 40
1.0
176
1
 40
1.0
176
1
  0
VISUALSTYLE
  5
6D
102
{ACAD_REACTORS
330
16
102
}
330
16
100
AcDbVisualStyle
  2
Shaded with edges
 70
26
177
3
291
0
 70
58
 90
2
176
1
 90
2
176
1
 90
0
176
1
 90
2
176
1
 40
0.6
176
1
 40
30.0
176
1
 62
7
420
16777215
176
1
 90
1
176
1
 90
4
176
1
 62
7
176
1
 62
257
176
1
 90
1
176
1
 90
1
176
1
 40
1.0
176
1
 90
8
176
1
 62
7
176
1
 40
1.0
176
1
 90
1
176
1
 90
6
176
1
 90
2
176
1
 62
7
176
1
 90
5
176
1
 90
0
176
1
 90
0
176
1
290
0
176
1
 90
1
176
1
 40
0.0
176
1
 90
0
176
1
290
0
176
1
290
1
176
1
290
1
176
1
290
0
176
1
290
0
176
1
290
0
176
1
290
0
176
1
290
0
176
1
290
0
176
1
 90
50
176
1
 40
0.0
176
1
 40
1.0
176
1
 90
0
176
1
 62
18
420
0
176
1
 90
50
176
1
 90
3
176
1
 62
5
420
255
176
1
290
0
176
1
 90
50
176
1
 90
50
176
1
 90
50
176
1
290
0
176
1
 90
50
176
1
 62
256
176
0
 40
1.0
176
0
 90
2
176
1
  1
strokes_ogs.tif
176
1
290
0
176
1
 40
1.0
176
1
 40
1.0
176
1
  0
VISUALSTYLE
  5
6E
102
{ACAD_REACTORS
330
16
102
}
330
16
100
AcDbVisualStyle
  2
Shades of Gray
 70
23
177
3
291
0
 70
58
 90
2
176
1
 90
2
176
1
 90
0
176
1
 90
2
176
1
 40
0.6
176
1
 40
30.0
176
1
 62
7
420
16777215
176
1
 90
1
176
1
 90
4
176
1
 62
7
176
1
 62
257
176
1
 90
1
176
1
 90
1
176
1
 40
1.0
176
1
 90
8
176
1
 62
7
176
1
 40
1.0
176
1
 90
1
176
1
 90
6
176
1
 90
2
176
1
 62
7
176
1
 90
5
176
1
 90
0
176
1
 90
0
176
1
290
0
176
1
 90
1
176
1
 40
0.0
176
1
 90
0
176
1
290
0
176
1
290
1
176
1
290
1
176
1
290
0
176
1
290
0
176
1
290
0
176
1
290
0
176
1
290
0
176
1
290
0
176
1
 90
50
176
1
 40
0.0
176
1
 40
1.0
176
1
 90
0
176
1
 62
18
420
0
176
1
 90
50
176
1
 90
3
176
1
 62
5
420
255
176
1
290
0
176
1
 90
50
176
1
 90
50
176
1
 90
50
176
1
290
0
176
1
 90
50
176
1
 62
256
176
0
 40
1.0
176
0
 90
2
176
1
  1
strokes_ogs.tif
176
1
290
0
176
1
 40
1.0
176
1
 40
1.0
176
1
  0
VISUALSTYLE
  5
6F
102
{ACAD_REACTORS
330
16
102
}
330
16
100
AcDbVisualStyle
  2
Sketchy
 70
24
177
3
291
0
 70
58
 90
2
176
1
 90
2
176
1
 90
0
176
1
 90
1
176
1
 40
0.6
176
1
 40
30.0
176
1
 62
7
420
16777215
176
1
 90
1
176
1
 90
4
176
1
 62
7
176
1
 62
257
176
1
 90
1
176
1
 90
1
176
1
 40
1.0
176
1
 90
8
176
1
 62
7
176
1
 40
1.0
176
1
 90
1
176
1
 90
6
176
1
 90
2
176
1
 62
7
176
1
 90
5
176
1
 90
0
176
1
 90
0
176
1
290
0
176
1
 90
1
176
1
 40
0.0
176
1
 90
0
176
1
290
0
176
1
290
1
176
1
290
1
176
1
290
0
176
1
290
0
176
1
290
0
176
1
290
0
176
1
290
0
176
1
290
0
176
1
 90
50
176
1
 40
0.0
176
1
 40
1.0
176
1
 90
0
176
1
 62
18
420
0
176
1
 90
50
176
1
 90
3
176
1
 62
5
420
255
176
1
290
0
176
1
 90
50
176
1
 90
50
176
1
 90
50
176
1
290
0
176
1
 90
50
176
1
 62
256
176
0
 40
1.0
176
0
 90
2
176
1
  1
strokes_ogs.tif
176
1
290
0
176
1
 40
1.0
176
1
 40
1.0
176
1
  0
VISUALSTYLE
  5
70
102
{ACAD_REACTORS
330
16
102
}
330
16
100
AcDbVisualStyle
  2
Thicken
 70
13
177
3
291
1
 70
58
 90
2
176
1
 90
2
176
1
 90
0
176
1
 90
2
176
1
 40
0.6
176
1
 40
30.0
176
1
 62
7
420
16777215
176
1
 90
1
176
1
 90
4
176
1
 62
7
176
1
 62
257
176
1
 90
1
176
1
 90
1
176
1
 40
1.0
176
1
 90
8
176
1
 62
7
176
1
 40
1.0
176
1
 90
1
176
1
 90
6
176
1
 90
2
176
1
 62
7
176
1
 90
5
176
1
 90
0
176
1
 90
0
176
1
290
0
176
1
 90
1
176
1
 40
0.0
176
1
 90
0
176
1
290
0
176
1
290
1
176
1
290
1
176
1
290
0
176
1
290
0
176
1
290
0
176
1
290
0
176
1
290
0
176
1
290
0
176
1
 90
50
176
1
 40
0.0
176
1
 40
1.0
176
1
 90
0
176
1
 62
18
420
0
176
1
 90
50
176
1
 90
3
176
1
 62
5
420
255
176
1
290
0
176
1
 90
50
176
1
 90
50
176
1
 90
50
176
1
290
0
176
1
 90
50
176
1
 62
256
176
0
 40
1.0
176
0
 90
2
176
1
  1
strokes_ogs.tif
176
1
290
0
176
1
 40
1.0
176
1
 40
1.0
176
1
  0
VISUALSTYLE
  5
71
102
{ACAD_REACTORS
330
16
102
}
330
16
100
AcDbVisualStyle
  2
Wireframe
 70
5
177
3
291
0
 70
58
 90
2
176
1
 90
2
176
1
 90
0
176
1
 90
0
176
1
 40
0.6
176
1
 40
30.0
176
1
 62
7
420
16777215
176
1
 90
1
176
1
 90
4
176
1
 62
7
176
1
 62
257
176
1
 90
1
176
1
 90
1
176
1
 40
1.0
176
1
 90
8
176
1
 62
7
176
1
 40
1.0
176
1
 90
1
176
1
 90
6
176
1
 90
2
176
1
 62
7
176
1
 90
5
176
1
 90
0
176
1
 90
0
176
1
290
0
176
1
 90
1
176
1
 40
0.0
176
1
 90
0
176
1
290
0
176
1
290
1
176
1
290
1
176
1
290
0
176
1
290
0
176
1
290
0
176
1
290
0
176
1
290
0
176
1
290
0
176
1
 90
50
176
1
 40
0.0
176
1
 40
1.0
176
1
 90
0
176
1
 62
18
420
0
176
1
 90
50
176
1
 90
3
176
1
 62
5
420
255
176
1
290
0
176
1
 90
50
176
1
 90
50
176
1
 90
50
176
1
290
0
176
1
 90
50
176
1
 62
256
176
0
 40
1.0
176
0
 90
2
176
1
  1
strokes_ogs.tif
176
1
290
0
176
1
 40
1.0
176
1
 40
1.0
176
1
  0
VISUALSTYLE
  5
72
102
{ACAD_REACTORS
330
16
102
}
330
16
100
AcDbVisualStyle
  2
X-Ray
 70
25
177
3
291
0
 70
58
 90
2
176
1
 90
2
176
1
 90
0
176
1
 90
2
176
1
 40
0.5
176
1
 40
30.0
176
1
 62
7
420
16777215
176
1
 90
1
176
1
 90
4
176
1
 62
7
176
1
 62
257
176
1
 90
1
176
1
 90
1
176
1
 40
1.0
176
1
 90
8
176
1
 62
7
176
1
 40
1.0
176
1
 90
1
176
1
 90
6
176
1
 90
2
176
1
 62
7
176
1
 90
5
176
1
 90
0
176
1
 90
0
176
1
290
0
176
1
 90
1
176
1
 40
0.0
176
1
 90
0
176
1
290
0
176
1
290
1
176
1
290
1
176
1
290
0
176
1
290
0
176
1
290
0
176
1
290
0
176
1
290
0
176
1
290
0
176
1
 90
50
176
1
 40
0.0
176
1
 40
1.0
176
1
 90
0
176
1
 62
18
420
0
176
1
 90
50
176
1
 90
3
176
1
 62
5
420
255
176
1
290
0
176
1
 90
50
176
1
 90
50
176
1
 90
50
176
1
290
0
176
1
 90
50
176
1
 62
256
176
0
 40
1.0
176
0
 90
2
176
1
  1
strokes_ogs.tif
176
1
290
0
176
1
 40
1.0
176
1
 40
1.0
176
1
  0
DICTIONARYVAR
  5
157
330
2D
100
DictionaryVariables
280
0
  1
1.4.4 @ 2026-09-10T07:10:04.296292+00:00
  0
ENDSEC
  0
EOF
